<svg width="32" height="32" viewBox="0 0 32 32" fill="none" xmlns="http://www.w3.org/2000/svg">
<path d="M6.416 22.6179L3.4256 3.20027H1.6C1.17565 3.20027 0.768687 3.0317 0.468629 2.73164C0.168571 2.43158 0 2.02462 0 1.60027C0 1.17592 0.168571 0.768958 0.468629 0.4689C0.768687 0.168842 1.17565 0.000270925 1.6 0.000270925H4.776C5.16199 -0.00685506 5.53737 0.126803 5.832 0.376271C6.13441 0.63057 6.33168 0.98805 6.3856 1.37947L6.9104 4.80027H19.2V8.00027H7.4032L9.3712 20.8003H24.4096L26.8096 12.8003H30.1504L27.1328 22.8595C27.034 23.1892 26.8315 23.4783 26.5554 23.6838C26.2793 23.8893 25.9442 24.0003 25.6 24.0003H8.0256C7.62867 24.0076 7.24338 23.866 6.9456 23.6035C6.6555 23.3497 6.46685 22.9997 6.4144 22.6179H6.416ZM12.8 28.8003C12.8 29.649 12.4629 30.4629 11.8627 31.063C11.2626 31.6631 10.4487 32.0003 9.6 32.0003C8.75131 32.0003 7.93737 31.6631 7.33726 31.063C6.73714 30.4629 6.4 29.649 6.4 28.8003C6.4 27.9516 6.73714 27.1376 7.33726 26.5375C7.93737 25.9374 8.75131 25.6003 9.6 25.6003C10.4487 25.6003 11.2626 25.9374 11.8627 26.5375C12.4629 27.1376 12.8 27.9516 12.8 28.8003V28.8003ZM27.2 28.8003C27.2 29.649 26.8629 30.4629 26.2627 31.063C25.6626 31.6631 24.8487 32.0003 24 32.0003C23.1513 32.0003 22.3374 31.6631 21.7373 31.063C21.1371 30.4629 20.8 29.649 20.8 28.8003C20.8 27.9516 21.1371 27.1376 21.7373 26.5375C22.3374 25.9374 23.1513 25.6003 24 25.6003C24.8487 25.6003 25.6626 25.9374 26.2627 26.5375C26.8629 27.1376 27.2 27.9516 27.2 28.8003V28.8003ZM27.2 0.000270925C27.6243 0.000270925 28.0313 0.168842 28.3314 0.4689C28.6314 0.768958 28.8 1.17592 28.8 1.60027V3.20027H30.4C30.8243 3.20027 31.2313 3.36884 31.5314 3.6689C31.8314 3.96896 32 4.37592 32 4.80027C32 5.22462 31.8314 5.63158 31.5314 5.93164C31.2313 6.2317 30.8243 6.40027 30.4 6.40027H28.8V8.00027C28.8 8.42462 28.6314 8.83158 28.3314 9.13164C28.0313 9.4317 27.6243 9.60027 27.2 9.60027C26.7757 9.60027 26.3687 9.4317 26.0686 9.13164C25.7686 8.83158 25.6 8.42462 25.6 8.00027V6.40027H24C23.5757 6.40027 23.1687 6.2317 22.8686 5.93164C22.5686 5.63158 22.4 5.22462 22.4 4.80027C22.4 4.37592 22.5686 3.96896 22.8686 3.6689C23.1687 3.36884 23.5757 3.20027 24 3.20027H25.6V1.60027C25.6 1.17592 25.7686 0.768958 26.0686 0.4689C26.3687 0.168842 26.7757 0.000270925 27.2 0.000270925Z" fill="white"/>
</svg>
