<svg width="31" height="30" viewBox="0 0 31 30" fill="none" xmlns="http://www.w3.org/2000/svg">
<path d="M26.291 17.5832V22.2082H30.916V25.2916H26.2895L26.291 29.9166H23.2077L23.2062 25.2916H18.5827V22.2082H23.2077V17.5832H26.291ZM28.2073 3.33362C29.877 5.00347 30.8449 7.24867 30.9125 9.60912C30.9802 11.9696 30.1425 14.2665 28.5712 16.0292L26.382 13.8432C28.434 11.4937 28.326 7.80908 26.0243 5.512C24.9101 4.40013 23.4128 3.75635 21.8393 3.71249C20.2658 3.66864 18.7351 4.22804 17.5606 5.27612L15.5025 7.12304L13.4428 5.27766C12.2681 4.22727 10.7358 3.66657 9.16059 3.71073C7.58539 3.75488 6.08688 4.40054 4.97288 5.51508C3.86944 6.61846 3.22534 8.09913 3.17041 9.65862C3.11548 11.2181 3.65381 12.7404 4.67688 13.9187L17.6762 26.9396L15.4994 29.1226L2.42605 16.0308C0.852398 14.2671 0.0136496 11.9678 0.0819966 9.6051C0.150343 7.24238 1.1206 4.99547 2.79357 3.32565C4.46654 1.65584 6.71528 0.689826 9.07813 0.625941C11.441 0.562056 13.7386 1.40515 15.4994 2.98212C17.2608 1.40531 19.5593 0.563045 21.9226 0.628419C24.2858 0.693793 26.5342 1.66184 28.2058 3.33362H28.2073Z" fill="white"/>
</svg>
