<svg width="51" height="51" viewBox="0 0 51 51" fill="none" xmlns="http://www.w3.org/2000/svg">
<path d="M25.5 5.1C20.0896 5.1 14.9008 7.24928 11.075 11.075C7.24928 14.9008 5.1 20.0896 5.1 25.5C5.1 30.9104 7.24928 36.0992 11.075 39.925C14.9008 43.7507 20.0896 45.9 25.5 45.9C30.9104 45.9 36.0992 43.7507 39.925 39.925C43.7507 36.0992 45.9 30.9104 45.9 25.5C45.9 20.0896 43.7507 14.9008 39.925 11.075C36.0992 7.24928 30.9104 5.1 25.5 5.1V5.1ZM0 25.5C0 11.4164 11.4164 0 25.5 0C39.5836 0 51 11.4164 51 25.5C51 39.5836 39.5836 51 25.5 51C11.4164 51 0 39.5836 0 25.5Z" fill="#F94646"/>
<path d="M25.5002 30.6002C24.8239 30.6002 24.1753 30.3315 23.6971 29.8533C23.2189 29.3751 22.9502 28.7265 22.9502 28.0502V12.7502C22.9502 12.0739 23.2189 11.4253 23.6971 10.9471C24.1753 10.4689 24.8239 10.2002 25.5002 10.2002C26.1765 10.2002 26.8251 10.4689 27.3033 10.9471C27.7815 11.4253 28.0502 12.0739 28.0502 12.7502V28.0502C28.0502 28.7265 27.7815 29.3751 27.3033 29.8533C26.8251 30.3315 26.1765 30.6002 25.5002 30.6002Z" fill="#F94646"/>
<path d="M21.6748 36.9749C21.6748 35.9604 22.0778 34.9875 22.7951 34.2702C23.5124 33.5529 24.4854 33.1499 25.4998 33.1499C26.5143 33.1499 27.4872 33.5529 28.2045 34.2702C28.9218 34.9875 29.3248 35.9604 29.3248 36.9749C29.3248 37.9894 28.9218 38.9623 28.2045 39.6796C27.4872 40.3969 26.5143 40.7999 25.4998 40.7999C24.4854 40.7999 23.5124 40.3969 22.7951 39.6796C22.0778 38.9623 21.6748 37.9894 21.6748 36.9749Z" fill="#F94646"/>
</svg>
