<svg width="51" height="51" viewBox="0 0 51 51" fill="none" xmlns="http://www.w3.org/2000/svg">
<path d="M25.5 0C11.4167 0 0 11.4167 0 25.5C0 39.5833 11.4167 51 25.5 51C39.5833 51 51 39.5833 51 25.5C51 11.4167 39.5833 0 25.5 0ZM25.5 4.93548C36.8652 4.93548 46.0645 14.1331 46.0645 25.5C46.0645 36.8652 36.8669 46.0645 25.5 46.0645C14.1348 46.0645 4.93548 36.8669 4.93548 25.5C4.93548 14.1348 14.1331 4.93548 25.5 4.93548ZM39.9161 18.3299L37.5989 15.9939C37.1191 15.5102 36.3378 15.507 35.854 15.987L21.3198 30.4043L15.1719 24.2065C14.692 23.7227 13.9108 23.7195 13.427 24.1994L11.091 26.5166C10.6072 26.9965 10.604 27.7777 11.084 28.2616L20.4183 37.6715C20.8982 38.1553 21.6794 38.1585 22.1632 37.6785L39.9092 20.0749C40.3929 19.5949 40.396 18.8137 39.9161 18.3299V18.3299Z" fill="#08B943"/>
</svg>
