<svg width="51" height="46" viewBox="0 0 51 46" fill="none" xmlns="http://www.w3.org/2000/svg">
<path d="M50.5372 16.8412H35.7176C35.4629 16.8412 35.2545 17.0496 35.2545 17.3043V20.083C35.2545 20.3377 35.4629 20.5461 35.7176 20.5461H50.5372C50.7919 20.5461 51.0003 20.3377 51.0003 20.083V17.3043C51.0003 17.0496 50.7919 16.8412 50.5372 16.8412ZM42.7801 24.7141H35.7176C35.4629 24.7141 35.2545 24.9225 35.2545 25.1772V27.9559C35.2545 28.2106 35.4629 28.419 35.7176 28.419H42.7801C43.0348 28.419 43.2432 28.2106 43.2432 27.9559V25.1772C43.2432 24.9225 43.0348 24.7141 42.7801 24.7141ZM23.4626 11.6602H20.956C20.5971 11.6602 20.3076 11.9496 20.3076 12.3085V26.665C20.3076 26.8734 20.406 27.0644 20.5739 27.186L29.1936 33.4727C29.483 33.6811 29.8882 33.6232 30.0966 33.3338L31.5844 31.3019V31.2961C31.7928 31.0066 31.7291 30.6014 31.4397 30.393L24.1051 25.0904V12.3085C24.1109 11.9496 23.8157 11.6602 23.4626 11.6602V11.6602Z" fill="#F59D19"/>
<path d="M42.421 32.0028H39.0751C38.7509 32.0028 38.4441 32.1706 38.2704 32.4485C37.5352 33.6121 36.6785 34.6888 35.6944 35.6729C33.9982 37.3691 32.0242 38.7005 29.8302 39.6267C27.5552 40.5877 25.1412 41.074 22.652 41.074C20.157 41.074 17.743 40.5877 15.4737 39.6267C13.2798 38.7005 11.3057 37.3691 9.6096 35.6729C7.91346 33.9768 6.58201 32.0028 5.65579 29.8088C4.69483 27.5395 4.20856 25.1256 4.20856 22.6305C4.20856 20.1355 4.69483 17.7274 5.65579 15.4523C6.58201 13.2583 7.91346 11.2843 9.6096 9.58817C11.3057 7.89203 13.2798 6.56058 15.4737 5.63436C17.743 4.6734 20.1628 4.18713 22.652 4.18713C25.147 4.18713 27.561 4.6734 29.8302 5.63436C32.0242 6.56058 33.9982 7.89203 35.6944 9.58817C36.6785 10.5723 37.5352 11.649 38.2704 12.8126C38.4441 13.0905 38.7509 13.2583 39.0751 13.2583H42.421C42.8205 13.2583 43.0752 12.8415 42.8957 12.4884C39.1214 4.98021 31.4685 0.100177 22.9241 0.00176576C10.4143 -0.154534 0.0231951 10.086 3.95486e-05 22.5842C-0.023116 35.1056 10.1248 45.2651 22.6462 45.2651C31.3006 45.2651 39.0809 40.3677 42.8957 32.7727C43.0752 32.4196 42.8147 32.0028 42.421 32.0028V32.0028Z" fill="#F59D19"/>
</svg>
