<svg width="443" height="443" viewBox="0 0 443 443" fill="none" xmlns="http://www.w3.org/2000/svg">
<circle cx="221.5" cy="221.5" r="221.5" fill="#1D1D1D"/>
<path d="M254.604 115.828C256.535 115.828 258.191 116.518 259.571 117.898C260.123 118.312 260.537 118.795 260.813 119.347C261.089 119.899 261.296 120.485 261.434 121.106C261.572 121.727 261.641 122.348 261.641 122.969C261.641 123.59 261.572 124.177 261.434 124.729C261.296 125.281 261.089 125.833 260.813 126.385C260.537 126.937 260.123 127.489 259.571 128.041L165.181 222.431L258.329 315.58C259.157 316.408 259.744 317.443 260.089 318.685C260.434 319.927 260.434 321.169 260.089 322.411C259.744 323.653 259.157 324.688 258.329 325.516C256.949 326.896 255.259 327.586 253.258 327.586C251.257 327.586 249.567 326.896 248.187 325.516L150.07 227.399C148.69 226.019 148 224.363 148 222.431C148 220.5 148.69 218.844 150.07 217.464L249.636 117.898C251.016 116.518 252.672 115.828 254.604 115.828Z" fill="white"/>
<path d="M256.777 115C258.709 115 261.193 116.104 262.573 117.484C263.125 117.898 263.539 118.795 263.815 119.347C264.091 119.899 264.298 120.485 264.436 121.106C264.574 121.727 264.643 122.348 264.643 122.969C264.643 123.59 264.574 124.177 264.436 124.729C264.298 125.281 264.091 125.833 263.815 126.385C263.539 126.937 263.125 127.489 262.573 128.041L168.182 222.431L261.331 315.58C262.159 316.408 262.745 317.443 263.09 318.685C263.435 319.927 263.435 321.169 263.09 322.411C262.745 323.653 262.366 325.102 260.813 325.93C259.433 327.31 256.501 328 254.5 328C252.499 328 249.567 326.896 248.187 325.516L153.071 227.399C151.691 226.019 151.001 224.363 151.001 222.431C151.001 220.499 151.691 218.844 153.071 217.464L250.774 116.966C252.154 115.586 254.845 115 256.777 115Z" fill="white"/>
</svg>
