<svg width="511" height="511" viewBox="0 0 511 511" fill="none" xmlns="http://www.w3.org/2000/svg">
<path d="M255.5 0C114.619 0 0 114.619 0 255.5C0 396.381 114.619 511 255.5 511C396.381 511 511 396.381 511 255.5C511 114.619 396.381 0 255.5 0ZM348.008 320.223C349.91 322.029 351.431 324.199 352.481 326.603C353.531 329.007 354.09 331.596 354.123 334.22C354.157 336.843 353.665 339.446 352.677 341.876C351.688 344.306 350.224 346.514 348.369 348.369C346.514 350.224 344.306 351.688 341.876 352.677C339.446 353.665 336.843 354.157 334.22 354.123C331.596 354.09 329.007 353.531 326.603 352.481C324.199 351.431 322.029 349.91 320.223 348.008L255.5 283.298L190.777 348.008C187.062 351.538 182.114 353.477 176.989 353.412C171.864 353.346 166.967 351.281 163.343 347.657C159.719 344.033 157.654 339.136 157.588 334.011C157.523 328.886 159.462 323.938 162.992 320.223L227.702 255.5L162.992 190.777C159.462 187.062 157.523 182.114 157.588 176.989C157.654 171.864 159.719 166.967 163.343 163.343C166.967 159.719 171.864 157.654 176.989 157.588C182.114 157.523 187.062 159.462 190.777 162.992L255.5 227.702L320.223 162.992C323.938 159.462 328.886 157.523 334.011 157.588C339.136 157.654 344.033 159.719 347.657 163.343C351.281 166.967 353.346 171.864 353.412 176.989C353.477 182.114 351.538 187.062 348.008 190.777L283.298 255.5L348.008 320.223Z" fill="#484848" fill-opacity="0.59"/>
</svg>
