<svg width="28" height="28" viewBox="0 0 28 28" fill="none" xmlns="http://www.w3.org/2000/svg">
<path d="M27.5078 15.1758L23.0508 20.6445C22.8503 20.8633 22.5814 20.9772 22.2441 20.9863C21.9069 20.9954 21.6152 20.9271 21.3691 20.7812C21.123 20.6354 21 20.4622 21 20.2617V17.5H17.5C17.026 17.5 16.6159 17.3314 16.2695 16.9941C15.9232 16.6569 15.75 16.2422 15.75 15.75V12.25C15.75 11.7578 15.9232 11.3431 16.2695 11.0059C16.6159 10.6686 17.026 10.5 17.5 10.5H21V7.76562C21 7.54688 21.123 7.36458 21.3691 7.21875C21.6152 7.07292 21.9069 7.00456 22.2441 7.01367C22.5814 7.02279 22.8503 7.13672 23.0508 7.35547L27.5078 12.7969C27.8359 13.125 28 13.5215 28 13.9863C28 14.4512 27.8359 14.8477 27.5078 15.1758ZM17.5137 7C17.0306 7 16.6159 6.82682 16.2695 6.48047C15.9232 6.13411 15.75 5.7194 15.75 5.23633C15.75 4.75326 15.5814 4.3431 15.2441 4.00586C14.9069 3.66862 14.4922 3.5 14 3.5H5.25C4.77604 3.5 4.36589 3.66862 4.01953 4.00586C3.67318 4.3431 3.5 4.75781 3.5 5.25V22.75C3.5 23.224 3.67318 23.6341 4.01953 23.9805C4.36589 24.3268 4.77604 24.5 5.25 24.5H14C14.4922 24.5 14.9069 24.3268 15.2441 23.9805C15.5814 23.6341 15.75 23.2194 15.75 22.7363C15.75 22.2533 15.9232 21.8431 16.2695 21.5059C16.6159 21.1686 17.0306 21 17.5137 21C17.9967 21 18.4069 21.1686 18.7441 21.5059C19.0814 21.8431 19.25 22.2578 19.25 22.75V24.5C19.25 25.4661 18.9082 26.291 18.2246 26.9746C17.541 27.6582 16.7161 28 15.75 28H3.5C2.53385 28 1.70898 27.6582 1.02539 26.9746C0.341797 26.291 0 25.4661 0 24.5V3.5C0 2.53385 0.341797 1.70898 1.02539 1.02539C1.70898 0.341797 2.53385 0 3.5 0H15.75C16.7161 0 17.541 0.341797 18.2246 1.02539C18.9082 1.70898 19.25 2.53385 19.25 3.5V5.25C19.25 5.72396 19.0814 6.13411 18.7441 6.48047C18.4069 6.82682 17.9967 7 17.5137 7Z" fill="white"/>
</svg>
