<svg width="19" height="19" viewBox="0 0 19 19" fill="none" xmlns="http://www.w3.org/2000/svg">
<path d="M2.71387 4.75C3.90781 4.75 4.89615 3.86311 5.06172 2.71429H18.321C18.5086 2.71429 18.6603 2.56262 18.6603 2.375C18.6603 2.18737 18.5086 2.03571 18.321 2.03571H5.06172C4.89615 0.886893 3.90781 0 2.71387 0C1.40422 0 0.338867 1.0657 0.338867 2.375C0.338867 3.6843 1.40422 4.75 2.71387 4.75ZM2.71387 0.678571C3.64928 0.678571 4.4103 1.43959 4.4103 2.375C4.4103 3.31041 3.64928 4.07143 2.71387 4.07143C1.77846 4.07143 1.01744 3.31041 1.01744 2.375C1.01744 1.43959 1.77846 0.678571 2.71387 0.678571Z" fill="white"/>
<path d="M16.2853 14.25C15.0913 14.25 14.103 15.1369 13.9374 16.2857H0.678153C0.490867 16.2857 0.338867 16.4374 0.338867 16.625C0.338867 16.8126 0.490867 16.9643 0.678153 16.9643H13.9374C14.103 18.1131 15.0913 19 16.2853 19C17.5946 19 18.6603 17.9343 18.6603 16.625C18.6603 15.3157 17.5946 14.25 16.2853 14.25ZM16.2853 18.3214C15.3499 18.3214 14.5889 17.5604 14.5889 16.625C14.5889 15.6896 15.3499 14.9286 16.2853 14.9286C17.2207 14.9286 17.9817 15.6896 17.9817 16.625C17.9817 17.5604 17.2207 18.3214 16.2853 18.3214Z" fill="white"/>
<path d="M18.321 9.16055H11.9994C11.8651 7.93845 10.8272 6.98438 9.56981 6.98438C8.31242 6.98438 7.27455 7.93879 7.14019 9.16055H0.678153C0.490867 9.16055 0.338867 9.31222 0.338867 9.49984C0.338867 9.68747 0.490867 9.83913 0.678153 9.83913H7.16156C7.35733 10.9927 8.36128 11.8748 9.56981 11.8748C10.7783 11.8748 11.782 10.9927 11.9777 9.83913H18.321C18.5086 9.83913 18.6603 9.68747 18.6603 9.49984C18.6603 9.31222 18.5086 9.16055 18.321 9.16055ZM9.56981 11.1963C8.59572 11.1963 7.80315 10.4037 7.80315 9.42961C7.80315 8.45552 8.59572 7.66295 9.56981 7.66295C10.5439 7.66295 11.3365 8.45552 11.3365 9.42961C11.3365 10.4037 10.5439 11.1963 9.56981 11.1963Z" fill="white"/>
</svg>
