<svg width="29" height="25" viewBox="0 0 29 25" fill="none" xmlns="http://www.w3.org/2000/svg">
<path d="M14.5 25C14.2997 24.9994 14.1053 24.9354 13.9471 24.8181C8.90754 21.0763 5.43604 17.8542 3.0069 14.6755C-0.0929727 10.6132 -0.799962 6.86278 0.904062 3.52809C2.11863 1.14618 5.60826 -0.802665 9.68704 0.331994C11.6317 0.868782 13.3285 2.01994 14.5 3.59739C15.6715 2.01994 17.3683 0.868782 19.313 0.331994C23.3827 -0.785342 26.8814 1.14618 28.0959 3.52809C29.8 6.86278 29.093 10.6132 25.9931 14.6755C23.564 17.8542 20.0925 21.0763 15.0529 24.8181C14.8947 24.9354 14.7003 24.9994 14.5 25V25ZM7.36666 1.74382C6.39614 1.70773 5.43366 1.92489 4.58253 2.372C3.7314 2.81911 3.02376 3.47928 2.53558 4.28165C1.13066 7.03601 1.76514 10.1022 4.47526 13.6447C7.3554 17.1947 10.728 20.3534 14.5 23.0338C18.2714 20.3561 21.644 17.2003 24.5247 13.6534C27.2439 10.1022 27.8693 7.03601 26.4644 4.29031C25.558 2.55801 22.8388 1.18082 19.8115 1.99501C18.8408 2.26914 17.9409 2.73445 17.1697 3.36099C16.3985 3.98753 15.7732 4.76142 15.3339 5.63284C15.2656 5.79171 15.1494 5.92758 15.0001 6.02321C14.8509 6.11883 14.6752 6.16989 14.4955 6.16989C14.3157 6.16989 14.1401 6.11883 13.9908 6.02321C13.8415 5.92758 13.7253 5.79171 13.6571 5.63284C13.2211 4.75923 12.5968 3.98354 11.8251 3.35661C11.0535 2.72969 10.1519 2.26568 9.17946 1.99501C8.59028 1.83148 7.98018 1.74694 7.36666 1.74382V1.74382Z" fill="black"/>
</svg>
