<svg width="32" height="32" viewBox="0 0 32 32" fill="none" xmlns="http://www.w3.org/2000/svg">
<path d="M12.6984 28.9022C12.6984 30.6215 11.2857 32 9.52381 32C7.7619 32 6.34921 30.6215 6.34921 28.9022C6.34921 27.183 7.77778 25.8045 9.52381 25.8045C11.2698 25.8045 12.6984 27.1985 12.6984 28.9022ZM25.3968 25.8045C23.6508 25.8045 22.2222 27.1985 22.2222 28.9022C22.2222 30.606 23.6508 32 25.3968 32C27.1429 32 28.5714 30.6215 28.5714 28.9022C28.5714 27.183 27.1587 25.8045 25.3968 25.8045ZM9.79365 20.7706L9.84127 20.5847L11.2698 18.06H23.0952C24.2857 18.06 25.3333 17.425 25.873 16.4647L32 5.60697L29.2381 4.12004H29.2222L27.4762 7.21781L23.0952 14.9622H11.9524L11.746 14.544L8.19048 7.21781L6.68254 4.12004L5.19048 1.02227H0V4.12004H3.1746L8.88889 15.8761L6.74603 19.6709C6.49206 20.1046 6.34921 20.6157 6.34921 21.1578C6.34921 21.9794 6.68367 22.7673 7.27903 23.3483C7.87438 23.9292 8.68185 24.2556 9.52381 24.2556H28.5714V21.1578H10.1905C9.98413 21.1578 9.79365 20.9874 9.79365 20.7706ZM26.9841 2.19942L24.746 0L17.0635 7.49661L12.9524 3.485L10.7143 5.66893L17.0635 11.8645L26.9841 2.19942Z" fill="white"/>
</svg>
