<svg width="26" height="26" viewBox="0 0 26 26" fill="none" xmlns="http://www.w3.org/2000/svg">
<path d="M6 0H0V6H6V0Z" fill="#393939"/>
<path d="M16 0H10V6H16V0Z" fill="#393939"/>
<path d="M26 0H20V6H26V0Z" fill="#393939"/>
<path d="M26 20H20V26H26V20Z" fill="#393939"/>
<path d="M26 10H20V16H26V10Z" fill="#393939"/>
<path d="M16 10H10V16H16V10Z" fill="#393939"/>
<path d="M16 20H10V26H16V20Z" fill="#393939"/>
<path d="M6 20H-4.47035e-08V26H6V20Z" fill="#393939"/>
<path d="M6 10H0L-7.82013e-05 16.0001H3.00004L6 16V10Z" fill="#393939"/>
</svg>
