<?xml version="1.0" standalone="no"?>
<!DOCTYPE svg PUBLIC "-//W3C//DTD SVG 1.1//EN" "http://www.w3.org/Graphics/SVG/1.1/DTD/svg11.dtd" >
<svg>
<metadata>
Created by FontForge 20090914 at Tue May  5 00:57:16 2020
 By www-data
Copyright Copr.1992 Image Club Graphics, Inc.
</metadata>
<defs>
<font id="Dreamcast" horiz-adv-x="475" >
  <font-face 
    font-family="Dreamcast"
    font-weight="500"
    font-stretch="normal"
    units-per-em="1000"
    panose-1="0 0 0 0 0 0 0 0 0 0"
    ascent="800"
    descent="-200"
    x-height="483"
    cap-height="696"
    bbox="-60 -286.002 1072 932.998"
    underline-thickness="17"
    underline-position="-148"
    unicode-range="U+001D-U+25CA"
  />
<missing-glyph horiz-adv-x="75" 
 />
    <glyph glyph-name=".notdef" horiz-adv-x="75" 
 />
    <glyph glyph-name="NULL" horiz-adv-x="0" 
 />
    <glyph glyph-name="NULL" horiz-adv-x="0" 
 />
    <glyph glyph-name="space" unicode=" " horiz-adv-x="200" 
 />
    <glyph glyph-name="exclam" unicode="!" horiz-adv-x="154" 
d="M115 188h-70l-20 506h100zM82 -4c-14.667 0 -27.167 5.16699 -37.5 15.5s-15.5 22.833 -15.5 37.5c0 14 5.16699 26.167 15.5 36.5s22.833 15.5 37.5 15.5c14 0 26.167 -5.16699 36.5 -15.5s15.5 -22.5 15.5 -36.5c0 -14.667 -5.16699 -27.167 -15.5 -37.5
s-22.5 -15.5 -36.5 -15.5z" />
    <glyph glyph-name="quotedbl" unicode="&#x22;" horiz-adv-x="243" 
d="M190 493h-26l-24 198c-0.666992 4 -1 10 -1 18c0 7.33301 2.33301 15.333 7 24c6 12.667 16.333 19 31 19c25.333 -1.33301 38 -16.333 38 -45c0 -4.66699 -0.333008 -10 -1 -16zM77 493h-25l-24 198c-0.666992 6 -1 11.333 -1 16c0 30 13 45 39 45
c24.667 -0.666992 37 -16.667 37 -48c0 -4 -0.333008 -8.33301 -1 -13z" />
    <glyph glyph-name="numbersign" unicode="#" horiz-adv-x="546" 
d="M419 437l-20 -142h100v-63h-111l-29 -232h-69l30 232h-122l-32 -232h-69l31 232h-105l2 63h111l22 142h-108v63h115l30 223h68l-29 -223h123l31 223h69l-32 -223h97v-63h-103zM227 437l-21 -143h124l19 143h-122z" />
    <glyph glyph-name="dollar" unicode="$" horiz-adv-x="482" 
d="M396 660c-42 34 -88.001 51.002 -138.001 51.002h-2v-285l41 -27c52.667 -32.667 90.334 -62.334 113.001 -89.001c30.667 -36.667 46.667 -81 48 -133v-3c0 -49.333 -18.667 -92.666 -56 -129.999s-79 -58 -125 -62l-21 -2v-47h-55v49
c-52.667 0 -107.667 10.333 -165 31l-10 84c55.333 -45.333 113.666 -68 174.999 -68v333l-40 23c-92 53.333 -138 115.666 -138 186.999v9c2.66699 46 18.334 85.167 47.001 117.5s65.667 52.166 111 59.499l20 4v46h55v-45c49.333 0 96 -10.667 140 -32v-71z
M201.999 710.002c-25.333 -2.66699 -47.834 -15.832 -67.501 -39.499s-29.5 -51.834 -29.5 -84.501c0.666992 -42.667 29.334 -82 86.001 -118l11 -7v249zM369.998 172.004l-0.000976562 4.00098c0 50 -25.333 92.333 -76 127l-38 25v-297
c30 3.33301 56.333 18.166 79 44.499s34.334 58.5 35.001 96.5z" />
    <glyph glyph-name="percent" unicode="%" horiz-adv-x="706" 
d="M682 182c0 -51.333 -13.833 -96.8359 -41.5 -136.503s-63.5 -59.5 -107.5 -59.5h-2c-46 0.666992 -81.833 20.834 -107.5 60.501s-38.5 84.834 -38.5 135.501v71c0 48 13.833 90.333 41.5 127s63.5 55 107.5 55h2c44.667 -0.666992 80.167 -20.167 106.5 -58.5
s39.5 -82.166 39.5 -131.499v-63zM320 502.997c0 -50.667 -13.833 -95.832 -41.5 -135.499s-63.5 -59.5 -107.5 -59.5h-2c-45.333 0.666992 -81 20.834 -107 60.501s-39 84.5 -39 134.5v71c0 48 14.333 90.667 43 128c28 36.667 63.667 55 107 55h2
c44 -0.666992 79.167 -20.334 105.5 -59.001s39.5 -82.334 39.5 -131.001v-64zM270 -68.001h-48l191 819h49zM609 252.999c0 35.333 -6.16699 66.1689 -18.5 92.502s-30.5 39.5 -54.5 39.5h-2c-23.333 0 -42.333 -12.333 -57 -37s-22 -53.667 -22 -87v-103
c0 -32.667 6.66699 -60.834 20 -84.501s32 -35.834 56 -36.501h2c22.667 0 41 12.5 55 37.5s21 53.833 21 86.5v92zM248 574.002c0 35.333 -6.33301 66.167 -19 92.5s-31 39.833 -55 40.5h-2c-23.333 0 -42.333 -12.5 -57 -37.5s-22 -53.833 -22 -86.5v-104
c0 -32 6.66699 -59.333 20 -82c14 -25.333 32.667 -38.333 56 -39h2c22.667 0 41.167 12.333 55.5 37s21.5 53.667 21.5 87v92z" />
    <glyph glyph-name="ampersand" unicode="&#x26;" horiz-adv-x="611" 
d="M587 128c-61.333 -82 -153.667 -125.997 -277 -131.997h-17c-68 0 -127.333 15.333 -178 46c-61.333 37.333 -92 89 -92 155v4c1.33301 52 19 94.333 53 127c10 9.33301 48.667 35.666 116 78.999l37 24l-28 19c-60.667 41.333 -91 92.333 -91 153v4
c2 45.333 20 81 54 107c31.333 22 70.333 33.667 117 35h6c45.333 0 85.5 -15.167 120.5 -45.5s52.5 -68.5 52.5 -114.5v-4c0 -58.667 -32.667 -108.334 -98 -149.001l-165 -103c-59.333 -36.667 -90.333 -79.334 -93 -128.001v-8c0 -46.667 22.667 -83.667 68 -111
c34.667 -21.333 72 -32 112 -32c7.33301 0 14.333 0.333008 21 1c94.667 10.667 163.667 47.667 207 111c3.33301 4 5 13.333 5 28zM382.999 593.003c-2 30 -12.1689 54.168 -30.502 72.501s-40.5 27.5 -66.5 27.5h-3c-25.333 0 -47.666 -8.33301 -66.999 -25
c-20 -18.667 -30 -41.334 -30 -68.001v-3c0 -28 10.333 -53.667 31 -77c6.66699 -8 26.334 -25.333 59.001 -52l10 -8l44 29c35.333 24 53 56 53 96v8z" />
    <glyph glyph-name="quotesingle" unicode="'" horiz-adv-x="131" 
d="M77 490l-26 0.000976562l-23 199c-0.666992 6 -1 11.667 -1 17c0 28.667 11.667 43 35 43h3c25.333 -0.666992 38 -16.334 38 -47.001c0 -4 -0.333008 -8.33301 -1 -13z" />
    <glyph glyph-name="parenleft" unicode="(" horiz-adv-x="264" 
d="M25 272c0 172 47.998 330.332 143.998 474.999h71c-43.333 -67.333 -76.166 -139.666 -98.499 -216.999s-33.5 -167 -33.5 -269v-74c0 -160.667 43.333 -312.667 130 -456h-63c-51.333 79.333 -89.166 163 -113.499 251s-36.5 163 -36.5 225v65z" />
    <glyph glyph-name="parenright" unicode=")" horiz-adv-x="263" 
d="M238 207c0 -62 -14 -143 -42 -243c-22 -76.667 -58.333 -154.334 -109 -233.001h-62c44 72.667 77.333 150.334 100 233.001c20 78 30 152.333 30 223v74c0 184 -44 346 -132 486h70c40 -59.333 71.667 -123 95 -191c33.333 -97.333 50 -192 50 -284v-65z" />
    <glyph glyph-name="asterisk" unicode="*" horiz-adv-x="240" 
d="M117 545c-8.66699 0 -13.001 4.33203 -13.001 12.999l-1 44c0 5.33301 -0.333008 8 -1 8l-47 -29c-7.33301 0 -11.666 1.33301 -12.999 4l-9 17c-1.33301 1.33301 -2 2.66602 -2 3.99902s1.33301 3.33301 4 6l41 27c2.66699 2 4 3.66699 4 5s-2 3.33301 -6 6l-43 25
c-2.66699 2 -4 4 -4 6l1 5l10 18c1.33301 2.66699 4.33301 4 9 4s8.33398 -1.33301 11.001 -4l41 -23l2 -1v54c0 5.33301 0.833008 8.83301 2.5 10.5s5.16699 2.5 10.5 2.5h26c1.33301 -2.66699 2 -7 2 -13v-44c0 -3.33301 1 -5.66602 3 -6.99902l2 2l44 25
c6 -3.33301 9 -5.33301 9 -6l11 -15c0.666992 -2 1 -3.33301 1 -4v-2c0 -0.666992 -3 -3.33398 -9 -8.00098l-34 -24c-3.33301 -1.33301 -5 -3 -5 -5v-1c0 -2 1.33301 -3.66699 4 -5l34 -20c6 -1.33301 9 -3.66602 9 -6.99902v-2c0 -1.33301 -0.333008 -3 -1 -5l-8 -13
l-7 -7c-4.66699 0 -9.33398 1.33301 -14.001 4l-30 17c-1.33301 1.33301 -2.33301 2 -3 2c-1.33301 -1.33301 -2 -3.66602 -2 -6.99902v-43c0 -9.33301 -4.33301 -14 -13 -14h-16z" />
    <glyph glyph-name="plus" unicode="+" horiz-adv-x="561" 
d="M312 232v-237h-66v238h-220v63h219v235h66v-235h223v-64h-222z" />
    <glyph glyph-name="comma" unicode="," horiz-adv-x="154" 
d="M71 -100l-25 0.00195312c13.333 23.333 20 43.666 20 60.999c0 16.667 -8.66699 33.667 -26 51c-10.667 10 -16 22.333 -16 37c0 14 5.16699 26.167 15.5 36.5s22.833 15.5 37.5 15.5c14 0 26.167 -5.16699 36.5 -15.5s15.5 -22.5 15.5 -36.5
c0 -29.333 -6.16699 -57.333 -18.5 -84s-25.5 -48.334 -39.5 -65.001z" />
    <glyph glyph-name="hyphen" unicode="-" horiz-adv-x="276" 
d="M30 336v68h215v-68h-215z" />
    <glyph glyph-name="period" unicode="." horiz-adv-x="152" 
d="M80 -4c-14.667 0 -27.167 5.16699 -37.5 15.5s-15.5 22.833 -15.5 37.5c0 14 5.16699 26.167 15.5 36.5s22.833 15.5 37.5 15.5c14 0 26.167 -5.16699 36.5 -15.5s15.5 -22.5 15.5 -36.5c0 -14.667 -5.16699 -27.167 -15.5 -37.5s-22.5 -15.5 -36.5 -15.5z" />
    <glyph glyph-name="slash" unicode="/" horiz-adv-x="247" 
d="M67 -5h-44l159 751h41z" />
    <glyph glyph-name="zero" unicode="0" horiz-adv-x="560" 
d="M534 341c0 -96.667 -18 -177.331 -54 -241.998c-44 -78.667 -109.667 -118 -197 -118h-2c-164 1.33301 -249.333 118.666 -256 351.999v18c0 89.333 18.667 166.666 56 231.999c46 80.667 111.333 121 196 121h4c84 0 149 -39.667 195 -119
c38.667 -66 58 -147.333 58 -244zM445 331.003v22c0 72 -11.667 135.667 -35 191c-30 70.667 -73 106.667 -129 108h-3c-55.333 0 -98.333 -35 -129 -105c-24 -56 -36 -120 -36 -192v-22c5.33301 -198.667 61 -298 167 -298h1c102 1.33301 156.667 100 164 296z" />
    <glyph glyph-name="one" unicode="1" horiz-adv-x="253" 
d="M210 75c0 -28.667 6.33203 -55.333 18.999 -80h-121c7.33301 15.333 11.833 26.333 13.5 33s2.5 22.334 2.5 47.001v482h-101v36h13c30 0 55.833 10.167 77.5 30.5s33.834 46.166 36.501 77.499l60 1v-627z" />
    <glyph glyph-name="two" unicode="2" horiz-adv-x="489" 
d="M436 -2l-412.999 0.00292969l296 403c20 28 30 61.667 30 101v7c-0.666992 41.333 -13.667 75.666 -39 102.999s-58.666 41.333 -99.999 42h-8c-53.333 0 -98.333 -21 -135 -63v82c37.333 23.333 85.666 35.666 144.999 36.999h7c61.333 0 112 -16.833 152 -50.5
s60 -80.834 60 -141.501v-2c-0.666992 -52.667 -16.667 -100 -48 -142l-235 -323h202c43.333 0 81.666 10 114.999 30z" />
    <glyph glyph-name="three" unicode="3" horiz-adv-x="484" 
d="M460 206l-0.000976562 -7c0 -67.333 -25.833 -120.5 -77.5 -159.5s-113.5 -58.5 -185.5 -58.5c-72.667 0 -130.334 11 -173.001 33v82c44.667 -36.667 102 -55.667 172 -57c50.667 0 93.334 14.833 128.001 44.5s52 70.5 52 122.5c-0.666992 42.667 -18 77 -52 103
c-38 29.333 -82.333 44 -133 44c-22.667 0 -46 -4.66699 -70 -14v70c18.667 -4.66699 35.334 -7 50.001 -7c64 0 113.667 12 149 36s53 56.333 53 97v3c-1.33301 35.333 -16.166 63.5 -44.499 84.5s-64.5 31.5 -108.5 31.5s-82.667 -10 -116 -30v76
c30.667 10 66.667 15 108 15c67.333 0 121.666 -12 162.999 -36c50 -28.667 75.333 -72 76 -130v-2c0 -74.667 -36 -128 -108 -160l-16 -7l23 -11c70 -28.667 106.667 -83 110 -163z" />
    <glyph glyph-name="four" unicode="4" horiz-adv-x="558" 
d="M424 51c0 -12.667 5.66602 -31.333 16.999 -56h-116c6.66699 14.667 10.334 22.667 11.001 24c2 16 3 25.667 3 29v149h-316v46l330 456h69v-448h112v-53h-110v-147zM337.999 571.001l-231 -321h231v321z" />
    <glyph glyph-name="five" unicode="5" horiz-adv-x="469" 
d="M172 -21h-11.999c-52.667 0 -97.667 8 -135 24v76c37.333 -26.667 90.666 -41.667 159.999 -45h11c46.667 0 86.667 18.167 120 54.5s50 78.5 50 126.5v11c-2.66699 50 -17.667 91 -45 123s-63 48 -107 48h-12c-47.333 -4 -79.333 -21.667 -96 -53l-5 -7h-63v357h355v-72
c-18 10.667 -30.333 16.5 -37 17.5s-17 1.5 -31 1.5h-204v-210c28.667 16.667 65 25 109 25h3c62 0 112.833 -21 152.5 -63s59.5 -96 59.5 -162c0 -165.333 -91 -249.333 -273 -252z" />
    <glyph glyph-name="six" unicode="6" horiz-adv-x="502" 
d="M478 219l-0.00195312 -4.00098c0 -63.333 -17.333 -115.666 -52 -156.999c-41.333 -48 -98.333 -72 -171 -72c-149.333 0.666992 -226 99.667 -230 297v8c0 105.333 23.333 196 70 272c54.667 88 130 132.333 226 133c16.667 0 35.334 -1.33301 56.001 -4v-61
c-23.333 10 -44.666 16 -63.999 18h-6c-42.667 0 -83 -24.667 -121 -74s-58.333 -104 -61 -164l-1 -25c34 35.333 79 53 135 53h10c59.333 0 108.5 -21.333 147.5 -64s59.5 -94.667 61.5 -156zM395.998 205.999v7.00098c0 43.333 -11.667 81.833 -35 115.5
s-56 51.167 -98 52.5h-7c-43.333 0 -77.833 -17.333 -103.5 -52s-38.5 -74.334 -38.5 -119.001v-10c2 -46.667 15.5 -86 40.5 -118s58.833 -48 101.5 -48h2c42.667 1.33301 76.167 18.5 100.5 51.5s36.833 73.167 37.5 120.5z" />
    <glyph glyph-name="seven" unicode="7" horiz-adv-x="494" 
d="M206 -3h-92.001l245 642h-247c-27.333 0 -45.166 -1 -53.499 -3s-19.833 -8 -34.5 -18v77h446z" />
    <glyph glyph-name="eight" unicode="8" horiz-adv-x="545" 
d="M521 190c0 -65.333 -23.499 -116.5 -70.499 -153.5s-106.5 -55.833 -178.5 -56.5h-3c-68.667 0 -126.834 19.167 -174.501 57.5s-71.5 86.166 -71.5 143.499v5c2 78.667 42.333 137.667 121 177l17 8l-22 13c-57.333 32.667 -86 81.667 -86 147v3
c0.666992 53.333 21.5 95.833 62.5 127.5s95.167 47.5 162.5 47.5h3c60 0 110.333 -16 151 -48s61 -72 61 -120v-6c-1.33301 -69.333 -33.333 -118.666 -96 -147.999l-24 -12l24 -10c82.667 -32.667 124 -91 124 -175zM366.001 616
c-26.667 25.333 -57.333 38.001 -92 38.001s-65 -12 -91 -36s-39.333 -53.333 -40 -88v-3c0 -34 12 -62.667 36 -86c24.667 -24.667 54 -38 88 -40h8c33.333 0 63.5 11.833 90.5 35.5s40.5 53.167 40.5 88.5s-13.333 65.666 -40 90.999zM434.002 182.001l0.000976562 3
c0 43.333 -16.333 80.333 -49 111s-70.334 46 -113.001 46h-5c-42 -2 -78 -18.333 -108 -49s-45 -66 -45 -106v-6c1.33301 -40.667 17.166 -75.5 47.499 -104.5s65.166 -44.833 104.499 -47.5h8c40.667 0 77.334 14.5 110.001 43.5s49.334 65.5 50.001 109.5z" />
    <glyph glyph-name="nine" unicode="9" horiz-adv-x="507" 
d="M481 409l-0.00292969 -11c0 -108.667 -21.333 -199.334 -64 -272.001c-53.333 -90.667 -133 -138.334 -239 -143.001h-6c-27.333 0 -59 7.66699 -95 23v75c38.667 -31.333 71.667 -47 99 -47h2c56.667 2.66699 101.334 24.334 134.001 65.001
s53.334 92.334 62.001 155.001l4 34l-2 -1c-40.667 -32 -85.667 -48 -135 -48c-70.667 0 -126.667 25.667 -168 77c-33.333 42 -50 95 -50 159c0 63.333 19.833 117.333 59.5 162s92.834 67 159.501 67h8c151.333 -2.66699 228.333 -101 231 -295zM246.997 300
c42 0 76.999 16.498 104.999 49.498s42 74.167 42 123.5c0 48.667 -13.667 90.834 -41 126.501s-62 53.834 -104 54.501h-1c-42 0 -76.667 -18.333 -104 -55s-41 -77.667 -41 -123v-7c2 -45.333 14.833 -84.333 38.5 -117s55.834 -50 96.501 -52h9z" />
    <glyph glyph-name="colon" unicode=":" horiz-adv-x="152" 
d="M80 -4c-14.667 0 -27.167 5.16699 -37.5 15.5s-15.5 22.833 -15.5 37.5c0 14 5.16699 26.167 15.5 36.5s22.833 15.5 37.5 15.5c14 0 26.167 -5.16699 36.5 -15.5s15.5 -22.5 15.5 -36.5c0 -14.667 -5.16699 -27.167 -15.5 -37.5s-22.5 -15.5 -36.5 -15.5zM80 376
c-14.667 0 -27.167 5.16699 -37.5 15.5s-15.5 22.833 -15.5 37.5c0 14 5.16699 26.167 15.5 36.5s22.833 15.5 37.5 15.5c14 0 26.167 -5.16699 36.5 -15.5s15.5 -22.5 15.5 -36.5c0 -14.667 -5.16699 -27.167 -15.5 -37.5s-22.5 -15.5 -36.5 -15.5z" />
    <glyph glyph-name="semicolon" unicode=";" horiz-adv-x="152" 
d="M80 376c-14.667 0 -27.167 5.16699 -37.5 15.5s-15.5 22.833 -15.5 37.5c0 14 5.16699 26.167 15.5 36.5s22.833 15.5 37.5 15.5c14 0 26.167 -5.16699 36.5 -15.5s15.5 -22.5 15.5 -36.5c0 -14.667 -5.16699 -27.167 -15.5 -37.5s-22.5 -15.5 -36.5 -15.5zM74 -100
l-25 0.00195312c13.333 23.333 20 43.666 20 60.999c0 16.667 -8.66699 33.667 -26 51c-10.667 10 -16 22.333 -16 37c0 14 5.16699 26.167 15.5 36.5s22.833 15.5 37.5 15.5c14 0 26.167 -5.16699 36.5 -15.5s15.5 -22.5 15.5 -36.5c0 -29.333 -6.16699 -57.333 -18.5 -84
s-25.5 -48.334 -39.5 -65.001z" />
    <glyph glyph-name="less" unicode="&#x3c;" horiz-adv-x="560" 
d="M25 243v58l507 255v-70l-423 -218l423 -205v-65z" />
    <glyph glyph-name="equal" unicode="=" horiz-adv-x="454" 
d="M31 313v68h392v-68h-392zM31 165v68h392v-68h-392z" />
    <glyph glyph-name="greater" unicode="&#x3e;" horiz-adv-x="559" 
d="M26 -2v65l423 205l-423 218v70l507 -255v-58z" />
    <glyph glyph-name="question" unicode="?" horiz-adv-x="383" 
d="M359 527v-5.00195c0 -51.333 -21.667 -98.666 -65 -141.999l-81 -81c-10 -10 -17.167 -19.833 -21.5 -29.5s-6.5 -22.167 -6.5 -37.5v-46h-80v43c0 20.667 3.83301 39.334 11.5 56.001s22.5 36 44.5 58l74 71c30 28 45 63.333 45 106v2c0 37.333 -14.167 67 -42.5 89
s-60.5 33 -96.5 33h-7c-45.333 -2 -82.333 -12.333 -111 -31v69c30 14 73 21 129 21h10c56 0 102.5 -16 139.5 -48s56.167 -74.667 57.5 -128zM144 -4.00195c-14.667 0 -27.167 5.16699 -37.5 15.5s-15.5 22.833 -15.5 37.5c0 14 5.16699 26.167 15.5 36.5
s22.833 15.5 37.5 15.5c14 0 26.167 -5.16699 36.5 -15.5s15.5 -22.5 15.5 -36.5c0 -14.667 -5.16699 -27.167 -15.5 -37.5s-22.5 -15.5 -36.5 -15.5z" />
    <glyph glyph-name="at" unicode="@" horiz-adv-x="734" 
d="M481 211c0 -22 4.66699 -32.9971 14 -32.9971c36 0 70.333 26.833 103 80.5s49 110.167 49 169.5c0 77.333 -27 137.666 -81 180.999s-119 65 -195 65c-76.667 0 -143.334 -30 -200.001 -90s-85 -133.333 -85 -220c0 -87.333 29.167 -162.5 87.5 -225.5
s128.833 -94.5 211.5 -94.5s149.334 23.667 200.001 71c24 23.333 40.333 47.666 49 72.999h73c-13.333 -34 -36.333 -67 -69 -99c-66.667 -66.667 -151 -100 -253 -100s-187.5 36.5 -256.5 109.5s-103.5 159.833 -103.5 260.5v3c0 100.667 34 187.167 102 259.5
s148.667 108.5 242 108.5s173.333 -27.833 240 -83.5s100 -125.834 100 -210.501c0 -74 -23 -140.833 -69 -200.5s-100.667 -89.5 -164 -89.5c-29.333 0 -50.666 14.333 -63.999 43c-6.66699 14 -10.334 24 -11.001 30l-18 -23c-26 -30.667 -58.333 -46 -97 -46h-2
c-38.667 0 -70.167 16 -94.5 48s-36.5 69 -36.5 111c0 62 23.833 115.333 71.5 160s94.5 67 140.5 67c45.333 0 73 -16 83 -48l5 -13l16 49l91 2l-76 -290c-2 -8.66699 -3 -17 -3 -25zM380 506.003c-28.667 0 -57.667 -27.1689 -87 -81.502s-44 -108.166 -44 -161.499
s19.333 -80 58 -80c29.333 0 57.333 28.333 84 85s40 107.334 40 152.001c0 57.333 -17 86 -51 86z" />
    <glyph glyph-name="A" unicode="A" horiz-adv-x="784" 
d="M620 -4c4 11.333 6.00098 21.333 6.00098 30v8l-10 29l-90 201h-289l-93 -224c-4.66699 -10.667 -7 -18.667 -7 -24c0 -6 1.33301 -12.667 4 -20h-115c13.333 13.333 24.166 25.333 32.499 36s16.5 25.334 24.5 44.001l247 565c2.66699 5.33301 4 13.666 4 24.999v6
c0 7.33301 -0.666992 16 -2 26h95l256 -575c17.333 -38 33 -68 47 -90l27 -37h-137zM379.001 594l-119 -278h243z" />
    <glyph glyph-name="B" unicode="B" horiz-adv-x="495" 
d="M52 626c0 21.333 -8.66797 44.667 -26.001 70h221c47.333 0 87.333 -16.667 120 -50s50.334 -73 53.001 -119v-4c0 -55.333 -26 -97.666 -78 -126.999l-25 -16l25 -8c83.333 -27.333 125 -86 125 -176c0 -61.333 -21.333 -110 -64 -146s-101 -54 -175 -54h-195
c12.667 19.333 19 38.666 19 57.999v572zM298.999 613.001c-24 21.333 -56.667 32 -98 32h-64v-246h57c48 0 83.833 11 107.5 33s35.5 51.667 35.5 89v6c-2 36 -14.667 64.667 -38 86zM196.999 350.001c-24.667 0 -43.333 -1.66699 -56 -5v-296c16 -5.33301 29.333 -8 40 -8
c60.667 0 109.167 13.833 145.5 41.5s54.5 64.167 54.5 109.5v5c-2 98 -63.333 149 -184 153z" />
    <glyph glyph-name="C" unicode="C" horiz-adv-x="685" 
d="M616 9c-48.667 -17.333 -115.333 -26.0029 -200 -26.0029c-108 0 -198.667 33 -272 99c-77.333 68 -116.333 154.667 -117 260v3c0 102.667 38.333 188.167 115 256.5s172.667 102.5 288 102.5h3c66.667 -1.33301 124 -11.666 172 -30.999v-74
c-55.333 30.667 -112 46.334 -170 47.001h-9c-88 0 -161.5 -28.833 -220.5 -86.5s-88.833 -130.167 -89.5 -217.5v-6c0 -87.333 30.667 -158.666 92 -213.999c59.333 -52 132.333 -78 219 -78h13c81.333 1.33301 154 24 218 68z" />
    <glyph glyph-name="D" unicode="D" horiz-adv-x="689" 
d="M42 631c0 24.667 -4.66699 45.667 -14 63h263c109.333 0 197.833 -32.5 265.5 -97.5s102.5 -146.167 104.5 -243.5v-9c0 -96 -34 -177.833 -102 -245.5s-158.333 -101.5 -271 -101.5h-262c10.667 22 16 50.667 16 86v548zM489 563
c-56 54 -126.334 81.001 -211.001 81.001h-15c-66.667 -2 -110.667 -6.66699 -132 -14v-570c18 -4.66699 57.667 -7.66699 119 -9h16c90.667 0 165.334 27.667 224.001 83c58 55.333 87 125.666 87 210.999v2c-0.666992 86 -30 158 -88 216z" />
    <glyph glyph-name="E" unicode="E" horiz-adv-x="507" 
d="M47 643c0 20.667 -7 38 -21 52h374v-81c-14 12.667 -24.5 20.167 -31.5 22.5s-21.833 3.5 -44.5 3.5h-188v-224h264v-74c-28.667 12.667 -54 19 -76 19h-185v-308h222c28 0 53.667 4 77 12c10 2 24 9 42 21l-29 -89h-419c6 9.33301 10 17.333 12 24s3 20 3 40v582z" />
    <glyph glyph-name="F" unicode="F" horiz-adv-x="424" 
d="M44 644c0 16 -6 33.332 -18 51.999h369v-82c-16 14 -27.333 21.833 -34 23.5s-21 2.5 -43 2.5h-188v-224h266v-61c-20.667 4 -33 6 -37 6h-226v-252c0 -27.333 2 -57.333 6 -90l6 -23h-114c6 10.667 9.66699 18.834 11 24.501s2 19.5 2 41.5v582z" />
    <glyph glyph-name="G" unicode="G" horiz-adv-x="721" 
d="M417 52c66.667 0 125.332 14.001 175.999 42.001v133c0 39.333 -2 65.5 -6 78.5s-12.333 26.167 -25 39.5h132c-8.66699 -10 -14 -18.333 -16 -25s-3 -16.667 -3 -30l1 -232c-67.333 -43.333 -147.666 -67 -240.999 -71h-21c-106 0 -197 33.5 -273 100.5
s-114 150.5 -114 250.5v5c2 111.333 40 199.666 114 264.999c70 63.333 161.333 95 274 95h3c75.333 -1.33301 138.333 -11.333 189 -30v-78c-56 33.333 -124 50 -204 50c-92 -1.33301 -163.167 -31.5 -213.5 -90.5s-75.5 -126.167 -75.5 -201.5v-9
c2.66699 -87.333 35 -159 97 -215c56 -51.333 124.667 -77 206 -77z" />
    <glyph glyph-name="H" unicode="H" horiz-adv-x="636" 
d="M593 60c0 -22 5.33008 -42.668 15.9971 -62.001h-118c8 9.33301 13.333 19.666 16 30.999v334h-375v-280c0 -28.667 1.16699 -47.167 3.5 -55.5s7.5 -18.833 15.5 -31.5h-121c5.33301 8 9.5 15.333 12.5 22s4.5 18.667 4.5 36v575c0 16 -1.66699 28.5 -5 37.5
s-8.66602 18.833 -15.999 29.5h123c-3.33301 -6.66699 -7.16602 -15.667 -11.499 -27s-6.5 -30.333 -6.5 -57v-194h376v204c0 20.667 -1.33301 35.334 -4 44.001s-9 18.334 -19 29.001h124c-5.33301 -11.333 -9.16602 -21.833 -11.499 -31.5s-3.5 -29.5 -3.5 -59.5v-544z
" />
    <glyph glyph-name="I" unicode="I" horiz-adv-x="182" 
d="M48 624c0 25.333 -7.33301 49.001 -22 71.001h129c-12.667 -24.667 -19 -47.667 -19 -69v-510c0 -45.333 0.666992 -72.833 2 -82.5s6.33301 -21.834 15 -36.501h-123c12 18 18 38.667 18 62v565z" />
    <glyph glyph-name="J" unicode="J" horiz-adv-x="248" 
d="M118 626c0 26 -4.00098 48.667 -12.001 68h115c-7.33301 -15.333 -11.833 -26.833 -13.5 -34.5s-2.5 -24.167 -2.5 -49.5v-404c0 -98 -5.33301 -158.333 -16 -181c-25.333 -53.333 -67.333 -97 -126 -131l-21 -12l-16 23l21 13c38.667 24 60.334 47.667 65.001 71
c4 26.667 6 81 6 163v474z" />
    <glyph glyph-name="K" unicode="K" horiz-adv-x="578" 
d="M48 624c0 28.667 -7.33301 53.001 -22 73.001l129 -1c-6.66699 -10 -11.667 -20.167 -15 -30.5s-5 -29.5 -5 -57.5l-1 -204l189 210c18 20.667 28 38.667 30 54v7c0 7.33301 -0.666992 14.333 -2 21h150c-20.667 -10.667 -36.167 -20.834 -46.5 -30.501
s-24.833 -24.5 -43.5 -44.5l-197 -216c38.667 -54 107.667 -141.667 207 -263c30.667 -36.667 74 -84.667 130 -144h-120l-295 379v-327c0 -8 0.666992 -15.667 2 -23s6.33301 -17 15 -29h-122c6.66699 10 11.167 17.833 13.5 23.5s3.5 17.167 3.5 34.5v568z" />
    <glyph glyph-name="L" unicode="L" horiz-adv-x="515" 
d="M47 626c0 26.667 -7.00098 49.668 -21.001 69.001h122c-5.33301 -10.667 -9.16602 -20.334 -11.499 -29.001s-3.5 -28 -3.5 -58l1 -553l269 1c14 0 26.5 1.83301 37.5 5.5s26.833 14.167 47.5 31.5l-37 -95h-421c6 9.33301 10.333 17 13 23s4 18 4 36v569z" />
    <glyph glyph-name="M" unicode="M" horiz-adv-x="898" 
d="M799 694c-10.667 -17.333 -16 -31.668 -16 -43.001c0 -12 0.666992 -21.333 2 -28l59 -509c3.33301 -39.333 6.66602 -68.666 9.99902 -87.999c0.666992 -3.33301 6.33398 -13.666 17.001 -30.999h-111c3.33301 15.333 5 27.666 5 36.999c0 8.66699 -1 20 -3 34l-57 530
l-274 -635l-279 611l-36 -498v-10c0 -24 2.33301 -47 7 -69h-97c7.33301 11.333 11.5 18.5 12.5 21.5s3.16699 16.167 6.5 39.5l50 571c0.666992 10 1 18 1 24c0 16 -6.33301 30 -19 42h107l253 -564l242 565h120z" />
    <glyph glyph-name="N" unicode="N" horiz-adv-x="738" 
d="M58 640c0 24 -10.667 41.668 -32 53.001h117l488 -547v432c0 42 -1 68.667 -3 80s-5 23.333 -9 36h92c-8 -22 -12 -45 -12 -69l1 -662l-574 621v-506c0 -23.333 5.66699 -51 17 -83h-103c8 11.333 13 21.166 15 29.499s3 19.833 3 34.5v581z" />
    <glyph glyph-name="O" unicode="O" horiz-adv-x="789" 
d="M761 356v-8c0 -100 -35.667 -183.667 -107 -251s-157 -101 -257 -101h-11c-100 3.33301 -184.833 39.833 -254.5 109.5s-104.5 153.167 -104.5 250.5s36.167 180.666 108.5 249.999s157.833 104 256.5 104h11c102 -3.33301 186.667 -39.166 254 -107.499
s102 -150.5 104 -246.5zM674 356c-1.33301 80 -28 148.668 -80 206.001s-117.667 86.666 -197 87.999h-3c-79.333 0 -144.833 -28.5 -196.5 -85.5s-78.167 -125.833 -79.5 -206.5v-6c0 -78 24.667 -145.667 74 -203c52 -58.667 117.333 -89 196 -91h8
c75.333 0 140.5 29.167 195.5 87.5s82.5 128.5 82.5 210.5z" />
    <glyph glyph-name="P" unicode="P" horiz-adv-x="482" 
d="M131 70c0 -26.667 5 -51.332 15 -73.999h-120c10.667 15.333 16.667 26.666 18 33.999s2 23 2 47v552c0 22 -1 35.833 -3 41.5s-6.66699 14.167 -14 25.5h220c57.333 0 106 -18.333 146 -55c40 -34.667 60 -77.667 60 -129v-5c-2 -54 -22 -97.667 -60 -131
c-37.333 -35.333 -85 -53 -143 -53h-6c-50 2 -88.333 11.333 -115 28v-281zM329 610.002c-24 21.333 -62.667 32.998 -116 34.998h-15c-28.667 0 -51 -3 -67 -9v-256c24 -13.333 49 -20 75 -20h7c47.333 1.33301 84.666 15.333 111.999 42s41 60.334 41 101.001v6
c-1.33301 44.667 -13.666 78.334 -36.999 101.001z" />
    <glyph glyph-name="Q" unicode="Q" horiz-adv-x="800" 
d="M490 -15l-103.001 -6c-100 1.33301 -185 37.333 -255 108c-70 70 -105 154 -105 252l1 1c0 98 36 182 108 252c72 68.667 157.333 103 256 103h11c102 -3.33301 187.333 -40 256 -110s103 -152 103 -246c-0.666992 -131.333 -57.667 -233.333 -171 -306l-27 -17
c2 -0.666992 6 -2.33398 12 -5.00098l14 -7l111 -100c30 -27.333 54 -47.666 72 -60.999h-70c-24 0 -46.667 7.33301 -68 22l-110 101c-17.333 12.667 -28.666 19 -33.999 19h-1zM673.999 340c-1.33301 80 -27.833 148.333 -79.5 205s-117.167 86 -196.5 88h-5
c-78.667 0 -144.167 -28.167 -196.5 -84.5s-78.5 -125.166 -78.5 -206.499c-0.666992 -0.666992 -1 -1.33398 -1 -2.00098c0 -81.333 26 -151.333 78 -210c52 -59.333 117.667 -90 197 -92h5c76.667 0 142 29.667 196 89s81 128.333 81 207v6z" />
    <glyph glyph-name="R" unicode="R" horiz-adv-x="591" 
d="M441 -5l-286.998 365.999l-19 21l-2 2v-313c0 -18 0.666992 -30.167 2 -36.5s5.33301 -18.5 12 -36.5h-116c7.33301 14.667 11.666 25.834 12.999 33.501s2 30.5 2 68.5v499c0 23.333 -1.33301 41.666 -4 54.999s-8 27.666 -16 42.999h220
c50.667 0 93.167 -14.667 127.5 -44s51.5 -67.333 51.5 -114v-5c-1.33301 -49.333 -21 -90.666 -59 -123.999c-32 -29.333 -69 -44 -111 -44h-17c-0.666992 0.666992 -1.33398 1 -2.00098 1c0 -0.666992 6.16699 -6.66699 18.5 -18s25.833 -26 40.5 -44l170 -211
c26.667 -34 46 -56.167 58 -66.5s25.667 -21.166 41 -32.499h-123zM204.002 650.999c-28.667 0 -52.002 -4 -70.002 -12v-239c6.66699 -0.666992 15.334 -1 26.001 -1c63.333 0 110.333 13.333 141 40c24 22 36 49.667 36 83v10c-5.33301 75.333 -49.666 115 -132.999 119z
" />
    <glyph glyph-name="S" unicode="S" horiz-adv-x="502" 
d="M474 176l0.00195312 -8.99707c0 -65.333 -30 -114 -90 -146c-46 -24.667 -104.667 -37 -176 -37h-16c-72 1.33301 -126.333 8.66602 -163 21.999v82c43.333 -34.667 100.333 -52.667 171 -54h9c50.667 0 91.167 11 121.5 33s45.5 54.333 45.5 97
c0 49.333 -36.333 93.666 -109 132.999l-129 72c-74 43.333 -111.333 97.333 -112 162v2c0 52 22.333 93.5 67 124.5s96.667 46.5 156 46.5h11c67.333 -2.66699 116.333 -9.66699 147 -21v-83c-36.667 34.667 -83 53 -139 55h-12c-35.333 0 -67.5 -10.333 -96.5 -31
s-43.5 -47 -43.5 -79v-10c3.33301 -38.667 30.666 -72.334 81.999 -101.001l113 -65c61.333 -34 98.666 -57.333 111.999 -70c32 -30 49 -71 51 -123z" />
    <glyph glyph-name="T" unicode="T" horiz-adv-x="620" 
d="M363 62c0 -26 5 -47.667 15 -65h-122c4 7.33301 6.83301 14 8.5 20s2.5 20.333 2.5 43v579h-173c-17.333 0 -40 -8 -68 -24l16 81h543l8 -77c-29.333 14.667 -56 22 -80 22h-150v-579z" />
    <glyph glyph-name="U" unicode="U" horiz-adv-x="630" 
d="M505 627c0 28 -4.33301 50.666 -13 67.999h111c-6 -16.667 -9 -38.667 -9 -66v-408c0 -66 -25.667 -121.5 -77 -166.5s-115 -68.167 -191 -69.5h-4c-80 0 -147.5 22.5 -202.5 67.5s-82.5 102.5 -82.5 172.5v400c0 26.667 -3.66699 50 -11 70h109
c-8 -17.333 -12 -38.666 -12 -63.999v-397c0 -52.667 20.667 -97.667 62 -135c38.667 -32.667 82.667 -49 132 -49h9c51.333 1.33301 94 19 128 53s51 75.667 51 125v399z" />
    <glyph glyph-name="V" unicode="V" horiz-adv-x="781" 
d="M754 694c-9.33301 -12 -17 -24.001 -23 -36.001c-6.66699 -10 -12 -19 -16 -27l-315 -657l-337 673c-6 13.333 -10.833 23 -14.5 29s-11.167 12.333 -22.5 19h128c-4 -6 -6 -11.667 -6 -17s1.66699 -12.333 5 -21l250 -515l234 494c7.33301 16.667 11 28.334 11 35.001
c0 6 -1 13.667 -3 23h109z" />
    <glyph glyph-name="W" unicode="W" horiz-adv-x="1005" 
d="M541 694c-6.66699 -10.667 -10.002 -19.999 -10.002 -27.999s1.33301 -16.333 4 -25l170 -462l156 456c6 12.667 9 23 9 31v2c-1.33301 10 -4.66602 19 -9.99902 27h118c-20.667 -23.333 -34.334 -44.333 -41.001 -63l-242 -659l-187 491l-183 -495l-256 674
c-5.33301 20 -19.666 37 -42.999 51h145c-7.33301 -12 -11 -21.333 -11 -28c0 -7.33301 0.666992 -12.333 2 -15l168 -470l145 375l-36 87c-1.33301 5.33301 -7.66602 14.666 -18.999 27.999c-4 6 -11 13.667 -21 23h142z" />
    <glyph glyph-name="X" unicode="X" horiz-adv-x="705" 
d="M546 1c-2 20 -9 39.333 -21 58l-180 246l-183 -267c-8 -10.667 -12 -20 -12 -28c0 -4 0.333008 -8.66699 1 -14h-125c18 17.333 33.667 35.666 47 54.999l228 315l-204 285c-6 10 -13 19 -21 27c-9.33301 8 -17 14.333 -23 19h146c-4 -9.33301 -6 -16.666 -6 -21.999
c0 -11.333 4.66699 -24 14 -38l153 -209l157 225c6 7.33301 9 14.333 9 21s-3.66699 14 -11 22h127c-5.33301 -6 -14.333 -16.667 -27 -32l-215 -293l245 -337l16 -18l17 -15h-132z" />
    <glyph glyph-name="Y" unicode="Y" horiz-adv-x="616" 
d="M252 -4c6 12 9 26.002 9 42.002v312l-211 323c-8 9.33301 -16 17 -24 23h127v-8c0 -14.667 5.66699 -30.334 17 -47.001l143 -228l157 243c7.33301 12 11 21 11 27c0 5.33301 -0.333008 10 -1 14h109c-10 -9.33301 -18.667 -19 -26 -29l-216 -318v-308
c0 -6.66699 1 -14.334 3 -23.001l5 -23h-103z" />
    <glyph glyph-name="Z" unicode="Z" horiz-adv-x="580" 
d="M508 -4l-482 -0.000976562l337 640h-260c-12.667 0 -22.667 -1.66699 -30 -5s-16.666 -13.333 -27.999 -30v95h448l-334 -641h301c15.333 0 28.666 2 39.999 6c12 2.66699 29.667 11.334 53 26.001z" />
    <glyph glyph-name="bracketleft" unicode="[" horiz-adv-x="266" 
d="M181 -138c-15.333 0.666992 -28.667 0.999023 -40 0.999023h-16c-11.333 0 -26 -0.666992 -44 -2l-33 -3h-20l5 35v25c0 52.667 0.666992 188 2 406v112c0 155.333 -2.33301 253.333 -7 294l-2 27h20l77 -6h15c12 0 25.667 0.333008 41 1l61 1v-37h-26
c-42.667 0 -67.667 -4.16699 -75 -12.5s-11 -22.166 -11 -41.499l2 -706c0 -18.667 4 -33.667 12 -45c7.33301 -7.33301 34.333 -11 81 -11h18l1 -39z" />
    <glyph glyph-name="backslash" unicode="\" horiz-adv-x="247" 
d="M179 -5l-156 751h42l158 -751h-44z" />
    <glyph glyph-name="bracketright" unicode="]" horiz-adv-x="265" 
d="M237 -139l-98.001 5.00098h-15c-11.333 0 -24.666 -0.333008 -39.999 -1l-61 -2l2 40h17c48 0 75.5 4.16699 82.5 12.5s10.5 22.833 10.5 43.5l2 705c0 20 -3.33301 34 -10 42c-8.66699 8.66699 -34 13 -76 13h-26v37l62 -2c14.667 -0.666992 27.667 -1 39 -1h16l76 5h21
l-2 -26c-4 -40 -6 -134.333 -6 -283v-122c-1.33301 -69.333 -2 -147 -2 -233c0 -86.667 2.66699 -164.334 8 -233.001z" />
    <glyph glyph-name="asciicircum" unicode="^" horiz-adv-x="325" 
d="M239 643l-78 59l-72 -59h-62l69 105h126l74 -105h-57z" />
    <glyph glyph-name="underscore" unicode="_" horiz-adv-x="716" 
d="M34 -109v56h647v-56h-647z" />
    <glyph glyph-name="grave" unicode="`" horiz-adv-x="220" 
d="M129 642l-102 107h98l66 -107h-62z" />
    <glyph glyph-name="a" unicode="a" horiz-adv-x="452" 
d="M406 71c0 -26.667 6 -50.333 18 -71h-92v48c-28 -38.667 -71 -58 -129 -58c-55.333 0 -98.666 13.167 -129.999 39.5s-47 60.833 -47 103.5c0 46 14.167 80.667 42.5 104s63.833 38.333 106.5 45l90 14c43.333 7.33301 65 27.333 65 60c0 24 -10.333 44 -31 60
s-51.667 24 -93 24c-48 0 -93.333 -15.333 -136 -46v71c42 19.333 88 29 138 29c75.333 0 127.166 -14 155.499 -42s42.5 -68 42.5 -120v-261zM334 270.001c-12.667 -14 -54.001 -26.332 -124.001 -36.999c-74 -12 -111 -45.667 -111 -101
c0 -26.667 9.33301 -48.834 28 -66.501s45.334 -26.5 80.001 -26.5c34.667 0.666992 64.5 13 89.5 37s37.5 55 37.5 93v101z" />
    <glyph glyph-name="b" unicode="b" horiz-adv-x="543" 
d="M133 301l0.000976562 -114.001c0 -45.333 14.833 -81.666 44.5 -108.999s63.5 -41 101.5 -41c44 0 81.5 18.333 112.5 55s46.5 86.667 46.5 150c0 69.333 -15.667 120.833 -47 154.5s-67.333 50.5 -108 50.5c-36.667 0 -70.834 -13.667 -102.501 -41
s-47.5 -62.333 -47.5 -105zM54.001 584.999c0 36.667 -2.66504 62.334 -7.99805 77.001c-0.666992 5.33301 -5.33398 13 -14.001 23l98 9v-257c38 39.333 89 59 153 59c73.333 0 130.666 -25 171.999 -75s62 -109.667 62 -179s-21 -129 -63 -179s-94.667 -75 -158 -75
c-68 0 -121.333 20 -160 60v-48h-103c14 25.333 21 56.666 21 93.999v491z" />
    <glyph glyph-name="c" unicode="c" horiz-adv-x="469" 
d="M428 14c-30.667 -14.667 -75.667 -21.999 -135 -21.999c-81.333 0 -146 23.667 -194 71s-72 107.333 -72 180c0 67.333 23.833 125.333 71.5 174s111.5 73 191.5 73c45.333 0 88 -7.33301 128 -22v-66c-34 24 -76.667 36 -128 36c-54.667 0 -99 -18.333 -133 -55
s-51 -85.334 -51 -146.001c0 -59.333 17.833 -106.333 53.5 -141s82.5 -52 140.5 -52c51.333 0 98.333 14.667 141 44z" />
    <glyph glyph-name="d" unicode="d" horiz-adv-x="549" 
d="M418 0l0.00195312 48c-38.667 -40 -92 -60 -160 -60c-63.333 0 -116 25 -158 75s-63 109.667 -63 179s20.667 129 62 179s98.666 75 171.999 75c64 0 113 -19.667 147 -59v205c0 14 -5.66699 27.667 -17 41l99 11v-556c0 -44 1.66699 -79.667 5 -107
c1.33301 -4.66699 6.66602 -15 15.999 -31h-103zM421.002 301c0 42.667 -15.832 77.668 -47.499 105.001s-65.834 41 -102.501 41c-40.667 0 -76.667 -16.833 -108 -50.5s-47 -85.167 -47 -154.5c0 -63.333 15.5 -113.333 46.5 -150s68.5 -55 112.5 -55
c38 0 71.833 13.667 101.5 41s44.5 63.666 44.5 108.999v114z" />
    <glyph glyph-name="e" unicode="e" 
d="M110 270c-1.33301 -18 -2.00098 -33.667 -2.00098 -47c0 -48.667 15.333 -91.167 46 -127.5s75 -54.5 133 -54.5c61.333 0 111.666 16.667 150.999 50l-10 -69c-38 -22.667 -85.667 -34 -143 -34c-78 0 -140.5 23.5 -187.5 70.5s-70.5 109.833 -70.5 188.5
c0 70 20.833 127.833 62.5 173.5s92.834 68.5 153.501 68.5h5c58.667 -0.666992 106.334 -21.5 143.001 -62.5s55.667 -93.167 57 -156.5h-338zM371.999 323c-14 74.667 -54.667 112 -122 112h-3c-30 0 -56.667 -9.83301 -80 -29.5s-38.333 -47.167 -45 -82.5h250z" />
    <glyph glyph-name="f" unicode="f" horiz-adv-x="320" 
d="M170 438l0.00195312 -364c0 -19.333 1.5 -33.833 4.5 -43.5s8.83301 -20.5 17.5 -32.5h-124c10.667 12 16.667 23.333 18 34c2.66699 10.667 4 24.667 4 42v364h-64v47h64v48c0 44.667 14 83 42 115s64.667 48.333 110 49c16 0 31.667 -2 47 -6v-56
c-14.667 6.66699 -27.334 10 -38.001 10c-22.667 0 -41.834 -9.5 -57.501 -28.5s-23.5 -41.833 -23.5 -68.5v-62h123v-48h-123z" />
    <glyph glyph-name="g" unicode="g" horiz-adv-x="530" 
d="M76 -89c49.333 -49.333 106.001 -73.999 170.001 -73.999c55.333 0 94.166 12.833 116.499 38.5s33.5 56.167 33.5 91.5v75c-38 -39.333 -89 -59 -153 -59s-116 25 -156 75s-60 110 -60 180v4c1.33301 72 21.5 133.5 60.5 184.5s93.167 76.833 162.5 77.5
c47.333 0 92 -16.667 134 -50l12 -9v44h107c-8.66699 -13.333 -14.167 -24.833 -16.5 -34.5s-3.5 -28.834 -3.5 -57.501v-388c0 -72.667 -19 -128.667 -57 -168s-91.667 -59 -161 -59c-79.333 0 -146 25 -200 75zM401.001 307.001c0 40 -14.8311 73.1641 -44.498 99.4971
s-64.834 39.5 -105.501 39.5s-74.334 -19.333 -101.001 -58s-40 -86.667 -40 -144v-4c0 -59.333 13.667 -107.666 41 -144.999s64 -56.666 110 -57.999h5c40 0 72.5 14.833 97.5 44.5s37.5 66.834 37.5 111.501v114z" />
    <glyph glyph-name="h" unicode="h" horiz-adv-x="487" 
d="M50 633c0 25.333 -5.66699 42.3311 -17 50.998l97 10v-259c37.333 39.333 85.333 59 144 59c56 0 99.667 -18.333 131 -55s47 -79.334 47 -128.001v-248c0 -16 0.833008 -27.667 2.5 -35s5.16699 -16.666 10.5 -27.999h-104c5.33301 10 9 18.5 11 25.5s3 19.167 3 36.5
v257c0 34.667 -11.167 62.667 -33.5 84s-49.833 32 -82.5 32s-62.167 -11.333 -88.5 -34s-39.5 -56.667 -39.5 -102v-226c0 -18 5.66699 -42.333 17 -73h-117c8.66699 12.667 14 23.334 16 32.001s3 23.334 3 44.001v557z" />
    <glyph glyph-name="i" unicode="i" horiz-adv-x="166" 
d="M38 0c8 12 12 28.665 12 49.998v379c0 16.667 -1.5 28.834 -4.5 36.501s-7.83301 14.834 -14.5 21.501l98 9v-444c0 -22.667 5 -40 15 -52h-106zM86 594.998c-14 0 -25.833 4.83301 -35.5 14.5s-14.5 21.5 -14.5 35.5c0 13.333 4.83301 24.833 14.5 34.5
s21.5 14.5 35.5 14.5c13.333 0 24.833 -4.83301 34.5 -14.5s14.5 -21.167 14.5 -34.5c0 -14 -4.83301 -25.833 -14.5 -35.5s-21.167 -14.5 -34.5 -14.5z" />
    <glyph glyph-name="j" unicode="j" horiz-adv-x="224" 
d="M163 43c0 -46.667 -10.998 -89.002 -32.998 -127.002c-28.667 -47.333 -69.334 -71 -122.001 -71h-12v34c15.333 1.33301 26.333 3.33301 33 6c36 22.667 54 71.334 54 146.001v389c0 16.667 -1.33301 29.334 -4 38.001s-8.33398 17 -17.001 25l101 12v-452z
M116.002 594.998c-14 0 -25.833 4.83301 -35.5 14.5s-14.5 21.5 -14.5 35.5c0 13.333 4.83301 24.833 14.5 34.5s21.5 14.5 35.5 14.5c13.333 0 24.833 -4.83301 34.5 -14.5s14.5 -21.167 14.5 -34.5c0 -14 -4.83301 -25.833 -14.5 -35.5s-21.167 -14.5 -34.5 -14.5z" />
    <glyph glyph-name="k" unicode="k" 
d="M339 -4l-214.001 229.001v-152c0 -28.667 1.5 -46.5 4.5 -53.5s7.83301 -14.5 14.5 -22.5h-113c6 14 9.83301 25.167 11.5 33.5s2.5 22.833 2.5 43.5v501c0 44 -3 74 -9 90c-1.33301 4 -4.66602 9.33301 -9.99902 16l97 13v-399l181 149c15.333 13.333 17 27.333 5 42
h123l-251 -217l182 -194c15.333 -16.667 29.333 -30.334 42 -41.001l43 -38h-109z" />
    <glyph glyph-name="l" unicode="l" horiz-adv-x="170" 
d="M125 84c0 -30.667 6 -60.333 18 -89h-114c7.33301 18 12 32 14 42s3 24.667 3 44v504c0 44.667 -6.66699 78.667 -20 102l100 7z" />
    <glyph glyph-name="m" unicode="m" horiz-adv-x="759" 
d="M716 74c0 -30 5.33203 -54.666 15.999 -73.999h-114c8.66699 13.333 14.334 24 17.001 32s4 24 4 48v260c0 30 -11.333 54.167 -34 72.5s-48 27.5 -76 27.5h-3c-26.667 0 -51.167 -9 -73.5 -27s-33.5 -41.667 -33.5 -71v-268c0 -18.667 1 -32.5 3 -41.5
s7 -19.833 15 -32.5h-113c8.66699 15.333 13.5 27 14.5 35s1.5 21.333 1.5 40v267c0 29.333 -10.333 53.666 -31 72.999s-44.667 29.666 -72 30.999h-2c-30 0 -55.5 -12.167 -76.5 -36.5s-31.5 -53.833 -31.5 -88.5v-257c0 -16 1.66699 -29 5 -39l11 -25h-111
c8.66699 12.667 13 27.334 13 44.001v384c0 14.667 -6.33301 33 -19 55l98 8v-44c32 38 75.667 57 131 57h2c56.667 0 102.667 -21 138 -63l11 9c30 28.667 70.667 44.667 122 48h13c52.667 0 95 -14.833 127 -44.5s48 -69.5 48 -119.5v-260z" />
    <glyph glyph-name="n" unicode="n" horiz-adv-x="490" 
d="M444 69c0 -31.333 6.33301 -55.3291 19 -71.9961h-112c9.33301 13.333 14.333 23.666 15 30.999v274c0 47.333 -11 82.5 -33 105.5s-51.667 34.5 -89 34.5c-40.667 0 -71.667 -12.333 -93 -37s-32 -58.334 -32 -101.001v-231c0 -28 6 -53.333 18 -76h-110
c9.33301 15.333 14 29.666 14 42.999v382c0 15.333 -5 34.666 -15 57.999l92 4l-1 -43c30 34 74.667 52 134 54h11c48 0 90.333 -16.833 127 -50.5s55 -79.167 55 -136.5v-239z" />
    <glyph glyph-name="o" unicode="o" horiz-adv-x="542" 
d="M514 236c-1.33301 -68 -25.665 -125.832 -72.998 -173.499s-104.333 -71.5 -171 -71.5h-3c-66.667 1.33301 -123.334 26.666 -170.001 75.999s-70 108 -70 176s24 126.5 72 175.5s104.667 73.5 170 73.5h5c67.333 -1.33301 124.166 -26.833 170.499 -76.5
s69.5 -107.5 69.5 -173.5v-6zM434.001 235.001l0.000976562 6.00293c0 50 -15.333 94.167 -46 132.5s-69.334 58.833 -116.001 61.5h-5c-44.667 0 -82.334 -19 -113.001 -57c-30.667 -38.667 -46 -84.334 -46 -137.001c0 -0.666992 0.333008 -1.33398 1 -2.00098
c0 -53.333 15.5 -98.833 46.5 -136.5s69.167 -56.5 114.5 -56.5c44.667 0 82.834 18.667 114.501 56s48.167 81.666 49.5 132.999z" />
    <glyph glyph-name="p" unicode="p" horiz-adv-x="540" 
d="M278 43c48 0 84.833 18.5 110.5 55.5s38.5 85.5 38.5 145.5s-13.167 108.833 -39.5 146.5s-63.5 56.5 -111.5 56.5c-43.333 0 -80 -18 -110 -54s-45 -86.333 -45 -151c0 -58 13.167 -105.667 39.5 -143s65.5 -56 117.5 -56zM48 -189l0.000976562 616.001
c0 23.333 -6 41.666 -18 54.999l98 13v-63c41.333 45.333 92.333 68 153 68c71.333 -0.666992 126.666 -25.5 165.999 -74.5s59 -108.833 59 -179.5v-2c-0.666992 -71.333 -20.667 -130.833 -60 -178.5s-95 -72.167 -167 -73.5c-62 0 -114 22.333 -156 67v-248h-75z" />
    <glyph glyph-name="q" unicode="q" horiz-adv-x="537" 
d="M269 43c52 0 91.167 18.667 117.5 56s39.5 85 39.5 143c0 64.667 -15 115 -45 151s-66.667 54 -110 54c-48 0 -85.167 -18.833 -111.5 -56.5s-39.5 -86.5 -39.5 -146.5s12.833 -108.5 38.5 -145.5s62.5 -55.5 110.5 -55.5zM419 432v51h104
c-9.33301 -11.333 -15.666 -22.333 -18.999 -33s-5 -28.667 -5 -54v-585h-75v248c-42 -44.667 -94 -67 -156 -67c-72 1.33301 -127.667 25.833 -167 73.5s-59.333 107.167 -60 178.5v2c0 70.667 19.667 130.5 59 179.5s94.666 73.833 165.999 74.5
c60.667 0 111.667 -22.667 153 -68z" />
    <glyph glyph-name="r" unicode="r" horiz-adv-x="368" 
d="M66 413c0 24 -8.66895 47 -26.002 69l103 13v-63c12 18 28.333 34 49 48s47.334 21 80.001 21s64.334 -9.33301 95.001 -28l-32 -63c-24.667 19.333 -51.667 29 -81 29c-19.333 0 -36 -4 -50 -12c-38.667 -22.667 -58 -64 -58 -124v-214c0 -32.667 8 -62.334 24 -89.001
h-121c8 14.667 12.833 25.334 14.5 32.001s2.5 21 2.5 43v338z" />
    <glyph glyph-name="s" unicode="s" horiz-adv-x="393" 
d="M367 130c0 -47.333 -16.333 -83.165 -49 -107.498s-80.334 -36.5 -143.001 -36.5c-47.333 0 -90 7 -128 21l-14 84c40 -36 86.667 -54 140 -54c80 0 120 30.333 120 91c0 38 -41.5 72.667 -124.5 104s-124.5 77 -124.5 137c0 40 15.833 71.667 47.5 95
s69.834 35 114.501 35c48.667 0 94.334 -8.66699 137.001 -26v-67c-40.667 27.333 -84.334 41 -131.001 41c-22.667 0 -43.5 -6.5 -62.5 -19.5s-28.5 -31.5 -28.5 -55.5c0 -32.667 27 -58.834 81 -78.501s95 -42.334 123 -68.001s42 -57.5 42 -95.5z" />
    <glyph glyph-name="t" unicode="t" horiz-adv-x="302" 
d="M279 425c-14 6 -31.333 9 -52 9h-65v-337c0 -36 19.667 -54 59 -54c15.333 0 35.333 5 60 15l-13 -61c-16.667 -7.33301 -37.334 -11 -62.001 -11c-41.333 0 -72.166 10 -92.499 30s-30.5 51.333 -30.5 94v324h-62v52h62v54c0 19.333 -6.66699 33 -20 41l100 54v-147h116
v-63z" />
    <glyph glyph-name="u" unicode="u" horiz-adv-x="495" 
d="M366 428c0 18.667 -5.66602 35.667 -16.999 51l98 13v-425c0 -22 1.16699 -35.833 3.5 -41.5s8.16602 -14.167 17.499 -25.5h-100v48c-31.333 -38.667 -75 -58 -131 -58s-102 16.333 -138 49s-54 78.334 -54 137.001v248c0 26 -6.33301 44.333 -19 55l97 10v-322
c0 -38.667 11.333 -69.334 34 -92.001s50.334 -34 83.001 -34h3c33.333 0 62.166 11.333 86.499 34s36.5 52 36.5 88v265z" />
    <glyph glyph-name="v" unicode="v" horiz-adv-x="545" 
d="M401 402c6 16.667 9 30 9 40c0 9.33301 -4 23 -12 41h120c-12 -12 -21 -22.667 -27 -32s-12.667 -22.666 -20 -39.999l-195 -451l-213 474c-10 20 -22.333 36.333 -37 49h141c-10.667 -9.33301 -16 -18 -16 -26c-0.666992 -0.666992 -1 -1.33398 -1 -2.00098
c0 -8.66699 2.66699 -21 8 -37l125 -310z" />
    <glyph glyph-name="w" unicode="w" horiz-adv-x="699" 
d="M672 484c-12.667 -15.333 -22.167 -29.168 -28.5 -41.501s-13.5 -30.833 -21.5 -55.5l-141 -439l-134 377l-131 -375l-160 464c-13.333 34.667 -23.333 58 -30 70h92l106 -345l76 226c6 20.667 9 37 9 49v6c-2 26 -13.333 48 -34 66h106l104 -348l84 281c2 12 3 20 3 24
v3c0 12.667 -4.33301 25.334 -13 38.001h113z" />
    <glyph glyph-name="x" unicode="x" horiz-adv-x="555" 
d="M390 -4c1.33301 7.33301 1.99902 13.3359 1.99902 18.0029c0 9.33301 -3.66699 19.666 -11 30.999l-119 161l-96 -143c-11.333 -18 -17 -32.333 -17 -43v-4l3 -20h-126c26 18.667 46 39.667 60 63l139 196l-127 173c-9.33301 13.333 -17.666 23.666 -24.999 30.999
s-18 15.666 -32 24.999h125c0 -11.333 1.33301 -19.833 4 -25.5s7.66699 -13.167 15 -22.5l95 -131l78 121c8 12 12 23.333 12 34v5c0 6 -2.66699 13.667 -8 23h122l-22 -25c-10.667 -12 -17.667 -20.667 -21 -26l-124 -182l159 -217c10 -14 27.333 -28 52 -42h-138z" />
    <glyph glyph-name="y" unicode="y" horiz-adv-x="505" 
d="M478 483c-25.333 -22.667 -42 -46 -50 -70l-220 -568c-4 -13.333 -7 -28.333 -9 -45h-69l98 258l-163 363c-8.66699 22 -21.667 42.667 -39 62h109c-2 -9.33301 -3 -17.333 -3 -24c0 -7.33301 4.66699 -23 14 -47l118 -275l101 284c2.66699 8 4 16.333 4 25v5
c-0.666992 9.33301 -4 20 -10 32h119z" />
    <glyph glyph-name="z" unicode="z" horiz-adv-x="499" 
d="M435 -4l-408.999 0.000976562l286 436h-130c-53.333 0 -87.333 -5 -102 -15c-8.66699 -4.66699 -19.334 -13.334 -32.001 -26.001v92h385l-275 -436h207c22 0 57.667 6 107 18z" />
    <glyph glyph-name="braceleft" unicode="{" horiz-adv-x="291" 
d="M241 743c-13.333 -4 -25.6689 -13.999 -37.002 -29.999s-17 -38.333 -17 -67l-6 -230c0 -28 -6.5 -50.167 -19.5 -66.5s-28.5 -28.166 -46.5 -35.499l-11 -3l13 -6c18 -8.66699 31.833 -19.834 41.5 -33.501s14.5 -28.167 14.5 -43.5v-254
c0 -32.667 7.66699 -58.334 23 -77.001c10 -13.333 21.667 -22 35 -26l30 -9h-44c-44 0 -78.333 13 -103 39c-16 17.333 -24 69 -24 155v183c0 17.333 -6 32.333 -18 45c-5.33301 6 -16.666 13 -33.999 21l-15 7l15 7c20 9.33301 34.333 20 43 32s13.667 26.333 15 43l7 247
c1.33301 33.333 10.333 59.333 27 78c20.667 24 50.334 36 89.001 36h48z" />
    <glyph glyph-name="bar" unicode="|" horiz-adv-x="142" 
d="M111 -141h-82v894h83z" />
    <glyph glyph-name="braceright" unicode="}" horiz-adv-x="293" 
d="M254 303c-17.333 -8 -30.333 -16.832 -39 -26.499s-13 -22.834 -13 -39.501v-184c0 -86 -8 -137.333 -24 -154c-27.333 -26.667 -62 -40 -104 -40h-43l31 10c12 3.33301 24.333 12.833 37 28.5s19 40.167 19 73.5v255c0 14 5.66699 29.333 17 46
c10 13.333 23.333 23.333 40 30l13 7l-11 3c-44 17.333 -66 51.333 -66 102l-6 230c0 28 -5.33301 50 -16 66s-23.667 26.667 -39 32l-27 11h50c38 0 66.833 -11 86.5 -33s29.5 -49 29.5 -81l5 -235l2 -11c2 -19.333 7.16699 -34.5 15.5 -45.5s22.5 -21.167 42.5 -30.5
l15 -7z" />
    <glyph glyph-name="asciitilde" unicode="~" horiz-adv-x="297" 
d="M267 722c0 -22 -5.99902 -39.6699 -17.999 -53.0029s-27.667 -20 -47 -20h-3c-24 0.666992 -44.667 5.33398 -62 14.001c-17.333 6.66699 -28.333 10.334 -33 11.001h-5c-6 0 -9.66699 -3 -11 -9l-1 -16h-58v24c0 20.667 6.83301 37.834 20.5 51.501
s28.834 20.5 45.501 20.5h2c17.333 -0.666992 34.666 -5.5 51.999 -14.5s30.666 -13.5 39.999 -13.5h2c12.667 1.33301 19 5 19 11v19h57v-25z" />
    <glyph glyph-name="uni00A0" unicode="&#xa0;" horiz-adv-x="75" 
 />
    <glyph glyph-name="exclamdown" unicode="&#xa1;" horiz-adv-x="155" 
d="M27 454v96h87v-96h-87zM29 -199l9 527h70l20 -527h-99z" />
    <glyph glyph-name="cent" unicode="&#xa2;" horiz-adv-x="469" 
d="M417 597c-36.667 29.333 -74.667 44 -114 44h-13v-394c4 -0.666992 12.667 -1 26 -1c12.667 0 31 3.66699 55 11s48.333 18.666 73 33.999l-16 -76c-44 -14 -86 -21 -126 -21h-10v-53h-52v58c-59.333 4.66699 -110.333 30.667 -153 78
c-40.667 46.667 -61 101.334 -61 164.001c-0.666992 0 -1 0.333008 -1 1c0 62 17.333 115 52 159c34 44 79.667 72.333 137 85l26 6v55h48v-51c49.333 -2.66699 92.333 -9.66699 129 -21v-78zM240 637c-38 -9.33301 -69.833 -31.332 -95.5 -65.999s-38.5 -76 -38.5 -124
c-0.666992 -0.666992 -1 -1.33398 -1 -2.00098c0 -48 13 -89.333 39 -124c25.333 -36 57.333 -58.667 96 -68v384z" />
    <glyph glyph-name="sterling" unicode="&#xa3;" horiz-adv-x="538" 
d="M514 86c-51.333 -69.333 -109.667 -104.332 -175 -104.999c-30.667 0 -67.667 11 -111 33c-43.333 20.667 -73.666 31.667 -90.999 33h-1c-18 0 -31.667 -12.333 -41 -37l-5 -15h-67c3.33301 36 16.666 63.5 39.999 82.5s46.666 29.5 69.999 31.5l15 24
c15.333 26 23 53.333 23 82c0 28 -3 52 -9 72h-105v56h81l-21 41c-45.333 90 -68 158 -68 204c0 45.333 20.5 87.666 61.5 126.999s91.833 60 152.5 62h8c85.333 0 148 -40 188 -120l-80 -53c-3.33301 26.667 -17.333 53.167 -42 79.5s-49 39.833 -73 40.5h-3
c-33.333 0 -62.666 -12.5 -87.999 -37.5s-38 -51.167 -38 -78.5c0 -31.333 26 -101.333 78 -210l26 -54h120v-58h-105l2 -35v-9c0 -22 -3.33301 -41.333 -10 -58l-36 -77l98 -36c20 -7.33301 37.333 -11 52 -11s27 1 37 3c28.667 5.33301 52 29 70 71z" />
    <glyph glyph-name="yen" unicode="&#xa5;" horiz-adv-x="604" 
d="M249 -4c6 12.667 9 27.667 9 45v218h-165v69h165v48l-18 31h-147v69l105 1l-151 246c-8 10 -16 18 -24 24h127v-8c0 -15.333 5.66699 -32.333 17 -51l143 -245l157 261c7.33301 14 11 25 11 33c0 3.33301 -0.333008 7 -1 11h103l-19 -19c0 -8 -7 -23.333 -21 -46
l-122 -207h67v-69h-121l-21 -31v-48h142v-69h-141v-214c0 -6.66699 1 -15 3 -25l5 -24h-103z" />
    <glyph glyph-name="section" unicode="&#xa7;" horiz-adv-x="488" 
d="M464 301c0 -48.667 -18.9971 -89.6641 -56.9971 -122.997l-19 -19l4 -2c39.333 -29.333 59 -66 59 -110v-4c-2.66699 -53.333 -29.167 -103.833 -79.5 -151.5s-104.5 -72.834 -162.5 -75.501h-13c-50 0 -98 14.333 -144 43l-9 6l13 160h39l-1 -57
c0 -22.667 11.333 -42.834 34 -60.501s42.167 -27.334 58.5 -29.001s31.166 -2.5 44.499 -2.5c37.333 0 67.666 7 90.999 21c36 21.333 54 57 54 107v5c0 28 -15.667 51.333 -47 70c-22.667 14 -72.667 34.333 -150 61l-36 14c-50 18 -84 41 -102 69
c-10 14.667 -16 35.667 -18 63v9c0 40.667 22 82.334 66 125.001l11 11l-10 6c-26.667 22 -41 53.333 -43 94v9c0 52.667 17.333 100 52 142c40.667 49.333 92.667 75 156 77h15c24 0 47 -2.33301 69 -7l72 -25v-8c-2 -9.33301 -4.16699 -31.833 -6.5 -67.5
s-3.5 -58.5 -3.5 -68.5v-13l-40 1l-7 86c-12.667 16 -30.334 28.167 -53.001 36.5s-43.667 12.5 -63 12.5s-37.333 -3.33301 -54 -10c-39.333 -16 -63 -48 -71 -96c-0.666992 -4.66699 -1 -9.33398 -1 -14.001c0 -48.667 46 -86.667 138 -114l31 -11
c47.333 -15.333 78 -26.333 92 -33c60.667 -26 91 -68.333 91 -127zM365.003 185.003c15.333 24.667 22.999 49.333 22.999 74c0 46.667 -26 78.667 -78 96l-175 58l-12 -14c-16 -18.667 -24 -44 -24 -76v-8c0.666992 -27.333 28.334 -53.333 83.001 -78
c10 -4.66699 63.333 -23.667 160 -57l15 -6z" />
    <glyph glyph-name="dieresis" unicode="&#xa8;" horiz-adv-x="364" 
d="M238 649v98h95v-98h-95zM30 649v98h95v-98h-95z" />
    <glyph glyph-name="copyright" unicode="&#xa9;" horiz-adv-x="769" 
d="M114 117c-59.333 70 -89 155.667 -89 257c0 100.667 29.667 186 89 256c66.667 79.333 157 119 271 119s204.333 -39.667 271 -119c58.667 -70 88 -155.333 88 -256c0 -101.333 -29.333 -187 -88 -257c-66.667 -79.333 -157 -119 -271 -119s-204.333 39.667 -271 119z
M386 42c97.333 0 173.5 32.667 228.5 98s82.5 143.333 82.5 234c0 90 -27.5 167.667 -82.5 233s-131.167 98 -228.5 98c-98 0 -174.667 -32.667 -230 -98s-83 -143 -83 -233c0 -90.667 27.667 -168.667 83 -234s132 -98 230 -98zM531 192l-14.998 -8
c-40 -19.333 -78 -29 -114 -29h-4c-64 2.66699 -116 20.667 -156 54c-46.667 39.333 -70 94.333 -70 165c0 54.667 15.667 100.667 47 138c42 50.667 98.333 76 169 76c34.667 0 71 -5.66699 109 -17c19.333 -4.66699 29.666 -7.66699 30.999 -9l10 -3l-12 -91h-27v45
c-0.666992 8 -8.33398 16.333 -23.001 25c-24 14 -54 21 -90 21c-10 0 -18.667 -1 -26 -3c-46 -10 -78.667 -35.333 -98 -76c-13.333 -26.667 -20 -57.667 -20 -93c0 -63.333 18.333 -113.333 55 -150c29.333 -29.333 63.666 -45 102.999 -47h11
c36.667 0 71.334 9 104.001 27l20 10l5 -10z" />
    <glyph glyph-name="ordfeminine" unicode="&#xaa;" horiz-adv-x="278" 
d="M26 436v36h225v-36h-225zM224 547c0 -10.667 3.33398 -23 10.001 -37l-52 -1v15c-12 -12 -33.333 -18 -64 -18h-3c-22 0 -40.667 6.66699 -56 20s-23 30.333 -23 51v5c2 38 24.333 61 67 69l48 8c20 3.33301 30 13.666 30 30.999c0 12.667 -5 22.834 -15 30.501
s-22.333 11.5 -37 11.5c-28.667 0 -53.334 -9 -74.001 -27v38c19.333 12 44.333 18 75 18c62.667 -2.66699 94 -30 94 -82v-132zM183.001 638l-24.001 -6l-44 -9c-22.667 -3.33301 -35 -17.333 -37 -42v-5c0 -12 4.66699 -22.333 14 -31
c8.66699 -8.66699 19.334 -13 32.001 -13c0.666992 0 1.33398 0.333008 2.00098 1c13.333 0 26.166 4.5 38.499 13.5s18.5 21.5 18.5 37.5v54z" />
    <glyph glyph-name="guillemotleft" unicode="&#xab;" horiz-adv-x="532" 
d="M356 294l144 -108v-120l-214 175v108l217 169v-114zM97 294l143 -108v-120l-213 175v108l216 169v-114z" />
    <glyph glyph-name="logicalnot" unicode="&#xac;" horiz-adv-x="781" 
d="M681 -2v261h-652v61h720v-322h-68z" />
    <glyph glyph-name="registered" unicode="&#xae;" horiz-adv-x="769" 
d="M114 117c-59.333 70 -89 155.667 -89 257c0 100.667 29.667 186 89 256c66.667 79.333 157 119 271 119s204.333 -39.667 271 -119c58.667 -70 88 -155.333 88 -256c0 -101.333 -29.333 -187 -88 -257c-66.667 -79.333 -157 -119 -271 -119s-204.333 39.667 -271 119z
M386 42c97.333 0 173.5 32.667 228.5 98s82.5 143.333 82.5 234c0 90 -27.5 167.667 -82.5 233s-131.167 98 -228.5 98c-98 0 -174.667 -32.667 -230 -98s-83 -143 -83 -233c0 -90.667 27.667 -168.667 83 -234s132 -98 230 -98zM382 554
c-18 0 -34.998 -2.66309 -50.998 -7.99609v-326c0 -10.667 1.66699 -17.834 5 -21.501s13 -6.83398 29 -9.50098l19 -1v-21l-43 2c-16 1.33301 -29.333 2 -40 2s-24.334 -0.666992 -41.001 -2l-44 -2v22l20 1c14 2.66699 22 4.66699 24 6c5.33301 7.33301 8 15.333 8 24v306
c0 11.333 -2 19.666 -6 24.999s-15.333 8 -34 8h-12v22l42 -1c18 -1.33301 44 -2 78 -2c33.333 0 55.666 1 66.999 3h21c53.333 0 87.333 -20.333 102 -61c5.33301 -13.333 8 -26 8 -38c0 -32 -18 -60.333 -54 -85c-10 -6.66699 -28.333 -14.334 -55 -23.001l124 -173
l12 -10c6.66699 -2.66699 10.667 -4 12 -4h8v-21h-10c-21.333 1.33301 -32.333 2.33301 -33 3l-30 -3h-11l-158 213l5 12l23 -1h6c22.667 0 44 8 64 24s30 36 30 60v4c-4 50.667 -32.333 76 -85 76z" />
    <glyph glyph-name="degree" unicode="&#xb0;" horiz-adv-x="200" 
d="M170 674c0 -17.333 -5.99902 -33.168 -17.999 -47.501s-29 -21.5 -51 -21.5c-22.667 0 -40.334 7.16699 -53.001 21.5s-19 30.833 -19 49.5s6 35.334 18 50.001s29.333 22 52 22s40.167 -7.16699 52.5 -21.5s18.5 -30.833 18.5 -49.5v-3zM65.001 676.998
l-0.000976562 -1.99902c0 -24.667 11.333 -37.334 34 -38.001c22.667 0 34.334 13.333 35.001 40c0 26.667 -11.333 40 -34 40c-23.333 0 -35 -13.333 -35 -40z" />
    <glyph glyph-name="plusminus" unicode="&#xb1;" horiz-adv-x="464" 
d="M262 305v-183h-54v183h-173v56h173v182h56v-183h172v-55h-174zM27 -4v44h405v-44h-405z" />
    <glyph glyph-name="acute" unicode="&#xb4;" horiz-adv-x="219" 
d="M89 642h-62l67 107h97z" />
    <glyph glyph-name="mu" unicode="&#xb5;" horiz-adv-x="623" 
d="M591 75c-5.33301 -28.667 -21.499 -52.166 -48.499 -70.499s-50.833 -27.5 -71.5 -27.5c-28.667 0 -54 12.667 -76 38c-18.667 21.333 -28.667 42.333 -30 63l-17 -18c-49.333 -52.667 -93.333 -79 -132 -79h-3c-51.333 0 -89.333 17.333 -114 52v-25
c0 -23.333 6 -52 18 -86c12.667 -34 19 -63.333 19 -88c0 -22 -5 -40 -15 -54c-9.33301 -14.667 -23 -22 -41 -22h-2c-16.667 0.666992 -29.667 7.5 -39 20.5s-14.333 27.833 -15 44.5v5c0 24.667 4.83301 50.5 14.5 77.5s15.167 48.167 16.5 63.5l2 30v547h98v-377
c0 -30.667 8.66699 -57.334 26 -80.001c16 -22.667 36.333 -34 61 -34h2c25.333 0 52.166 11.667 80.499 35s42.833 49.333 43.5 78v378h95v-426c0 -24 5.16699 -44.5 15.5 -61.5s21.5 -25.5 33.5 -25.5c23.333 0 40 15.667 50 47l6 30h30z" />
    <glyph glyph-name="paragraph" unicode="&#xb6;" horiz-adv-x="612" 
d="M572 720c-21.333 0 -40.499 -3.33203 -57.499 -9.99902s-25.5 -25.334 -25.5 -56.001v-717c0 -12.667 5.16699 -22 15.5 -28s28.166 -10 53.499 -12l24 -1v-33l-89 2c-47.333 1.33301 -85.333 2 -114 2c-29.333 0 -68.666 -0.666992 -117.999 -2l-94 -2v35l30 2
c27.333 0 45.166 4.83301 53.499 14.5s12.5 23.5 12.5 41.5l1 427l-5 1c-38.667 0 -85.667 15.333 -141 46c-36 20.667 -62.333 52 -79 94c-10.667 24.667 -16 47.667 -16 69s3.33301 41.333 10 60c25.333 70 86 105 182 105h13l81 -4c45.333 -2 93.333 -3 144 -3
s89.667 1.33301 117 4h18v-35h-16zM265.001 711.001l-11 1h-6c-16 0 -33.667 -7.33301 -53 -22c-30 -22.667 -46.667 -58.334 -50 -107.001v-9c0 -33.333 10.833 -64.166 32.5 -92.499s50.167 -45.5 85.5 -51.5l2 -1v282zM406.001 710.001h-56l2 -800h54v800z" />
    <glyph glyph-name="periodcentered" unicode="&#xb7;" horiz-adv-x="152" 
d="M30 321v100h91v-100h-91z" />
    <glyph glyph-name="ordmasculine" unicode="&#xba;" horiz-adv-x="304" 
d="M275 614c0 -33.333 -11.999 -62.167 -35.999 -86.5s-52.667 -36.5 -86 -36.5h-3c-34.667 0 -63.834 12.5 -87.501 37.5s-35.5 54.833 -35.5 89.5c0 34 12 63.333 36 88s53 37 87 37h3c34 -0.666992 62.833 -13.667 86.5 -39s35.5 -54.333 35.5 -87v-3zM28.001 438.999v36
h248v-36h-248zM230.001 612.999v3.00195c0 25.333 -7.5 47.5 -22.5 66.5s-33.5 28.833 -55.5 29.5h-2c-22 0 -40.667 -9.33301 -56 -28c-15.333 -18 -23 -40 -23 -66c0 -0.666992 0.333008 -1.33398 1 -2.00098c0 -26.667 7.66699 -49.334 23 -68.001s34 -28 56 -28
c21.333 0 39.333 9 54 27c16 18 24.333 40 25 66z" />
    <glyph glyph-name="guillemotright" unicode="&#xbb;" horiz-adv-x="532" 
d="M290 66v120l144 108l-147 110v114l217 -169v-108zM31 66v120l143 108l-147 110v114l217 -169v-108z" />
    <glyph glyph-name="questiondown" unicode="&#xbf;" horiz-adv-x="384" 
d="M184 459v93h93v-93h-93zM360 -193c-30 -14 -73 -21.002 -129 -21.002h-10c-56 0 -102.5 16 -139.5 48s-56.167 74.667 -57.5 128v2c0 53.333 21.667 101.666 65 144.999l80 81c10.667 10.667 18.334 20.834 23.001 30.501s7 21.834 7 36.501v77h79v-73
c0 -21.333 -4 -41.666 -12 -60.999c-6.66699 -13.333 -21.334 -31.333 -44.001 -54l-74 -70c-30 -28.667 -45 -63 -45 -103c0 -40.667 14.333 -72.167 43 -94.5s60.667 -33.5 96 -33.5h6c46 2 83.333 12.333 112 31v-69z" />
    <glyph glyph-name="Agrave" unicode="&#xc0;" horiz-adv-x="785" 
d="M621 -4c4 11.333 5.99902 23.002 5.99902 35.002v6c-0.666992 3.33301 -4 13.333 -10 30l-91 216h-288l-94 -240c-4.66699 -10.667 -7 -19.334 -7 -26.001c0 -7.33301 1.33301 -14.333 4 -21h-115c14 15.333 22.667 24.666 26 27.999
c14.667 21.333 25.334 40.666 32.001 57.999l246 606c3.33301 6 5 15.333 5 28s-1 23.667 -3 33h95l257 -616c17.333 -41.333 33 -73.666 47 -96.999l27 -40h-137zM378.999 639.002l-119 -300h243zM391.999 795.002l-102 107h98l66 -107h-62z" />
    <glyph glyph-name="Aacute" unicode="&#xc1;" horiz-adv-x="784" 
d="M620 -4c4 11.333 6.00098 22 6.00098 32v9c-0.666992 1.33301 -4 11.333 -10 30l-90 216h-289l-93 -240c-4.66699 -10.667 -7 -19.334 -7 -26.001s1.33301 -13.667 4 -21h-115c13.333 14 24.166 26.833 32.499 38.5s16.5 27.5 24.5 47.5l247 606c2.66699 6 4 15.333 4 28
v7c0 7.33301 -0.666992 16 -2 26h95l256 -616c17.333 -41.333 33 -73.666 47 -96.999l27 -40h-137zM379.001 639l-119 -300h243zM362.001 790h-62l66 107h98z" />
    <glyph glyph-name="Acircumflex" unicode="&#xc2;" horiz-adv-x="784" 
d="M620 -10c4 11.333 6 22 6 32v9c-0.666992 6.66699 -4 16.667 -10 30l-90 216h-288l-94 -240c-4.66699 -11.333 -7 -20 -7 -26c0 -6.66699 1.33301 -13.667 4 -21h-115c14 15.333 22.667 24.666 26 27.999c12.667 18.667 23 38 31 58l247 606c2.66699 6 4 15.333 4 28v7
c0 7.33301 -0.666992 16 -2 26h95l256 -616c17.333 -41.333 33 -73.666 47 -96.999l27 -40h-137zM379 633l-119 -300h243zM455 791l-78 59l-72 -59h-61l69 105h126l72 -105h-56z" />
    <glyph glyph-name="Atilde" unicode="&#xc3;" horiz-adv-x="785" 
d="M621 -9c4 11.333 6 21.998 6 31.998v9c-0.666992 3.33301 -4 13.333 -10 30l-91 216h-288l-94 -240l-6 -20c-0.666992 -3.33301 -1 -7 -1 -11c0 -4.66699 1.33301 -10 4 -16h-115c26 24.667 45.333 53.334 58 86.001l246 606c3.33301 6 5 15.333 5 28v6
c0 7.33301 -1 16.333 -3 27h95l257 -616c17.333 -41.333 33 -73.666 47 -96.999l27 -40h-137zM379 633.998l-119 -300h243zM505 862.998c0 -22 -5.99902 -39.667 -17.999 -53s-27.333 -20 -46 -20h-3c-24.667 0.666992 -45.667 5 -63 13s-28.333 12 -33 12h-5
c-6 0 -9.66699 -3 -11 -9l-1 -16h-58v25c0 20.667 6.66699 37.667 20 51s28.666 20 45.999 20h2c18 -0.666992 35.5 -5.5 52.5 -14.5s30.167 -13.5 39.5 -13.5h2c12 1.33301 18 5 18 11l1 20h57v-26z" />
    <glyph glyph-name="Adieresis" unicode="&#xc4;" horiz-adv-x="785" 
d="M621 -4c4 11.333 6 21.998 6 31.998v9c-0.666992 3.33301 -4 13.333 -10 30l-91 216h-288l-97 -250l-3 -10v-5c0 -6 0.666992 -13.333 2 -22h-114c26 24.667 45.333 53.334 58 86.001l247 606c2.66699 6 4 15.333 4 28v6c0 7.33301 -1 16.333 -3 27h95l257 -616
c17.333 -41.333 33 -73.666 47 -96.999l27 -40h-137zM379 638.998l-119 -300h243zM455 793.998v99h94v-99h-94zM247 793.998v99h94v-99h-94z" />
    <glyph glyph-name="Aring" unicode="&#xc5;" horiz-adv-x="785" 
d="M621 -4c4 11.333 6 21.998 6 31.998v9c-0.666992 3.33301 -4 13.333 -10 30l-91 216h-288l-97 -250l-3 -10v-5c0 -6 0.666992 -13.333 2 -22h-114c26 24.667 45.333 53.334 58 86.001l247 606c2.66699 6 4 15.333 4 28v6c0 7.33301 -1 16.333 -3 27h95l257 -616
c17.333 -41.333 33 -73.666 47 -96.999l27 -40h-137zM379 638.998l-119 -300h243zM393 790.998c-22.667 0 -40.167 7.16699 -52.5 21.5s-18.5 30.833 -18.5 49.5s6 35.167 18 49.5s29.333 21.5 52 21.5s41 -7.66699 55 -23c10.667 -13.333 16 -29.333 16 -48v-3
c0 -17.333 -6 -33 -18 -47s-29.333 -21 -52 -21zM358 862.998v-2c0 -25.333 11.333 -38 34 -38s34.334 13.333 35.001 40v1c0 25.333 -11.333 38 -34 38s-34.334 -13 -35.001 -39z" />
    <glyph glyph-name="AE" unicode="&#xc6;" horiz-adv-x="1011" 
d="M954 -4l-417.001 0.000976562c10.667 14.667 16 26 16 34c2.66699 15.333 4 29.333 4 42v203h-243l-158 -237c-4.66699 -8 -7 -15 -7 -21c0 -6.66699 2.66699 -14 8 -22h-131c19.333 13.333 34.333 27.666 45 42.999l438 641c6 8.66699 9 19.667 9 33s-7.66699 25 -23 35
h408l2 -98c-13.333 16 -24.666 26.333 -33.999 31c-11.333 4 -22.333 6 -33 6h-195v-239h261v-81c-32 14 -58.667 21 -80 21h-179v-322h234c32 0 67 12 105 36zM554.999 631.001l-199 -291h199v291z" />
    <glyph glyph-name="Ccedilla" unicode="&#xc7;" horiz-adv-x="685" 
d="M616 13c-40 -14.667 -98.6631 -23.665 -175.996 -26.998c-16.667 0 -29.667 0.333008 -39 1l-30 -48h28c24 0 38 -15.333 42 -46v-6c0 -14 -6.83301 -26.833 -20.5 -38.5s-28.834 -17.5 -45.501 -17.5s-31.334 3.33301 -44.001 10s-19 15 -19 25v2c0 14 6.33301 21 19 21
c16 0 24.333 -5.33301 25 -16l2 -18c2 -2.66699 6.66699 -4 14 -4s13.833 3.5 19.5 10.5s8.5 14.833 8.5 23.5v3c-0.666992 19.333 -8.33398 29.666 -23.001 30.999c-2.66699 0.666992 -6 1 -10 1c-4.66699 0 -11.334 -3 -20.001 -9l-12 4l32 74
c-94 6.66699 -174 46.667 -240 120s-99.333 160.666 -100 261.999v3c0 109.333 38.167 200.833 114.5 274.5s171.5 110.5 285.5 110.5h6c64.667 -0.666992 122 -11.334 172 -32.001v-81c-54 32.667 -110.333 50 -169 52h-3c-91.333 0 -166.833 -31.167 -226.5 -93.5
s-89.834 -140.166 -90.501 -233.499v-6c0 -93.333 30.333 -169.166 91 -227.499s135.334 -87.5 224.001 -87.5h9c81.333 1.33301 154 25.666 218 72.999z" />
    <glyph glyph-name="Egrave" unicode="&#xc8;" horiz-adv-x="507" 
d="M47 691c0 22.667 -7 41.001 -21 55.001h374v-88c-14 15.333 -24.5 24.166 -31.5 26.499s-21.833 3.5 -44.5 3.5h-188v-242h264v-78c-28.667 12.667 -54 19 -76 19h-185v-330h222c28 0 50.333 2.66699 67 8s34 14.333 52 27l-29 -95h-419c6 10 10 18.667 12 26
s3 21.333 3 42v626zM246 790.001l-102 107h98l66 -107h-62z" />
    <glyph glyph-name="Eacute" unicode="&#xc9;" horiz-adv-x="507" 
d="M46 691c0 23.333 -6.66895 41.667 -20.002 55h374v-86c-15.333 14 -26.166 22.167 -32.499 24.5s-21.166 3.5 -44.499 3.5h-188v-242h265v-78c-30 12.667 -55.667 19 -77 19h-184v-330h222c28 0 50.333 2.66699 67 8s34 14.333 52 27l-29 -95h-419
c6 10 9.83301 18.167 11.5 24.5s2.5 20.833 2.5 43.5v626zM218.998 794.001h-62l67 107h97z" />
    <glyph glyph-name="Ecircumflex" unicode="&#xca;" horiz-adv-x="507" 
d="M47 691c0 22.667 -7 41.001 -21 55.001h374v-88c-14 15.333 -24.5 24.166 -31.5 26.499s-21.833 3.5 -44.5 3.5h-188v-242h264v-78c-28.667 12.667 -54 19 -76 19h-185v-330h222c28 0 50.333 2.66699 67 8s34 14.333 52 27l-29 -95h-419c6 10 10 18.667 12 26
s3 21.333 3 42v626zM317 791.001l-78 59l-72 -59h-62l69 105h127l72 -105h-56z" />
    <glyph glyph-name="Edieresis" unicode="&#xcb;" horiz-adv-x="507" 
d="M47 691c0 22.667 -7 41.001 -21 55.001h374v-88c-14 15.333 -24.5 24.166 -31.5 26.499s-21.833 3.5 -44.5 3.5h-188v-242h264v-78c-28.667 12.667 -54 19 -76 19h-185v-330h222c28 0 50.333 2.66699 67 8s34 14.333 52 27l-29 -95h-419c6 10 10 18.667 12 26
s3 21.333 3 42v626zM277 791.001v98h94v-98h-94zM69 791.001v98h94v-98h-94z" />
    <glyph glyph-name="Igrave" unicode="&#xcc;" horiz-adv-x="217" 
d="M64 671c0 27.333 -7.33398 52.332 -22.001 74.999h129c-12.667 -27.333 -19 -51.666 -19 -72.999v-549c0 -48 1 -80.333 3 -97c0.666992 -4 5.33398 -14 14.001 -30h-123c12 18.667 18 40.667 18 66v608zM127.999 789.999l-102 107h98l66 -107h-62z" />
    <glyph glyph-name="Iacute" unicode="&#xcd;" horiz-adv-x="217" 
d="M63 671c0 27.333 -7.33398 52.332 -22.001 74.999h129c-12.667 -27.333 -19 -51.666 -19 -72.999v-549c0 -48 1 -80.333 3 -97c0.666992 -4 5.33398 -14 14.001 -30h-123c12 18.667 18 40.667 18 66v608zM87.999 789.999h-62l67 107h97z" />
    <glyph glyph-name="Icircumflex" unicode="&#xce;" horiz-adv-x="322" 
d="M121 671c0 27.333 -7.33398 52.332 -22.001 74.999h129c-12.667 -27.333 -19 -51.666 -19 -72.999v-549c0 -48 1 -80.333 3 -97c0.666992 -4 5.33398 -14 14.001 -30h-123c12 18.667 18 40.667 18 66v608zM237.999 790.999l-78 59l-72 -59h-62l69 105h126l74 -105h-57z
" />
    <glyph glyph-name="Idieresis" unicode="&#xcf;" horiz-adv-x="356" 
d="M142 671c0 26.667 -7.33301 51.666 -22 74.999h129c-12.667 -27.333 -19 -51.666 -19 -72.999v-549c0 -48 1 -80.333 3 -97l14 -30h-123c12 19.333 18 41.333 18 66v608zM234 790.999v98h95v-98h-95zM26 790.999v98h95v-98h-95z" />
    <glyph glyph-name="Ntilde" unicode="&#xd1;" horiz-adv-x="736" 
d="M631 622c0 60 -4.33301 102 -13 126h91c-4.66699 -21.333 -7.5 -35.166 -8.5 -41.499s-1.5 -17.5 -1.5 -33.5l1 -711l-574 667v-543c0 -32 5.66699 -61.667 17 -89h-103c6.66699 10 11.167 19.167 13.5 27.5s3.5 22.166 3.5 41.499v624c0 24.667 -10.333 43.667 -31 57
h116l489 -587v462zM492 865c0 -22 -5.99805 -39.6699 -17.998 -53.0029s-27.667 -20 -47 -20h-3c-24 0.666992 -45 5.33398 -63 14.001c-16.667 6.66699 -27.334 10.334 -32.001 11.001h-5c-6 0 -9.33301 -3 -10 -9l-2 -16h-58v24c0 20.667 6.83301 37.834 20.5 51.501
s28.834 20.5 45.501 20.5h2c17.333 -0.666992 34.666 -5.5 51.999 -14.5s30.666 -13.5 39.999 -13.5h2c12.667 1.33301 19 5 19 11v19h57v-25z" />
    <glyph glyph-name="Ograve" unicode="&#xd2;" horiz-adv-x="789" 
d="M761 382l0.000976562 -9.00293c0 -106.667 -35.667 -196.167 -107 -268.5s-157 -108.5 -257 -108.5h-11c-100 3.33301 -184.833 42.333 -254.5 117s-104.5 164.334 -104.5 269.001s36.167 194.334 108.5 269.001s158.166 112 257.499 112h10
c102 -4 186.667 -42.667 254 -116s102 -161.666 104 -264.999zM674.001 381.997c-1.33301 86.667 -28.001 160.669 -80.001 222.002s-117.667 92.666 -197 93.999h-3c-79.333 0 -144.833 -30.5 -196.5 -91.5s-78.167 -135.167 -79.5 -222.5v-7
c0 -82.667 25.333 -155.334 76 -218.001s115.334 -95 194.001 -97h7c76 0 141.5 31.5 196.5 94.5s82.5 138.167 82.5 225.5zM409 789.999l-102 107h99l65 -107h-62z" />
    <glyph glyph-name="Oacute" unicode="&#xd3;" horiz-adv-x="789" 
d="M761 382l0.000976562 -9.00293c0 -106.667 -35.667 -196.167 -107 -268.5s-157 -108.5 -257 -108.5h-11c-100 3.33301 -184.833 42.333 -254.5 117s-104.5 164.334 -104.5 269.001s36.167 194.334 108.5 269.001s158.166 112 257.499 112h10
c102 -4 186.667 -42.667 254 -116s102 -161.666 104 -264.999zM674.001 381.997c-1.33301 86.667 -28.001 160.669 -80.001 222.002s-117.667 92.666 -197 93.999h-3c-79.333 0 -144.833 -30.5 -196.5 -91.5s-78.167 -135.167 -79.5 -222.5v-7
c0 -82.667 25.333 -155.334 76 -218.001s115.334 -95 194.001 -97h7c76 0 141.5 31.5 196.5 94.5s82.5 138.167 82.5 225.5zM390 789.999h-62l67 107h97z" />
    <glyph glyph-name="Ocircumflex" unicode="&#xd4;" horiz-adv-x="789" 
d="M761 382l0.000976562 -9.00293c0 -106.667 -35.667 -196.167 -107 -268.5s-157 -108.5 -257 -108.5h-11c-100 3.33301 -184.833 42.333 -254.5 117s-104.5 164.334 -104.5 269.001s36.167 194.334 108.5 269.001s158.166 112 257.499 112h10
c102 -4 186.667 -42.667 254 -116s102 -161.666 104 -264.999zM674.001 381.997c-1.33301 86.667 -28.001 160.669 -80.001 222.002s-117.667 92.666 -197 93.999h-3c-79.333 0 -144.833 -30.5 -196.5 -91.5s-78.167 -135.167 -79.5 -222.5v-7
c0 -82.667 25.333 -155.334 76 -218.001s115.334 -95 194.001 -97h7c76 0 141.5 31.5 196.5 94.5s82.5 138.167 82.5 225.5zM482 790.999l-78 59l-72 -59h-62l70 105h125l74 -105h-57z" />
    <glyph glyph-name="Otilde" unicode="&#xd5;" horiz-adv-x="789" 
d="M761 376v-9.00195c0 -106 -35.667 -195.167 -107 -267.5s-156.666 -108.5 -255.999 -108.5h-11c-100.667 3.33301 -185.834 42.333 -255.501 117s-104.5 164.334 -104.5 269.001s36 194.167 108 268.5s157 111.5 255 111.5h13c102 -3.33301 186.667 -41.666 254 -114.999
s102 -162 104 -266zM674 376.998c-1.33301 86.667 -28 160.668 -80 222.001s-117.333 92.666 -196 93.999h-3c-79.333 0 -145 -30.5 -197 -91.5s-78.667 -135.167 -80 -222.5v-7c0 -83.333 25 -155.333 75 -216c51.333 -64 116.333 -97 195 -99h7
c76 0 141.5 31.333 196.5 94s82.5 137 82.5 223v3zM522 862.999c0 -22 -6.16504 -39.667 -18.498 -53s-27.833 -20 -46.5 -20h-3c-24.667 0.666992 -45.667 5 -63 13s-28.333 12 -33 12h-5c-6 0 -9.66699 -3 -11 -9l-2 -16h-56v25c0 20.667 6.66699 37.667 20 51
s28.333 20 45 20h2c17.333 -0.666992 34.666 -5.5 51.999 -14.5s30.666 -13.5 39.999 -13.5h2c12 1.33301 18 5 18 11l1 20h58v-26z" />
    <glyph glyph-name="Odieresis" unicode="&#xd6;" horiz-adv-x="790" 
d="M762 376v-9.00195c0 -106 -35.667 -195.167 -107 -267.5s-157 -108.5 -257 -108.5h-11c-100 3.33301 -185 42.333 -255 117s-105 164.334 -105 269.001s36 194.167 108 268.5s157 111.5 255 111.5h13c102.667 -3.33301 187.5 -41.666 254.5 -114.999
s101.833 -162 104.5 -266zM675 376.998c-1.33301 86.667 -28.001 160.669 -80.001 222.002s-117.667 92.666 -197 93.999h-3c-79.333 0 -145 -30.5 -197 -91.5s-78.333 -135.167 -79 -222.5v-7c0 -82.667 25.333 -155.334 76 -218.001s115.334 -95 194.001 -97h7
c76 0 141.5 31.5 196.5 94.5s82.5 138.167 82.5 225.5zM470.999 791v98h93v-98h-93zM261.999 791v98h94v-98h-94z" />
    <glyph glyph-name="Oslash" unicode="&#xd8;" horiz-adv-x="789" 
d="M761 382v-9.00098c0 -106.667 -35.5 -196.167 -106.5 -268.5s-155.167 -108.5 -252.5 -108.5h-16c-84.667 6.66699 -154.667 32.334 -210 77.001l-2 2l-60 -82l-35 28l60 85c-74.667 71.333 -112 162.666 -112 273.999v3c0 104.667 36 194.167 108 268.5
s156 111.5 252 111.5h17c66.667 -4 124.334 -21.333 173.001 -52l30 40l39 -34l-25 -34c10 -4 32.333 -29 67 -75c47.333 -65.333 71.666 -140.666 72.999 -225.999zM575 622.999l-358 -489l9 -9c43.333 -40 97 -61.333 161 -64h9c74 0 138.5 31.5 193.5 94.5
s83.167 138.5 84.5 226.5c0 98.667 -33 179 -99 241zM538 652.999c-43.333 28 -90 43 -140 45h-7c-76.667 0 -140.5 -30.333 -191.5 -91s-77.833 -135 -80.5 -223v-14c0 -74 22.333 -141 67 -201z" />
    <glyph glyph-name="Ugrave" unicode="&#xd9;" horiz-adv-x="630" 
d="M505 674c0 30 -4.33203 54.3311 -12.999 72.998h111c-6 -18 -9 -41.667 -9 -71v-437c0 -71.333 -25.667 -131.166 -77 -179.499s-115 -73.166 -191 -74.499h-7c-78.667 0 -145.334 24.333 -200.001 73s-82 110.334 -82 185.001v429c0 29.333 -3.66699 54.333 -11 75h109
c-8 -18 -12 -40.667 -12 -68v-427c0 -56.667 20 -103.834 60 -141.501s85 -56.5 135 -56.5h8c51.333 1.33301 94 20.333 128 57s51 81.667 51 135v428zM331.001 789.998l-102 107h99l65 -107h-62z" />
    <glyph glyph-name="Uacute" unicode="&#xda;" horiz-adv-x="630" 
d="M505 674c0 30 -4.33203 54.3311 -12.999 72.998h111c-6 -18 -9 -41.667 -9 -71v-437c0 -71.333 -25.667 -131.166 -77 -179.499s-115 -73.166 -191 -74.499h-7c-78.667 0 -145.334 24.333 -200.001 73s-82 110.334 -82 185.001v429c0 29.333 -3.66699 54.333 -11 75h109
c-8 -18 -12 -40.667 -12 -68v-427c0 -56.667 20 -103.834 60 -141.501s85 -56.5 135 -56.5h8c51.333 1.33301 94 20.333 128 57s51 81.667 51 135v428zM292.001 789.998h-62l67 107h97z" />
    <glyph glyph-name="Ucircumflex" unicode="&#xdb;" horiz-adv-x="630" 
d="M505 674c0 30 -4.33203 54.3311 -12.999 72.998h111c-6 -18 -9 -41.667 -9 -71v-437c0 -71.333 -25.667 -131.166 -77 -179.499s-115 -73.166 -191 -74.499h-7c-78.667 0 -145.334 24.333 -200.001 73s-82 110.334 -82 185.001v429c0 29.333 -3.66699 54.333 -11 75h109
c-8 -18 -12 -40.667 -12 -68v-427c0 -56.667 20 -103.834 60 -141.501s85 -56.5 135 -56.5h8c51.333 1.33301 94 20.333 128 57s51 81.667 51 135v428zM397.001 790.998l-78 59l-72 -59h-62l69 105h127l72 -105h-56z" />
    <glyph glyph-name="Udieresis" unicode="&#xdc;" horiz-adv-x="631" 
d="M380 791v98h94v-98h-94zM171 791v98h95v-98h-95zM506 677c0 28 -4.33203 52.332 -12.999 72.999h111c-5.33301 -18 -8.33301 -30.667 -9 -38s-1 -18.333 -1 -33v-437c0 -72 -25.667 -132 -77 -180s-115 -72.667 -191 -74h-7c-78.667 0 -145.334 24 -200.001 72
s-82 109.667 -82 185v429c0 30.667 -3.66699 56 -11 76h110c-5.33301 -10 -8.66602 -19.167 -9.99902 -27.5s-2 -22.166 -2 -41.499v-426c0 -56.667 20 -104 60 -142s85.667 -57 137 -57h5c51.333 2 94.166 21.167 128.499 57.5s51.5 81.5 51.5 135.5v428z" />
    <glyph glyph-name="germandbls" unicode="&#xdf;" horiz-adv-x="549" 
d="M521 222c-0.666992 -62.667 -21 -116.662 -61 -161.995c-45.333 -50.667 -102.666 -76 -171.999 -76c-40.667 0 -79.334 11.667 -116.001 35v94c36 -38.667 77.333 -58 124 -58h9c37.333 2 68.5 20.167 93.5 54.5s37.5 76.166 37.5 125.499s-16.667 91.666 -50 126.999
c-39.333 42.667 -87.666 64 -144.999 64c-22 0 -45.667 -4.33301 -71 -13v84c19.333 -8 36 -12 50 -12c46.667 0 81 11.333 103 34c16.667 17.333 26 39.666 28 66.999v5c0 28.667 -11.167 52.834 -33.5 72.501s-48.5 30.167 -78.5 31.5h-3c-28 0 -52 -11 -72 -33
s-30 -49.333 -30 -82v-485c0 -27.333 2.33301 -47.5 7 -60.5s10.667 -25.5 18 -37.5h-133c8.66699 13.333 14.5 24 17.5 32s4.5 25 4.5 51v501c0 49.333 18.5 90.666 55.5 123.999s80.833 50.666 131.5 51.999h4c49.333 0 93.166 -14.5 131.499 -43.5
s57.833 -67.833 58.5 -116.5v-3c0 -32.667 -8.5 -60.167 -25.5 -82.5s-34.167 -35.833 -51.5 -40.5l-25 -7l22 -5c53.333 -12.667 95.333 -40.834 126 -84.501s46 -93.167 46 -148.5v-4z" />
    <glyph glyph-name="agrave" unicode="&#xe0;" horiz-adv-x="437" 
d="M392 77c0 -24.667 6.00098 -49.001 18.001 -73.001l-92 -2v37c-28 -27.333 -71.667 -41.666 -131 -42.999h-3c-44.667 0 -82 12.667 -112 38c-30.667 27.333 -46 62 -46 104v8c3.33301 75.333 46.333 120 129 134l96 17c43.333 7.33301 65 29 65 65
c0 24 -10.333 44 -31 60s-46.667 24 -78 24c-60 0 -107 -15.333 -141 -46v66c34 22 78 33 132 33h10c65.333 -2 112.666 -17 141.999 -45c28 -25.333 42 -64 42 -116v-261zM319.001 260.999l-53 -14l-88 -17c-48.667 -9.33301 -75 -38 -79 -86v-7
c0 -26 9.5 -47.833 28.5 -65.5s41.167 -26.5 66.5 -26.5h3c31.333 0.666992 59.5 10.5 84.5 29.5s37.5 44.167 37.5 75.5v111zM231.001 545.999l-103 107h99l66 -107h-62z" />
    <glyph glyph-name="aacute" unicode="&#xe1;" horiz-adv-x="437" 
d="M392 71c0 -24.667 6.00195 -49.002 18.002 -73.002l-93 -2v37c-28 -27.333 -71.667 -41.666 -131 -42.999h-3c-44.667 0 -82 13.167 -112 39.5s-45 60.5 -45 102.5v8c1.33301 41.333 12.5 72.333 33.5 93s52.833 34.334 95.5 41.001l96 17c43.333 7.33301 65 29 65 65
c0 24 -10.333 44 -31 60s-46.667 24 -78 24c-60 0 -107 -15.333 -141 -46v66c35.333 22.667 82.666 34 141.999 34c65.333 -2.66699 112.666 -18 141.999 -46c28 -25.333 42 -64 42 -116v-261zM319.002 254.998l-53 -14l-89 -17c-49.333 -9.33301 -75.333 -38 -78 -86v-7
c0 -26 9.33301 -47.833 28 -65.5s41 -26.5 67 -26.5h3c31.333 0.666992 59.5 10.5 84.5 29.5s37.5 44.167 37.5 75.5v111zM210.002 549.998h-62l65 107h99z" />
    <glyph glyph-name="acircumflex" unicode="&#xe2;" horiz-adv-x="437" 
d="M392 65c0 -24.667 6.00293 -49.001 18.0029 -73.001l-92 -2v37c-28.667 -27.333 -72.334 -41.666 -131.001 -42.999h-3c-44.667 0 -82 12.667 -112 38c-30.667 27.333 -46 62 -46 104v8c3.33301 75.333 46.333 120 129 134l96 17c43.333 7.33301 65 29 65 65
c0 24 -10.333 44.167 -31 60.5s-46.667 24.5 -78 24.5c-59.333 0 -106.333 -15.667 -141 -47v66c35.333 22.667 82.666 34 141.999 34c65.333 -2.66699 112.666 -18 141.999 -46c28 -25.333 42 -64 42 -116v-261zM319.003 248.999l-53 -14l-88 -17
c-48.667 -9.33301 -75 -38 -79 -86v-7c0 -26 9.5 -47.833 28.5 -65.5s41.167 -26.5 66.5 -26.5h3c31.333 0.666992 59.5 10.5 84.5 29.5s37.5 44.167 37.5 75.5v111zM293.003 545.999l-76 60l-72 -60h-62l69 106h127l72 -106h-58z" />
    <glyph glyph-name="atilde" unicode="&#xe3;" horiz-adv-x="437" 
d="M392 77c0 -24.667 6.00195 -49.002 18.002 -73.002l-93 -2v37c-26.667 -27.333 -70.334 -41.666 -131.001 -42.999h-3c-44.667 0 -82 13.167 -112 39.5s-45 60.5 -45 102.5v8c1.33301 41.333 12.5 72.333 33.5 93s52.833 34.334 95.5 41.001l96 17
c43.333 7.33301 65 29 65 65c0 24 -10.333 44 -31 60s-46.667 24 -78 24c-60 0 -107 -15.333 -141 -46v66c34 22 78 33 132 33h10c65.333 -2 112.666 -17 141.999 -45c28 -25.333 42 -64 42 -116v-261zM319.002 260.998l-53 -14l-89 -17
c-49.333 -9.33301 -75.333 -38 -78 -86v-7c0 -26 9.33301 -47.833 28 -65.5s41 -26.5 67 -26.5h3c31.333 0.666992 59.5 10.5 84.5 29.5s37.5 44.167 37.5 75.5v111zM339.002 619.998c0 -22 -6.16602 -39.667 -18.499 -53s-27.833 -20 -46.5 -20h-3
c-23.333 1.33301 -43.833 5.83301 -61.5 13.5s-29.167 11.5 -34.5 11.5h-5c-6 0 -9.66699 -3 -11 -9v-16h-58v25c0 20.667 6.66699 37.667 20 51s28.666 20 45.999 20h2c18 -0.666992 35.5 -5.5 52.5 -14.5s30.167 -13.5 39.5 -13.5h2c12 1.33301 18 5 18 11l1 20h57v-26z
" />
    <glyph glyph-name="adieresis" unicode="&#xe4;" horiz-adv-x="437" 
d="M392 71c0 -24.667 6.00293 -49.001 18.0029 -73.001l-92 -2v37c-28.667 -27.333 -72.334 -41.666 -131.001 -42.999h-3c-44.667 0 -82 12.667 -112 38c-30.667 27.333 -46 62 -46 104v8c3.33301 75.333 46.333 120 129 134l96 17c43.333 7.33301 65 29 65 65
c0 24 -10.333 44 -31 60s-46.667 24 -78 24c-60 0 -107 -15.333 -141 -46v66c35.333 22.667 82.666 34 141.999 34c65.333 -2.66699 112.666 -18 141.999 -46c28 -25.333 42 -64 42 -116v-261zM319.003 254.999l-53 -14l-88 -17c-48.667 -9.33301 -75 -38 -79 -86v-7
c0 -26 9.5 -47.833 28.5 -65.5s41.167 -26.5 66.5 -26.5h3c31.333 0.666992 59.5 10.5 84.5 29.5s37.5 44.167 37.5 75.5v111zM266.003 545.999v99h95v-99h-95zM58.0029 545.999v99h95v-99h-95z" />
    <glyph glyph-name="aring" unicode="&#xe5;" horiz-adv-x="437" 
d="M392 71c0 -24.667 6.00195 -49 18.002 -73l-92 -2v37c-28.667 -27.333 -72.334 -41.666 -131.001 -42.999h-3c-44.667 0 -82 12.667 -112 38c-30.667 27.333 -46 62 -46 104v8c3.33301 75.333 46.333 120 129 134l96 17c43.333 7.33301 65 29 65 65
c0 24 -10.333 44 -31 60s-46.667 24 -78 24c-60 0 -107 -15.333 -141 -46v66c35.333 22.667 83 34 143 34c65.333 -2.66699 112.166 -17.334 140.499 -44.001s42.5 -66 42.5 -118v-261zM319.002 255l-53 -14l-87 -17c-49.333 -9.33301 -76 -38 -80 -86v-7
c0 -26 9.5 -47.833 28.5 -65.5s41.5 -26.5 67.5 -26.5h3c31.333 0.666992 59.333 10.5 84 29.5s37 44.167 37 75.5v111zM243.002 551c-22.667 0 -40.166 7.16504 -52.499 21.498s-18.833 30.833 -19.5 49.5c0 18.667 6 35.334 18 50.001s29.333 22 52 22
s40.167 -7.16699 52.5 -21.5s18.5 -30.833 18.5 -49.5v-3c0 -17.333 -5.83301 -33.166 -17.5 -47.499s-28.834 -21.5 -51.501 -21.5zM207.003 622.998v-1.99902c0 -24.667 11.333 -37.334 34 -38.001c22.667 0 34.334 13.333 35.001 40v2c0 25.333 -11.333 38 -34 38
s-34.334 -13.333 -35.001 -40z" />
    <glyph glyph-name="ae" unicode="&#xe6;" horiz-adv-x="766" 
d="M395 43c0 -11.333 4.66797 -26.335 14.001 -45.002l-92 -2v37c-28 -27.333 -71.667 -41.666 -131 -42.999h-3c-44.667 0 -82 13.167 -112 39.5s-45 60.5 -45 102.5v8c1.33301 41.333 12.5 72.333 33.5 93s52.833 34.334 95.5 41.001l95 17c43.333 7.33301 65 29 65 65
c0 24 -10.333 44 -31 60s-46.667 24 -78 24c-60 0 -107 -15.333 -141 -46v66c35.333 22.667 82.666 34 141.999 34c79.333 -2.66699 133 -25.667 161 -69l8 -11l12 12c39.333 42 85.666 63 138.999 63h10c59.333 -2.66699 107.333 -24 144 -64s56 -90 58 -150h-338l-3 -30
v-17c0 -51.333 14.5 -95.333 43.5 -132s74.167 -55 135.5 -55s113 17.667 155 53l-13 -72c-39.333 -22.667 -84.666 -34 -135.999 -34c-88 0 -150.333 18.333 -187 55c0 2 -0.333008 3 -1 3v-3zM662.001 327.998c-14.667 71.333 -55.665 107 -122.998 107h-3
c-28.667 0 -54.834 -9.83301 -78.501 -29.5s-38.834 -45.5 -45.501 -77.5h250zM317.003 254.998l-52 -13.999l-87 -17c-50 -9.33301 -76.333 -38 -79 -86v-9c0 -24.667 9.33301 -45.834 28 -63.501s41 -26.5 67 -26.5h3c31.333 0.666992 59.5 10.5 84.5 29.5
s37.5 44.167 37.5 75.5z" />
    <glyph glyph-name="ccedilla" unicode="&#xe7;" horiz-adv-x="470" 
d="M431 14c-29.333 -12 -75.3311 -19.334 -137.998 -22.001h-11l-31 -50h26c23.333 0 37.666 -16 42.999 -48v-6c0 -13.333 -6.83301 -25.666 -20.5 -36.999s-30.167 -17 -49.5 -17c-39.333 0 -59 12 -59 36c0 14 6.33301 21 19 21c2 0 4.33301 -0.333008 7 -1
c11.333 -2.66699 17.666 -7.66699 18.999 -15c0.666992 -8.66699 1 -14 1 -16v-1c2 -3.33301 6.66699 -5 14 -5c6.66699 0 13.167 3.66699 19.5 11s9.5 16 9.5 26c-1.33301 19.333 -9.33301 29.666 -24 30.999c-2.66699 0.666992 -6.33398 1 -11.001 1s-10 -3 -16 -9l-15 4
l33 77c-60 5.33301 -111.5 30 -154.5 74s-64.833 100.333 -65.5 169v6c0 70.667 24.333 129.5 73 176.5s108.334 70.5 179.001 70.5h9c56.667 -1.33301 101 -8.66602 133 -21.999v-76c-38.667 30.667 -80.667 46 -126 46h-7c-52 -0.666992 -95.167 -20 -129.5 -58
s-51.5 -84.667 -51.5 -140v-3c0 -56 17.833 -103 53.5 -141s78.167 -57 127.5 -57h5c59.333 2 109.333 18.333 150 49z" />
    <glyph glyph-name="egrave" unicode="&#xe8;" 
d="M110 275l-3 -30v-14c0 -53.333 13.667 -97 41 -131c30.667 -39.333 77 -59 139 -59c61.333 0 113.333 17.667 156 53l-15 -72c-38 -22.667 -85.667 -34 -143 -34c-8 0 -16.333 0.333008 -25 1c-153.333 6.66699 -231 93.334 -233 260.001v3
c0 63.333 20.667 118.666 62 165.999s92.666 71 153.999 71h5c58.667 -0.666992 106.334 -21.5 143.001 -62.5s55.667 -91.5 57 -151.5h-338zM372 328c-15.333 71.333 -56.334 107 -123.001 107h-3c-29.333 0 -55.666 -9.83301 -78.999 -29.5s-38.333 -45.5 -45 -77.5h250z
M262.999 546l-102 107h97l67 -107h-62z" />
    <glyph glyph-name="eacute" unicode="&#xe9;" 
d="M110 275l-2.99902 -30v-17c0 -51.333 13.667 -94 41 -128c30.667 -39.333 77 -59 139 -59c61.333 0 113 17.667 155 53l-14 -72c-38.667 -22.667 -86.334 -34 -143.001 -34c-8 0 -16.333 0.333008 -25 1c-154.667 6.66699 -232.334 93.334 -233.001 260.001v3
c0 63.333 20.667 118.666 62 165.999s92.333 71 153 71h5c58.667 -0.666992 106.334 -21.5 143.001 -62.5s56 -91.5 58 -151.5h-338zM372.001 328c-15.333 71.333 -56.334 107 -123.001 107h-3c-29.333 0 -55.666 -9.83301 -78.999 -29.5s-38.333 -45.5 -45 -77.5h250z
M253 550h-62l67 107h97z" />
    <glyph glyph-name="ecircumflex" unicode="&#xea;" 
d="M110 275l-3 -30v-14c0 -53.333 13.667 -97 41 -131c30.667 -39.333 77 -59 139 -59c61.333 0 113.333 17.667 156 53l-15 -72c-38 -22.667 -85.667 -34 -143 -34c-8 0 -16.333 0.333008 -25 1c-153.333 6.66699 -231 93.334 -233 260.001v3
c0 63.333 20.667 118.666 62 165.999s92.666 71 153.999 71h5c58.667 -0.666992 106.334 -21.5 143.001 -62.5s55.667 -91.5 57 -151.5h-338zM372 328c-15.333 71.333 -56.334 107 -123.001 107h-3c-29.333 0 -55.666 -9.83301 -78.999 -29.5s-38.333 -45.5 -45 -77.5h250z
M330.999 546l-77 60l-71 -60h-62l69 106h126l73 -106h-58z" />
    <glyph glyph-name="edieresis" unicode="&#xeb;" 
d="M110 275l-3 -30v-14c0 -53.333 13.667 -97 41 -131c30.667 -39.333 77 -59 139 -59c61.333 0 113.333 17.667 156 53l-15 -72c-38 -22.667 -85.667 -34 -143 -34c-8 0 -16.333 0.333008 -25 1c-153.333 6.66699 -231 93.334 -233 260.001v3
c0 63.333 20.667 118.666 62 165.999s92.666 71 153.999 71h5c58.667 -0.666992 106.334 -21.5 143.001 -62.5s55.667 -91.5 57 -151.5h-338zM372 328c-15.333 71.333 -56.334 107 -123.001 107h-3c-29.333 0 -55.666 -9.83301 -78.999 -29.5s-38.333 -45.5 -45 -77.5h250z
M309.999 546v99h94v-99h-94zM101.999 546v99h94v-99h-94z" />
    <glyph glyph-name="igrave" unicode="&#xec;" horiz-adv-x="218" 
d="M129 551l-103 108h98l67 -108h-62zM169 47c0 -16 4.66699 -32.667 14 -50h-105c7.33301 8 11.5 14.5 12.5 19.5s1.5 14.5 1.5 28.5v375c0 27.333 -6.66699 46.333 -20 57l97 8v-438z" />
    <glyph glyph-name="iacute" unicode="&#xed;" horiz-adv-x="217" 
d="M87 550h-61l66 107h98zM132 47c0 -16 4.66699 -32.667 14 -50h-104c6.66699 10 10.5 17 11.5 21s1.5 13 1.5 27v375c0 27.333 -6.66699 46.333 -20 57l97 8v-438z" />
    <glyph glyph-name="icircumflex" unicode="&#xee;" horiz-adv-x="322" 
d="M237 549l-77 60l-72 -60h-62l69 105h126l74 -105h-58zM209 44c0 -16 4.33398 -32.667 13.001 -50h-102c5.33301 8.66699 8.66602 15.167 9.99902 19.5s2 13.833 2 28.5v375c0 24.667 -6.66699 43.667 -20 57l97 9v-439z" />
    <glyph glyph-name="idieresis" unicode="&#xef;" horiz-adv-x="356" 
d="M234 546v99h95v-99h-95zM26 546v99h95v-99h-95zM138 -3c6.66699 10 10.333 17.166 11 21.499s1 13.166 1 26.499v375c0 14.667 -1.33301 25.834 -4 33.501s-7.66699 15.834 -15 24.501l97 7v-438c0 -11.333 1 -20.333 3 -27l10 -23h-103z" />
    <glyph glyph-name="ntilde" unicode="&#xf1;" horiz-adv-x="490" 
d="M41 422c0 15.333 -5.00195 34.6699 -15.002 58.0029l92 4l-1 -44c30.667 34.667 75.334 53 134.001 55h11c48.667 0 90.334 -16.333 125.001 -49c38.667 -34.667 58 -77.334 58 -128.001v-249c0 -18 1 -31.833 3 -41.5s7 -19.834 15 -30.501h-112
c9.33301 13.333 14.333 23.666 15 30.999v304c0 34 -14.333 61.333 -43 82c-24 18.667 -51.667 28 -83 28h-6c-34 -0.666992 -61.667 -13.167 -83 -37.5s-32 -54.5 -32 -90.5v-241c0 -29.333 6 -54.666 18 -75.999h-110c9.33301 15.333 14 29.666 14 42.999v382z
M361.998 620.004c0 -22 -6.16504 -39.667 -18.498 -53s-27.833 -20 -46.5 -20h-3c-24 1.33301 -44.5 5.83301 -61.5 13.5s-28.167 11.5 -33.5 11.5h-5c-6.66699 0 -10.334 -3 -11.001 -9l-2 -16h-57v25c0 20.667 6.83301 37.667 20.5 51s28.834 20 45.501 20h2
c17.333 -0.666992 34.666 -5.5 51.999 -14.5s30.666 -13.5 39.999 -13.5h2c11.333 1.33301 17 5 17 11l1 20h58v-26z" />
    <glyph glyph-name="ograve" unicode="&#xf2;" horiz-adv-x="541" 
d="M513 236c-0.666992 -68 -24.666 -125.836 -71.999 -173.503s-104.333 -71.5 -171 -71.5h-3c-66.667 0.666992 -123.334 25.834 -170.001 75.501s-70 108.5 -70 176.5s23.667 126.667 71 176c48 48.667 104.667 73 170 73h5c68 -1.33301 125 -26.666 171 -75.999
s69 -106.666 69 -171.999v-8zM434.001 234.997l0.000976562 3c0 51.333 -15.333 96.333 -46 135c-31.333 38.667 -70 59.334 -116 62.001h-5c-45.333 0 -83.333 -19 -114 -57c-30.667 -38.667 -46 -84.334 -46 -137.001c0 -0.666992 0.333008 -1 1 -1
c0 -53.333 15.667 -99 47 -137s69.666 -57 114.999 -57c44.667 0 82.667 18.5 114 55.5s48 81.5 50 133.5zM281.002 545.997l-102 107h97l67 -107h-62z" />
    <glyph glyph-name="oacute" unicode="&#xf3;" horiz-adv-x="542" 
d="M514 236c-1.33301 -68 -25.832 -125.832 -73.499 -173.499s-104.5 -71.5 -170.5 -71.5h-3c-66.667 1.33301 -123.334 26.666 -170.001 75.999s-70 108 -70 176s23.833 126.5 71.5 175.5s104.167 73.5 169.5 73.5h5c68 -1.33301 125.167 -26.833 171.5 -76.5
s69.5 -107.5 69.5 -173.5v-6zM434.001 235.001l0.000976562 3c0 51.333 -15.333 96.333 -46 135c-31.333 38.667 -70 59.334 -116 62.001h-5c-45.333 0 -83.333 -19 -114 -57c-30.667 -38.667 -46 -84.334 -46 -137.001c0 -0.666992 0.333008 -1 1 -1
c0 -53.333 15.667 -99 47 -137s69.666 -57 114.999 -57c44.667 0 82.667 18.5 114 55.5s48 81.5 50 133.5zM276.002 550.001h-61l66 107h98z" />
    <glyph glyph-name="ocircumflex" unicode="&#xf4;" horiz-adv-x="541" 
d="M513 236c-0.666992 -68 -24.666 -125.836 -71.999 -173.503s-104.333 -71.5 -171 -71.5h-3c-66.667 0.666992 -123.334 25.834 -170.001 75.501s-70 108.5 -70 176.5s23.833 126.5 71.5 175.5s104.167 73.5 169.5 73.5h5c68 -1.33301 125 -26.666 171 -75.999
s69 -106.666 69 -171.999v-8zM434.001 234.997l0.000976562 3c0 51.333 -15.333 96.333 -46 135c-31.333 38.667 -70 59.334 -116 62.001h-5c-45.333 0 -83.333 -19 -114 -57c-30.667 -38.667 -46 -84.334 -46 -137.001c0 -0.666992 0.333008 -1 1 -1
c0 -53.333 15.667 -99 47 -137s69.666 -57 114.999 -57c44.667 0 82.667 18.5 114 55.5s48 81.5 50 133.5zM357.002 550.997l-77 60l-71 -60h-62l69 106h126l73 -106h-58z" />
    <glyph glyph-name="otilde" unicode="&#xf5;" horiz-adv-x="542" 
d="M514 236c-1.33301 -68 -25.832 -125.832 -73.499 -173.499s-104.5 -71.5 -170.5 -71.5h-3c-66.667 1.33301 -123.334 26.666 -170.001 75.999s-70 108 -70 176s23.833 126.5 71.5 175.5s104.167 73.5 169.5 73.5h5c68 -1.33301 125.167 -26.833 171.5 -76.5
s69.5 -107.5 69.5 -173.5v-6zM434.001 235.001l0.000976562 3c0 51.333 -15.333 96.333 -46 135c-31.333 38.667 -70 59.334 -116 62.001h-5c-45.333 0 -83.333 -19 -114 -57c-30.667 -38.667 -46 -84.334 -46 -137.001c0 -0.666992 0.333008 -1 1 -1
c0 -53.333 15.667 -99 47 -137s69.666 -57 114.999 -57c44.667 0 82.667 18.5 114 55.5s48 81.5 50 133.5zM395.002 620.001c0 -22 -6.16602 -39.667 -18.499 -53s-27.833 -20 -46.5 -20h-3c-24 1.33301 -44.5 5.83301 -61.5 13.5s-28.167 11.5 -33.5 11.5h-5
c-6 0 -9.33301 -3 -10 -9l-2 -16h-58v25c0 20.667 6.66699 37.667 20 51s28.666 20 45.999 20h2c18 -0.666992 35.5 -5.5 52.5 -14.5s30.167 -13.5 39.5 -13.5h2c12 1.33301 18 5 18 11l1 20h57v-26z" />
    <glyph glyph-name="odieresis" unicode="&#xf6;" horiz-adv-x="542" 
d="M514 236c-1.33301 -68 -25.666 -125.834 -72.999 -173.501s-104.333 -71.5 -171 -71.5h-3c-66.667 1.33301 -123.334 26.666 -170.001 75.999s-70 108 -70 176s24 126.5 72 175.5s104.667 73.5 170 73.5h5c68 -1.33301 125 -26.666 171 -75.999s69 -106.666 69 -171.999
v-8zM435 234.999l0.00195312 3.00098c0 51.333 -15.333 96.333 -46 135c-31.333 38.667 -70.333 59.334 -117 62.001h-5c-44.667 0 -82.334 -19 -113.001 -57c-30.667 -38.667 -46 -84.334 -46 -137.001c0 -0.666992 0.333008 -1.33398 1 -2.00098
c0 -53.333 15.5 -98.833 46.5 -136.5s69.167 -56.5 114.5 -56.5s83.666 18.5 114.999 55.5s48 81.5 50 133.5zM335.002 546v99h94v-99h-94zM127.002 546v99h94v-99h-94z" />
    <glyph glyph-name="divide" unicode="&#xf7;" horiz-adv-x="669" 
d="M328 410c-22 0 -39 7 -51 21s-18 30.333 -18 49c0 18 6 34 18 48s29 21 51 21s39 -7 51 -21s18 -30 18 -48c0 -18.667 -6 -35 -18 -49s-29 -21 -51 -21zM28 275v76h612v-76h-612zM328 77c-22 0 -39 7 -51 21s-18 30.333 -18 49s6 35 18 49s29 21 51 21s39 -7 51 -21
s18 -30.333 18 -49s-6 -35 -18 -49s-29 -21 -51 -21z" />
    <glyph glyph-name="oslash" unicode="&#xf8;" horiz-adv-x="544" 
d="M459 399c32.667 -44.667 49 -97.001 49 -157.001v-9c0 -67.333 -22.833 -123.833 -68.5 -169.5s-102.5 -69.167 -170.5 -70.5h-3c-54 0 -101 15.667 -141 47l-55 -59l-30 38l51 53c-42.667 46.667 -64 102.334 -64 167.001v3c0 67.333 23.833 125.5 71.5 174.5
s104.5 73.5 170.5 73.5h3c60 -0.666992 110.667 -20 152 -58l58 66l35 -33zM376 380.999c-29.333 34 -65 51.333 -107 52h-2c-47.333 0 -85 -18.333 -113 -55s-42 -78 -42 -124v-12c1.33301 -52 10.333 -91.333 27 -118zM402 339.999l-232 -252.001
c26.667 -25.333 59 -39 97 -41h7c41.333 0 77.5 18.833 108.5 56.5s46.5 81.834 46.5 132.501v3c0 38 -9 71.667 -27 101z" />
    <glyph glyph-name="ugrave" unicode="&#xf9;" horiz-adv-x="496" 
d="M369 -3l-0.00195312 50.998c-31.333 -38.667 -75 -58 -131 -58h-14c-51.333 2.66699 -92.666 17.334 -123.999 44.001c-36 29.333 -54 70 -54 122v268c0 14 -1.16699 25 -3.5 33s-7.83301 15.333 -16.5 22l97 10v-292c0 -45.333 9.66699 -82.666 29 -111.999
s49 -44 89 -44h3c32.667 0 61.667 11.333 87 34c24 22.667 36 52 36 88v265c0 6 -2 16.333 -6 31l-11 20l98 13v-428c0 -22 1.33301 -36.333 4 -43s8.33398 -14.667 17.001 -24h-100zM275.998 545.998l-102 107h98l66 -107h-62z" />
    <glyph glyph-name="uacute" unicode="&#xfa;" horiz-adv-x="496" 
d="M369 -3l-0.00195312 50.998c-31.333 -38.667 -75 -58 -131 -58h-14c-51.333 2.66699 -92.666 17.334 -123.999 44.001c-36 29.333 -54 70 -54 122v268c0 26 -6.66699 44.333 -20 55l97 10v-292c0 -45.333 9.66699 -82.666 29 -111.999s49 -44 89 -44h3
c32.667 0 61.167 11.333 85.5 34s36.5 52 36.5 88v265c0 8.66699 -1.66699 19 -5 31l-11 20l98 13v-428c0 -22 1.33301 -36.333 4 -43s8.33398 -14.667 17.001 -24h-100zM241.998 549.998h-62l67 107h97z" />
    <glyph glyph-name="ucircumflex" unicode="&#xfb;" horiz-adv-x="495" 
d="M45 424c0 26 -6.33301 44.3311 -19 54.998l96 10v-292c0 -45.333 9.66699 -82.666 29 -111.999s49 -44 89 -44h3c33.333 0 62.166 11.333 86.499 34s36.5 52 36.5 88v265c0 6 -1.66699 16.333 -5 31l-12 20l98 13v-428c0 -22 1.5 -36.333 4.5 -43s8.5 -14.667 16.5 -24
h-100v51c-31.333 -38.667 -75 -58 -131 -58h-14c-51.333 2.66699 -92.666 17.334 -123.999 44.001c-36 29.333 -54 70 -54 122v268zM336 546.998l-77 60l-71 -60h-62l69 106h126l73 -106h-58z" />
    <glyph glyph-name="udieresis" unicode="&#xfc;" horiz-adv-x="496" 
d="M369 -3l-0.00195312 50.998c-31.333 -38.667 -75 -58 -131 -58h-14c-51.333 2.66699 -92.666 17.334 -123.999 44.001c-36 29.333 -54 70 -54 122v268c0 26 -6.66699 44.333 -20 55l97 10v-292c0 -45.333 9.66699 -82.666 29 -111.999s49 -44 89 -44h3
c32.667 0 61.167 11.333 85.5 34s36.5 52 36.5 88v265c0 8.66699 -1.66699 19 -5 31l-11 20l98 13v-428c0 -22 1.33301 -36.333 4 -43s8.33398 -14.667 17.001 -24h-100zM298.998 545.998v99h93v-99h-93zM89.998 545.998v99h94v-99h-94z" />
    <glyph glyph-name="ydieresis" unicode="&#xff;" horiz-adv-x="505" 
d="M478 483c-25.333 -24 -42 -47.335 -50 -70.002l-253 -654c-4 -13.333 -7 -28.333 -9 -45h-69l131 344l-163 363c-10 26.667 -23 47.334 -39 62.001h111c-3.33301 -8.66699 -5 -16.667 -5 -24s4.66699 -23 14 -47l118 -275l102 284c2 8.66699 3 16.667 3 24v6
c-0.666992 10.667 -3.66699 21.334 -9 32.001h118zM323 545.998v99h94v-99h-94zM114 545.998v99h95v-99h-95z" />
    <glyph glyph-name="dotlessi" unicode="&#x131;" horiz-adv-x="166" 
d="M38 0c8 12 12 28.665 12 49.998v379c0 16.667 -1.5 28.834 -4.5 36.501s-7.83301 14.834 -14.5 21.501l98 9v-444c0 -22.667 5 -40 15 -52h-106z" />
    <glyph glyph-name="OE" unicode="&#x152;" horiz-adv-x="975" 
d="M917 -5l-548 0.000976562c-95.333 0 -176.166 37.667 -242.499 113s-99.5 163.666 -99.5 264.999s34.5 189.166 103.5 263.499s152.5 111.5 250.5 111.5h490v-96c-13.333 14.667 -24.333 24.334 -33 29.001c-7.33301 2.66699 -18 4 -32 4h-202v-238h265v-90
c-12 14.667 -20.833 23 -26.5 25s-12.834 3 -21.501 3h-210v-320h239c13.333 0 30.333 2.66699 51 8l47 18zM518 645.001c0 15.333 -3 26.3311 -9 32.998s-36.333 10 -91 10h-3c-84 0 -155 -30.167 -213 -90.5s-87 -134.166 -87 -221.499s26 -162.166 78 -224.499
s116 -93.5 192 -93.5h96c18 0 28.667 2 32 6s5 16.667 5 38v543z" />
    <glyph glyph-name="oe" unicode="&#x153;" horiz-adv-x="883" 
d="M693 -12c-106 0 -180 36.999 -222 110.999l-9 -13c-49.333 -63.333 -112.666 -95 -189.999 -95h-2c-66.667 0 -123.834 24.833 -171.501 74.5s-71.5 108.834 -71.5 177.501c0 68 24 126.5 72 175.5s104.667 73.5 170 73.5h5c88 -3.33301 154.333 -40.333 199 -111
c41.333 68.667 102 104.667 182 108h10c54 0 99 -20.333 135 -61s54.667 -91.667 56 -153h-334l-2 -30c-0.666992 -7.33301 -1 -14.333 -1 -21c0 -48 12.667 -88.667 38 -122c30.667 -40.667 76.667 -61 138 -61c60.667 0 112 17.667 154 53l-14 -72
c-38 -22.667 -85.333 -34 -142 -34zM783 327.999c-14.667 71.333 -55.668 107 -123.001 107h-3c-29.333 0 -55.666 -9.83301 -78.999 -29.5s-38.333 -45.5 -45 -77.5h250zM433.999 234.999l0.000976562 6.00293c0 50 -15.333 94.167 -46 132.5s-69.334 58.833 -116.001 61.5
h-5c-44.667 0 -82.334 -19 -113.001 -57c-30.667 -38.667 -46 -84.334 -46 -137.001c0 -0.666992 0.333008 -1.33398 1 -2.00098c0 -53.333 15.5 -98.833 46.5 -136.5s69.167 -56.5 114.5 -56.5c44.667 0 82.834 18.667 114.501 56s48.167 81.666 49.5 132.999z" />
    <glyph glyph-name="Ydieresis" unicode="&#x178;" horiz-adv-x="616" 
d="M252 -4c6 12.667 9 27.667 9 45v335l-193 319l-18 28c-8 10 -16 18 -24 24h127v-8c0 -15.333 5.66699 -32.333 17 -51l143 -245l157 261c7.33301 14 11 25 11 33c0 3.33301 -0.333008 7 -1 11h109c-10 -9.33301 -18.667 -19.333 -26 -30l-216 -342v-331
c0 -6.66699 1 -15 3 -25l5 -24h-103zM384 791v98h95v-98h-95zM176 791v98h95v-98h-95z" />
    <glyph glyph-name="florin" unicode="&#x192;" horiz-adv-x="501" 
d="M412 677c0 2.66699 -5.83398 7.33008 -17.501 13.9971s-17.834 10 -18.501 10c-10.667 0 -19 -22.667 -25 -68l-20 -150l-4 -19h97l-5 -46h-103l-60 -311c-16 -84 -36 -153.667 -60 -209c-33.333 -75.333 -71.666 -113 -114.999 -113c-23.333 0 -39.666 8 -48.999 24
c-4 6.66699 -6 12.667 -6 18c0 4.66699 0.333008 8.33398 1 11.001c8.66699 26.667 25.667 40.334 51 41.001h2c10.667 0 18 -4.66699 22 -14c5.33301 -10.667 10.333 -16 15 -16c12.667 0 24.667 22.667 36 68l95 501h-107l2 48h120l6 26
c34.667 183.333 85.667 275 153 275c15.333 0 27.833 -4.83301 37.5 -14.5s14.5 -17.167 14.5 -22.5s-0.666992 -9.66602 -2 -12.999c-8.66699 -26.667 -28.667 -40 -60 -40z" />
    <glyph glyph-name="dotlessj" unicode="&#x237;" horiz-adv-x="224" 
d="M163 43c0 -46.667 -10.998 -89.002 -32.998 -127.002c-28.667 -47.333 -69.334 -71 -122.001 -71h-12v34c15.333 1.33301 26.333 3.33301 33 6c36 22.667 54 71.334 54 146.001v389c0 16.667 -1.33301 29.334 -4 38.001s-8.33398 17 -17.001 25l101 12v-452z" />
    <glyph glyph-name="uni0394" unicode="&#x394;" horiz-adv-x="704" 
d="M23 -3l350 776l307 -776h-657zM333 569l-231 -517h438z" />
    <glyph glyph-name="uni03A9" unicode="&#x3a9;" horiz-adv-x="761" 
d="M432 -4l14 154c92 44 138 124.333 138 241v3c-1.33301 71.333 -14.333 124.333 -39 159c-31.333 44 -85.333 66.333 -162 67h-5c-133.333 0 -200.333 -75.333 -201 -226v-7c0 -114.667 45.667 -193.667 137 -237l14 -154h-300v164h28v-5
c0 -11.333 4.16699 -23.666 12.5 -36.999s22.833 -20 43.5 -20h154v28c-61.333 11.333 -111.333 42 -150 92s-59 109.333 -61 178v12c0 74.667 30 134.5 90 179.5s139.667 67.5 239 67.5s177.833 -22.333 235.5 -67s86.5 -105.334 86.5 -182.001v-10
c-2.66699 -68.667 -23.334 -128 -62.001 -178s-89 -80.667 -151 -92v-28h155c20.667 0 36.334 7.66699 47.001 23c5.33301 10.667 8 21 8 31v8h29v-164h-300z" />
    <glyph glyph-name="pi" unicode="&#x3c0;" horiz-adv-x="605" 
d="M578 151c-5.33301 -43.333 -20.168 -79.668 -44.501 -109.001s-53.166 -44 -86.499 -44h-10c-42 3.33301 -70.667 29.333 -86 78c-8 26 -12 51.333 -12 76s1 45.667 3 63l25 237h-114l-42 -351c-4 -31.333 -12.833 -57.5 -26.5 -78.5s-30.167 -31.5 -49.5 -31.5
c-5.33301 0 -10.666 0.666992 -15.999 2c-32 10.667 -48 29 -48 55c0 17.333 7 34 21 50c24.667 26.667 39 45.334 43 56.001c12 28.667 18.333 47 19 55l24 239h-28c-23.333 0 -39.333 -1.66699 -48 -5c-24 -11.333 -41.667 -32.333 -53 -63l-26 12l7 16
c27.333 66.667 55.333 107 84 121c22.667 12.667 47 19 73 19h387v-96h-139l-13 -264v-10c0 -20 5.66699 -38.833 17 -56.5s25.666 -26.5 42.999 -26.5h2c31.333 2 52 22.667 62 62l4 21h30z" />
    <glyph glyph-name="afii10023" unicode="&#x401;" horiz-adv-x="507" 
d="M47 643c0 20.667 -7 38 -21 52h374v-81c-14 12.667 -24.5 20.167 -31.5 22.5s-21.833 3.5 -44.5 3.5h-188v-224h264v-74c-28.667 12.667 -54 19 -76 19h-185v-308h222c28 0 53.667 4 77 12c10 2 24 9 42 21l-29 -89h-419c6 9.33301 10 17.333 12 24s3 20 3 40v582z
M310 754v98h95v-98h-95zM102 754v98h95v-98h-95z" />
    <glyph glyph-name="afii10053" unicode="&#x404;" horiz-adv-x="685" 
d="M616 9c-48.667 -17.333 -115.333 -26.002 -200 -26.002c-108 0 -198.667 33 -272 99c-77.333 68 -116.333 154.667 -117 260v3c0 102.667 38.333 188.167 115 256.5s172.667 102.5 288 102.5h3c66.667 -1.33301 124 -11.666 172 -30.999v-74
c-55.333 30.667 -112 46.334 -170 47.001h-9c-88 0 -161.667 -29 -221 -87c-50.667 -49.333 -80 -110 -88 -182h300v-63h-301c5.33301 -77.333 36 -141.333 92 -192c59.333 -52 132.333 -78 219 -78h13c81.333 1.33301 154 24 218 68z" />
    <glyph glyph-name="afii10054" unicode="&#x405;" horiz-adv-x="502" 
d="M474 176l0.00195312 -8.99707c0 -65.333 -30 -114 -90 -146c-46 -24.667 -104.667 -37 -176 -37h-16c-72 1.33301 -126.333 8.66602 -163 21.999v82c43.333 -34.667 100.333 -52.667 171 -54h9c50.667 0 91.167 11 121.5 33s45.5 54.333 45.5 97
c0 49.333 -36.333 93.666 -109 132.999l-129 72c-74 43.333 -111.333 97.333 -112 162v2c0 52 22.333 93.5 67 124.5s96.667 46.5 156 46.5h11c67.333 -2.66699 116.333 -9.66699 147 -21v-83c-36.667 34.667 -83 53 -139 55h-12c-35.333 0 -67.5 -10.333 -96.5 -31
s-43.5 -47 -43.5 -79v-10c3.33301 -38.667 30.666 -72.334 81.999 -101.001l113 -65c61.333 -34 98.666 -57.333 111.999 -70c32 -30 49 -71 51 -123z" />
    <glyph glyph-name="afii10055" unicode="&#x406;" horiz-adv-x="182" 
d="M48 624c0 25.333 -7.33301 49.001 -22 71.001h129c-12.667 -24.667 -19 -47.667 -19 -69v-510c0 -45.333 0.666992 -72.833 2 -82.5s6.33301 -21.834 15 -36.501h-123c12 18 18 38.667 18 62v565z" />
    <glyph glyph-name="afii10056" unicode="&#x407;" horiz-adv-x="182" 
d="M48 624c0 25.333 -7.33301 49.001 -22 71.001h129c-12.667 -24.667 -19 -47.667 -19 -69v-510c0 -45.333 0.666992 -72.833 2 -82.5s6.33301 -21.834 15 -36.501h-123c12 18 18 38.667 18 62v565zM148 795.001v98h95v-98h-95zM-60 795.001v98h95v-98h-95z" />
    <glyph glyph-name="afii10057" unicode="&#x408;" horiz-adv-x="248" 
d="M118 626c0 26 -4.00098 48.667 -12.001 68h115c-7.33301 -15.333 -11.833 -26.833 -13.5 -34.5s-2.5 -24.167 -2.5 -49.5v-404c0 -98 -5.33301 -158.333 -16 -181c-25.333 -53.333 -67.333 -97 -126 -131l-21 -12l-16 23l21 13c38.667 24 60.334 47.667 65.001 71
c4 26.667 6 81 6 163v474z" />
    <glyph glyph-name="afii10058" unicode="&#x409;" horiz-adv-x="1090" 
d="M605 -4c7.33301 11.333 12 19.667 14 25c1.33301 4 2.33301 12 3 24c-1.33301 4.66699 -3.33301 10.667 -6 18l-237 531l-235 -554c-4.66699 -10.667 -7 -18.667 -7 -24c0 -6 1.33301 -12.667 4 -20h-115c13.333 13.333 24.166 25.333 32.499 36s16.5 25.334 24.5 44.001
l247 565c2.66699 5.33301 4 13.666 4 24.999v6c0 7.33301 -0.666992 16 -2 26h95l256 -575c12.667 -28 24.334 -51.333 35.001 -70h7v5c15.333 -2.66699 34.333 -4 57 -4h16c60.667 2 104.667 15 132 39c26 26 40 64.333 42 115v6c0 46 -15.5 84.167 -46.5 114.5
s-73.5 46.166 -127.5 47.499h-7c-26 0 -84 -5.66699 -174 -17v33c96 15.333 169 24 219 26h7c65.333 0 119 -20 161 -60c43.333 -37.333 66 -86.666 68 -147.999v-6c0 -58 -22.667 -106.667 -68 -146c-44.667 -41.333 -99.667 -62 -165 -62h-234z" />
    <glyph glyph-name="afii10061" unicode="&#x40c;" horiz-adv-x="578" 
d="M48 624c0 28.667 -7.33301 53.001 -22 73.001l129 -1c-6.66699 -10 -11.667 -20.167 -15 -30.5s-5 -29.5 -5 -57.5l-1 -204l189 210c18 20.667 28 38.667 30 54v7c0 7.33301 -0.666992 14.333 -2 21h150c-20.667 -10.667 -36.167 -20.834 -46.5 -30.501
s-24.833 -24.5 -43.5 -44.5l-197 -216c38.667 -54 107.667 -141.667 207 -263c30.667 -36.667 74 -84.667 130 -144h-120l-295 379v-327c0 -8 0.666992 -15.667 2 -23s6.33301 -17 15 -29h-122c6.66699 10 11.167 17.833 13.5 23.5s3.5 17.167 3.5 34.5v568zM269 670.001
h-62l67 107h97z" />
    <glyph glyph-name="afii10062" unicode="&#x40e;" horiz-adv-x="746" 
d="M271 724h232v-74h-232v74zM751 694c-9.33301 -10 -17.333 -19.6621 -24 -28.9951c-6.66699 -8.66699 -12 -16.334 -16 -23.001l-302 -504l-67 -141c-4 -10.667 -7.33301 -23 -10 -37h-70l93 197l-311 499c-6 10.667 -11 18.5 -15 23.5s-11.667 10.167 -23 15.5h131
c-4 -4.66699 -6 -9.33398 -6 -14.001s1.66699 -10.334 5 -17.001l258 -419l34 58l203 344c8 13.333 12 22.666 12 27.999s-1.33301 11.666 -4 18.999h112z" />
    <glyph glyph-name="afii10017" unicode="&#x410;" horiz-adv-x="784" 
d="M620 -4c4 11.333 6.00098 21.333 6.00098 30v8l-10 29l-90 201h-289l-93 -224c-4.66699 -10.667 -7 -18.667 -7 -24c0 -6 1.33301 -12.667 4 -20h-115c13.333 13.333 24.166 25.333 32.499 36s16.5 25.334 24.5 44.001l247 565c2.66699 5.33301 4 13.666 4 24.999v6
c0 7.33301 -0.666992 16 -2 26h95l256 -575c17.333 -38 33 -68 47 -90l27 -37h-137zM379.001 594l-119 -278h243z" />
    <glyph glyph-name="afii10018" unicode="&#x411;" horiz-adv-x="495" 
d="M47 636c0 8 -0.333008 14.666 -1 19.999c-4 12.667 -10.667 26 -20 40h221v-1h109l37 -95c-20.667 17.333 -36.5 27.833 -47.5 31.5s-23.5 5.5 -37.5 5.5l-171 1v-239h57c14 0 27.333 1 40 3l108 -30c83.333 -27.333 125 -86 125 -176c0 -61.333 -21.333 -110 -64 -146
s-101 -54 -175 -54h-195c0 0.666992 0.333008 1.33398 1 2.00098h-8c14 19.333 21 42.333 21 69v569zM141 344.999v-296c16 -5.33301 29.333 -8 40 -8c60.667 0 109.167 13.833 145.5 41.5s54.5 64.167 54.5 109.5v5c-2 98 -63.333 149 -184 153z" />
    <glyph glyph-name="afii10019" unicode="&#x412;" horiz-adv-x="495" 
d="M52 626c0 21.333 -8.66797 44.667 -26.001 70h221c47.333 0 87.333 -16.667 120 -50s50.334 -73 53.001 -119v-4c0 -55.333 -26 -97.666 -78 -126.999l-25 -16l25 -8c83.333 -27.333 125 -86 125 -176c0 -61.333 -21.333 -110 -64 -146s-101 -54 -175 -54h-195
c12.667 19.333 19 38.666 19 57.999v572zM298.999 613.001c-24 21.333 -56.667 32 -98 32h-64v-246h57c48 0 83.833 11 107.5 33s35.5 51.667 35.5 89v6c-2 36 -14.667 64.667 -38 86zM196.999 350.001c-24.667 0 -43.333 -1.66699 -56 -5v-296c16 -5.33301 29.333 -8 40 -8
c60.667 0 109.167 13.833 145.5 41.5s54.5 64.167 54.5 109.5v5c-2 98 -63.333 149 -184 153z" />
    <glyph glyph-name="afii10020" unicode="&#x413;" horiz-adv-x="515" 
d="M47 636c0 18 -1.33203 30.001 -3.99902 36.001s-7 13.667 -13 23h421l37 -95c-20.667 17.333 -36.5 27.833 -47.5 31.5s-23.5 5.5 -37.5 5.5l-269 1l-1 -553c0 -30 1.16699 -49.333 3.5 -58s6.16602 -18.334 11.499 -29.001h-122c14 19.333 21 42.333 21 69v569z" />
    <glyph glyph-name="afii10021" unicode="&#x414;" horiz-adv-x="635" 
d="M541 -2l-85 -0.000976562l1 2h-361v-136h-64v182h78c30.667 24.667 46 71.334 46 140.001v389c0 16.667 -1.33301 29.334 -4 38.001c-1.33301 3.33301 -3 6.66602 -5 9.99902c-8.66699 -5.33301 -19 -13 -31 -23l37 95h421c-6 -9.33301 -10.333 -17 -13 -23
s-4 -18 -4 -36v-569c0 -7.33301 0.333008 -14.333 1 -21h48v-46h-3v-136h-62v134zM185 45.999h285c0.666992 10 1 23 1 39l-1 553l-234 -1v-439c0 -46.667 -11 -89 -33 -127z" />
    <glyph glyph-name="afii10022" unicode="&#x415;" horiz-adv-x="507" 
d="M47 643c0 20.667 -7 38 -21 52h374v-81c-14 12.667 -24.5 20.167 -31.5 22.5s-21.833 3.5 -44.5 3.5h-188v-224h264v-74c-28.667 12.667 -54 19 -76 19h-185v-308h222c28 0 53.667 4 77 12c10 2 24 9 42 21l-29 -89h-419c6 9.33301 10 17.333 12 24s3 20 3 40v582z" />
    <glyph glyph-name="afii10024" unicode="&#x416;" horiz-adv-x="958" 
d="M441 624c0 28.667 -7.33594 53 -22.0029 73l66 -1l66 1c-14.667 -20 -22 -44.333 -22 -73v-218l187 208c18 20.667 28 38.667 30 54v7c0 7.33301 -0.666992 14.333 -2 21h150c-20.667 -10.667 -36.167 -20.834 -46.5 -30.501s-24.833 -24.5 -43.5 -44.5l-197 -216
c38.667 -54 107.667 -141.667 207 -263c30.667 -36.667 74 -84.667 130 -144h-120l-295 379v-321v-20c0.666992 -3.33301 1.33398 -6.33301 2.00098 -9v-1v-2l1 -2v-1c2.66699 -5.33301 7 -12.666 13 -21.999l1 -1h-122c0.666992 1.33301 1.33398 2.33301 2.00098 3
c2.66699 4 5 7.66699 7 11c2.66699 4.66699 4.33398 8.66699 5.00098 12c0.666992 0.666992 1 1.33398 1 2.00098v1c0.666992 3.33301 1 6.66602 1 9.99902c0.666992 5.33301 1 11.666 1 18.999v321l-295 -379h-120c56 59.333 99.333 107.333 130 144
c99.333 121.333 168.333 209 207 263l-197 216c-18.667 20 -33.167 34.833 -43.5 44.5s-25.833 19.834 -46.5 30.501h150c-1.33301 -6.66699 -2 -13.667 -2 -21v-7c2 -15.333 12 -33.333 30 -54l187 -208v218z" />
    <glyph glyph-name="afii10025" unicode="&#x417;" horiz-adv-x="484" 
d="M460 206l-0.000976562 -7c0 -67.333 -25.833 -120.5 -77.5 -159.5s-113.5 -58.5 -185.5 -58.5c-72.667 0 -130.334 11 -173.001 33v82c44.667 -36.667 102 -55.667 172 -57c50.667 0 93.334 14.833 128.001 44.5s52 70.5 52 122.5c-0.666992 42.667 -18 77 -52 103
c-38 29.333 -82.333 44 -133 44c-22.667 0 -46 -4.66699 -70 -14v70c18.667 -4.66699 35.334 -7 50.001 -7c64 0 113.667 12 149 36s53 56.333 53 97v3c-1.33301 35.333 -16.166 63.5 -44.499 84.5s-64.5 31.5 -108.5 31.5s-82.667 -10 -116 -30v76
c30.667 10 66.667 15 108 15c67.333 0 121.666 -12 162.999 -36c50 -28.667 75.333 -72 76 -130v-2c0 -74.667 -36 -128 -108 -160l-16 -7l23 -11c70 -28.667 106.667 -83 110 -163z" />
    <glyph glyph-name="afii10026" unicode="&#x418;" horiz-adv-x="738" 
d="M679 59c0 -14.667 1 -26.168 3 -34.501s7 -18.166 15 -29.499h-103c11.333 32 17 59.667 17 83v506l-574 -621l1 662c0 24 -4 47 -12 69h92c-4 -12.667 -7 -24.667 -9 -36s-3 -38 -3 -80v-432l488 547h117c-21.333 -11.333 -32 -29 -32 -53v-581z" />
    <glyph glyph-name="afii10027" unicode="&#x419;" horiz-adv-x="738" 
d="M679 59c0 -14.667 1 -26.168 3 -34.501s7 -18.166 15 -29.499h-103c11.333 32 17 59.667 17 83v506l-574 -621l1 662c0 24 -4 47 -12 69h92c-4 -12.667 -7 -24.667 -9 -36s-3 -38 -3 -80v-432l488 547h117c-21.333 -11.333 -32 -29 -32 -53v-581zM371 641.999h-62l67 107
h97z" />
    <glyph glyph-name="afii10028" unicode="&#x41a;" horiz-adv-x="578" 
d="M48 624c0 28.667 -7.33301 53.001 -22 73.001l129 -1c-6.66699 -10 -11.667 -20.167 -15 -30.5s-5 -29.5 -5 -57.5l-1 -204l189 210c18 20.667 28 38.667 30 54v7c0 7.33301 -0.666992 14.333 -2 21h150c-20.667 -10.667 -36.167 -20.834 -46.5 -30.501
s-24.833 -24.5 -43.5 -44.5l-197 -216c38.667 -54 107.667 -141.667 207 -263c30.667 -36.667 74 -84.667 130 -144h-120l-295 379v-327c0 -8 0.666992 -15.667 2 -23s6.33301 -17 15 -29h-122c6.66699 10 11.167 17.833 13.5 23.5s3.5 17.167 3.5 34.5v568z" />
    <glyph glyph-name="afii10029" unicode="&#x41b;" horiz-adv-x="784" 
d="M620 -4c4 11.333 6.00098 21.333 6.00098 30v8l-10 29l-237 531l-235 -554c-4.66699 -10.667 -7 -18.667 -7 -24c0 -6 1.33301 -12.667 4 -20h-115c13.333 13.333 24.166 25.333 32.499 36s16.5 25.334 24.5 44.001l247 565c2.66699 5.33301 4 13.666 4 24.999v6
c0 7.33301 -0.666992 16 -2 26h95l256 -575c17.333 -38 33 -68 47 -90l27 -37h-137z" />
    <glyph glyph-name="afii10030" unicode="&#x41c;" horiz-adv-x="898" 
d="M799 694c-10.667 -17.333 -16 -31.668 -16 -43.001c0 -12 0.666992 -21.333 2 -28l59 -509c3.33301 -39.333 6.66602 -68.666 9.99902 -87.999c0.666992 -3.33301 6.33398 -13.666 17.001 -30.999h-111c3.33301 15.333 5 27.666 5 36.999c0 8.66699 -1 20 -3 34l-57 530
l-274 -635l-279 611l-36 -498v-10c0 -24 2.33301 -47 7 -69h-97c7.33301 11.333 11.5 18.5 12.5 21.5s3.16699 16.167 6.5 39.5l50 571c0.666992 10 1 18 1 24c0 16 -6.33301 30 -19 42h107l253 -564l242 565h120z" />
    <glyph glyph-name="afii10031" unicode="&#x41d;" horiz-adv-x="636" 
d="M593 60c0 -22 5.33008 -42.668 15.9971 -62.001h-118c8 9.33301 13.333 19.666 16 30.999v334h-375v-280c0 -28.667 1.16699 -47.167 3.5 -55.5s7.5 -18.833 15.5 -31.5h-121c5.33301 8 9.5 15.333 12.5 22s4.5 18.667 4.5 36v575c0 16 -1.66699 28.5 -5 37.5
s-8.66602 18.833 -15.999 29.5h123c-3.33301 -6.66699 -7.16602 -15.667 -11.499 -27s-6.5 -30.333 -6.5 -57v-194h376v204c0 20.667 -1.33301 35.334 -4 44.001s-9 18.334 -19 29.001h124c-5.33301 -11.333 -9.16602 -21.833 -11.499 -31.5s-3.5 -29.5 -3.5 -59.5v-544z
" />
    <glyph glyph-name="afii10032" unicode="&#x41e;" horiz-adv-x="789" 
d="M761 356v-8c0 -100 -35.667 -183.667 -107 -251s-157 -101 -257 -101h-11c-100 3.33301 -184.833 39.833 -254.5 109.5s-104.5 153.167 -104.5 250.5s36.167 180.666 108.5 249.999s157.833 104 256.5 104h11c102 -3.33301 186.667 -39.166 254 -107.499
s102 -150.5 104 -246.5zM674 356c-1.33301 80 -28 148.668 -80 206.001s-117.667 86.666 -197 87.999h-3c-79.333 0 -144.833 -28.5 -196.5 -85.5s-78.167 -125.833 -79.5 -206.5v-6c0 -78 24.667 -145.667 74 -203c52 -58.667 117.333 -89 196 -91h8
c75.333 0 140.5 29.167 195.5 87.5s82.5 128.5 82.5 210.5z" />
    <glyph glyph-name="afii10033" unicode="&#x41f;" horiz-adv-x="636" 
d="M593 60c0 -22 5.33105 -42.666 15.998 -61.999h-118c8 9.33301 13.333 19.666 16 30.999v606h-375v-552c0 -28.667 1.16699 -47.167 3.5 -55.5s7.5 -18.833 15.5 -31.5h-121c5.33301 8 9.5 15.333 12.5 22s4.5 18.667 4.5 36v575c0 16 -1.66699 28.5 -5 37.5
s-8.66602 18.833 -15.999 29.5l582 -1c-5.33301 -11.333 -9.16602 -21.833 -11.499 -31.5s-3.5 -29.5 -3.5 -59.5v-544z" />
    <glyph glyph-name="afii10034" unicode="&#x420;" horiz-adv-x="482" 
d="M131 70c0 -26.667 5 -51.332 15 -73.999h-120c10.667 15.333 16.667 26.666 18 33.999s2 23 2 47v552c0 22 -1 35.833 -3 41.5s-6.66699 14.167 -14 25.5h220c57.333 0 106 -18.333 146 -55c40 -34.667 60 -77.667 60 -129v-5c-2 -54 -22 -97.667 -60 -131
c-37.333 -35.333 -85 -53 -143 -53h-6c-50 2 -88.333 11.333 -115 28v-281zM329 610.002c-24 21.333 -62.667 32.998 -116 34.998h-15c-28.667 0 -51 -3 -67 -9v-256c24 -13.333 49 -20 75 -20h7c47.333 1.33301 84.666 15.333 111.999 42s41 60.334 41 101.001v6
c-1.33301 44.667 -13.666 78.334 -36.999 101.001z" />
    <glyph glyph-name="afii10035" unicode="&#x421;" horiz-adv-x="685" 
d="M616 9c-48.667 -17.333 -115.333 -26.0029 -200 -26.0029c-108 0 -198.667 33 -272 99c-77.333 68 -116.333 154.667 -117 260v3c0 102.667 38.333 188.167 115 256.5s172.667 102.5 288 102.5h3c66.667 -1.33301 124 -11.666 172 -30.999v-74
c-55.333 30.667 -112 46.334 -170 47.001h-9c-88 0 -161.5 -28.833 -220.5 -86.5s-88.833 -130.167 -89.5 -217.5v-6c0 -87.333 30.667 -158.666 92 -213.999c59.333 -52 132.333 -78 219 -78h13c81.333 1.33301 154 24 218 68z" />
    <glyph glyph-name="afii10036" unicode="&#x422;" horiz-adv-x="620" 
d="M363 62c0 -26 5 -47.667 15 -65h-122c4 7.33301 6.83301 14 8.5 20s2.5 20.333 2.5 43v579h-173c-17.333 0 -40 -8 -68 -24l16 81h543l8 -77c-29.333 14.667 -56 22 -80 22h-150v-579z" />
    <glyph glyph-name="afii10037" unicode="&#x423;" horiz-adv-x="746" 
d="M751 694c-9.33301 -10 -17.333 -19.6621 -24 -28.9951c-6.66699 -8.66699 -12 -16.334 -16 -23.001l-302 -504l-67 -141c-4 -10.667 -7.33301 -23 -10 -37h-70l93 197l-311 499c-6 10.667 -11 18.5 -15 23.5s-11.667 10.167 -23 15.5h131
c-4 -4.66699 -6 -9.33398 -6 -14.001s1.66699 -10.334 5 -17.001l258 -419l34 58l203 344c8 13.333 12 22.666 12 27.999s-1.33301 11.666 -4 18.999h112z" />
    <glyph glyph-name="afii10038" unicode="&#x424;" horiz-adv-x="789" 
d="M760 356l-0.000976562 -6c0 -80 -35.667 -147 -107 -201c-60.667 -46 -131.667 -72.333 -213 -79c0.666992 -18.667 1.33398 -31 2.00098 -37c1.33301 -9.33301 6.33301 -21.333 15 -36h-123c12 18 18 38.667 18 62v10c-85.333 8 -159 36.667 -221 86
c-69.333 56 -104 123 -104 201s36 144.667 108 200c62.667 48 134.667 75.333 216 82c-2.66699 20 -9.66699 39 -21 57h129c-10.667 -20.667 -17 -40 -19 -58c85.333 -8 157.333 -35.667 216 -83c67.333 -54.667 102 -120.667 104 -198zM196.999 523
c-51.333 -45.333 -77.666 -100.334 -78.999 -165.001v-5c0 -62.667 24.667 -117 74 -163c44 -40 97.333 -63.667 160 -71v471c-60.667 -7.33301 -112.334 -29.666 -155.001 -66.999zM672.999 355.999c-1.33301 64 -28 119.002 -80 165.002c-42 37.333 -93 60 -153 68v-469
c56.667 7.33301 106.667 29.666 150 66.999c55.333 47.333 83 103.666 83 168.999z" />
    <glyph glyph-name="afii10039" unicode="&#x425;" horiz-adv-x="705" 
d="M546 1c-2 20 -9 39.333 -21 58l-180 246l-183 -267c-8 -10.667 -12 -20 -12 -28c0 -4 0.333008 -8.66699 1 -14h-125c18 17.333 33.667 35.666 47 54.999l228 315l-204 285c-6 10 -13 19 -21 27c-9.33301 8 -17 14.333 -23 19h146c-4 -9.33301 -6 -16.666 -6 -21.999
c0 -11.333 4.66699 -24 14 -38l153 -209l157 225c6 7.33301 9 14.333 9 21s-3.66699 14 -11 22h127c-5.33301 -6 -14.333 -16.667 -27 -32l-215 -293l245 -337l16 -18l17 -15h-132z" />
    <glyph glyph-name="afii10040" unicode="&#x426;" horiz-adv-x="636" 
d="M600 56l36.998 -95.0029c-20.667 17.333 -36.667 28 -48 32c-8.66699 2.66699 -18.334 4.33398 -29.001 5.00098h-8l-522 -2c5.33301 8 9.5 15.333 12.5 22s4.5 18.667 4.5 36v575c0 16 -1.66699 28.5 -5 37.5s-8.66602 18.833 -15.999 29.5h123
c-3.33301 -6.66699 -7.16602 -15.667 -11.499 -27s-6.5 -30.333 -6.5 -57v-555h376v565c0 20.667 -1.33301 35.334 -4 44.001s-9 18.334 -19 29.001h124c-5.33301 -11.333 -9.16602 -21.833 -11.499 -31.5s-3.5 -29.5 -3.5 -59.5v-544v-12z" />
    <glyph glyph-name="afii10041" unicode="&#x427;" horiz-adv-x="630" 
d="M581 59c0 -23.333 6 -44.002 18 -62.002h-123c8.66699 14.667 13.667 26.834 15 36.501s2 37.167 2 82.5v176c-54.667 -44.667 -122 -67 -202 -67h-4c-76 1.33301 -139.667 24.5 -191 69.5s-77 100.5 -77 166.5v168c0 27.333 -3 49.333 -9 66h111
c-8.66699 -17.333 -13 -40 -13 -68v-159c0 -49.333 17 -91 51 -125s76.667 -51.667 128 -53h9c49.333 0 93.333 16.333 132 49c41.333 37.333 62 82.333 62 135v157c0 10.667 -0.666992 20.334 -2 29.001c-3.33301 11.333 -8 23 -14 35h129c-14.667 -22 -22 -45.667 -22 -71
v-565z" />
    <glyph glyph-name="afii10042" unicode="&#x428;" horiz-adv-x="662" 
d="M623 88c0 -30 1.16895 -49.832 3.50195 -59.499s6.16602 -20.167 11.499 -31.5l-366 -1v1l-246 -1c7.33301 10.667 12.666 20.5 15.999 29.5s5 21.5 5 37.5v575c0 17.333 -1.5 29.333 -4.5 36s-7.16699 14 -12.5 22h121c-8 -12.667 -13.167 -23.167 -15.5 -31.5
s-3.5 -26.833 -3.5 -55.5v-552h159v606c-2.66699 11.333 -8 21.666 -16 30.999h2c-0.666992 0.666992 -1 1.33398 -1 2.00098h121c-8 -12.667 -13.167 -23.167 -15.5 -31.5s-3.5 -26.833 -3.5 -55.5v-552h159v606c-2.66699 11.333 -8 21.666 -16 30.999h118
c-10.667 -19.333 -16 -40 -16 -62v-544z" />
    <glyph glyph-name="afii10043" unicode="&#x429;" horiz-adv-x="662" 
d="M623 88l0.000976562 -34.999l3 3l37 -95c-20.667 17.333 -36.667 28 -48 32l-16 4l-327 -1v1l-246 -1c7.33301 10.667 12.666 20.5 15.999 29.5s5 21.5 5 37.5v575c0 17.333 -1.5 29.333 -4.5 36s-7.16699 14 -12.5 22h121c-8 -12.667 -13.167 -23.167 -15.5 -31.5
s-3.5 -26.833 -3.5 -55.5v-552h159v606c-2.66699 11.333 -8 21.666 -16 30.999h2c-0.666992 0.666992 -1 1.33398 -1 2.00098h121c-8 -12.667 -13.167 -23.167 -15.5 -31.5s-3.5 -26.833 -3.5 -55.5v-552h159v606c-2.66699 11.333 -8 21.666 -16 30.999h118
c-10.667 -19.333 -16 -40 -16 -62v-544z" />
    <glyph glyph-name="afii10044" unicode="&#x42a;" horiz-adv-x="738" 
d="M359 62v-8.00098l2 -1h12v5c15.333 -2.66699 34.333 -4 57 -4h16c60.667 2 104.667 15 132 39c26 26 40 64.333 42 115v6c0 46 -15.5 84.167 -46.5 114.5s-73.5 46.166 -127.5 47.499h-7c-26 0 -50.667 -5.66699 -74 -17v33c29.333 15.333 69 24 119 26h7
c65.333 0 119 -20 161 -60c43.333 -37.333 66 -86.666 68 -147.999v-6c0 -58 -22.667 -106.667 -68 -146c-44.667 -41.333 -99.667 -62 -165 -62h-114v1h-1v-1h-119v1h-1c4 7.33301 6.83301 14 8.5 20s2.5 20.333 2.5 43v579h-173c-17.333 0 -40 -8 -68 -24l16 81h212h120
c-7.33301 -17.333 -12 -35.666 -14 -54.999h3v-579zM373 -0.000976562h-1l1 -1v1z" />
    <glyph glyph-name="afii10045" unicode="&#x42b;" horiz-adv-x="686" 
d="M149 0l-1 0.00195312v-4h-119c7.33301 11.333 12 19.833 14 25.5s3 19.5 3 41.5v552c0 24 -0.666992 39.667 -2 47s-7.33301 18.666 -18 33.999h120c-10 -22.667 -15 -47.334 -15 -74.001v-566l1 -1l5 -2h12v5c15.333 -2.66699 34.333 -4 57 -4h16
c60.667 2 104.667 15 132 39c26 26 40 64.333 42 115v6c0 46 -15.5 84.167 -46.5 114.5s-73.5 46.166 -127.5 47.499h-7c-26 0 -50.667 -5.66699 -74 -17v33c29.333 15.333 69 24 119 26h7c65.333 0 119 -20 161 -60c43.333 -37.333 66 -86.666 68 -147.999v-6
c0 -58 -22.667 -106.667 -68 -146c-44.667 -41.333 -99.667 -62 -165 -62h-114v4zM537 624.002c0 25.333 -7.33301 49.001 -22 71.001h129c-12.667 -24.667 -19 -47.667 -19 -69v-510c0 -45.333 0.666992 -72.833 2 -82.5s6.33301 -21.834 15 -36.501h-123
c12 18 18 38.667 18 62v565z" />
    <glyph glyph-name="afii10046" unicode="&#x42c;" horiz-adv-x="514" 
d="M149 0l-1 0.00195312v-4h-119c7.33301 11.333 12 19.833 14 25.5s3 19.5 3 41.5v552c0 24 -0.666992 39.667 -2 47s-7.33301 18.666 -18 33.999h120c-10 -22.667 -15 -47.334 -15 -74.001v-566l1 -1l5 -2h12v5c15.333 -2.66699 34.333 -4 57 -4h16
c60.667 2 104.667 15 132 39c26 26 40 64.333 42 115v6c0 46 -15.5 84.167 -46.5 114.5s-73.5 46.166 -127.5 47.499h-7c-26 0 -50.667 -5.66699 -74 -17v33c29.333 15.333 69 24 119 26h7c65.333 0 119 -20 161 -60c43.333 -37.333 66 -86.666 68 -147.999v-6
c0 -58 -22.667 -106.667 -68 -146c-44.667 -41.333 -99.667 -62 -165 -62h-114v4z" />
    <glyph glyph-name="afii10047" unicode="&#x42d;" horiz-adv-x="685" 
d="M27 112c64 -44 136.668 -66.665 218.001 -67.998h13c86.667 0 159.667 26 219 78c56 50.667 86.667 114.667 92 192h-301v63h300c-8 72 -37.333 132.667 -88 182c-59.333 58 -133 87 -221 87h-9c-58 -0.666992 -114.667 -16.334 -170 -47.001v74
c48 19.333 105.333 29.666 172 30.999h3c115.333 0 211.333 -34.167 288 -102.5s115 -153.833 115 -256.5v-3c-0.666992 -105.333 -39.667 -192 -117 -260c-73.333 -66 -164 -99 -272 -99c-84.667 0 -151.334 8.66699 -200.001 26z" />
    <glyph glyph-name="afii10048" unicode="&#x42e;" horiz-adv-x="1050" 
d="M1026 356l-0.00292969 -8.00098c0 -100 -35.667 -183.667 -107 -251s-157 -101 -257 -101h-11c-100 3.33301 -184.833 39.833 -254.5 109.5s-104.5 153.167 -104.5 250.5v7h-160v-280c0 -28.667 1.16699 -47.167 3.5 -55.5s7.5 -18.833 15.5 -31.5h-121
c5.33301 8 9.5 15.333 12.5 22s4.5 18.667 4.5 36v575c0 16 -1.66699 28.5 -5 37.5s-8.66602 18.833 -15.999 29.5h123c-3.33301 -6.66699 -7.16602 -15.667 -11.499 -27s-6.5 -30.333 -6.5 -57v-194h166c12.667 71.333 47 134 103 188
c72.667 69.333 158.334 104 257.001 104h11c102 -3.33301 186.667 -39.166 254 -107.499s102 -150.5 104 -246.5zM938.997 355.999c-1.33301 80 -28 148.668 -80 206.001s-117.667 86.666 -197 87.999h-3c-79.333 0 -144.833 -28.5 -196.5 -85.5
s-78.167 -125.833 -79.5 -206.5v-6c0 -78 24.667 -145.667 74 -203c52 -58.667 117.333 -89 196 -91h8c75.333 0 140.5 29.167 195.5 87.5s82.5 128.5 82.5 210.5z" />
    <glyph glyph-name="afii10049" unicode="&#x42f;" horiz-adv-x="591" 
d="M386 651c-83.333 -4 -127.668 -43.667 -133.001 -119v-10c0 -33.333 12 -61 36 -83c30.667 -26.667 77.667 -40 141 -40c10.667 0 19.334 0.333008 26.001 1v239c-18 8 -41.333 12 -70 12zM25.998 -5c15.333 11.333 29.002 22.167 41.002 32.5s31.333 32.5 58 66.5
l170 211c14.667 18 28.167 32.667 40.5 44s18.5 17.333 18.5 18c-0.666992 0 -1.33398 -0.333008 -2.00098 -1h-17c-42 0 -79 14.667 -111 44c-38 33.333 -57.667 74.666 -59 123.999v5c0 46.667 17.167 84.667 51.5 114s76.833 44 127.5 44h220
c-8 -15.333 -13.333 -29.666 -16 -42.999s-4 -31.666 -4 -54.999v-499c0 -38 0.666992 -60.833 2 -68.5s5.66602 -18.834 12.999 -33.501h-116c6.66699 18 10.667 30.167 12 36.5s2 18.5 2 36.5v313l-2 -2l-19 -21l-287 -366h-123z" />
    <glyph glyph-name="afii10065" unicode="&#x430;" horiz-adv-x="452" 
d="M406 71c0 -26.667 6 -50.333 18 -71h-92v48c-28 -38.667 -71 -58 -129 -58c-55.333 0 -98.666 13.167 -129.999 39.5s-47 60.833 -47 103.5c0 46 14.167 80.667 42.5 104s63.833 38.333 106.5 45l90 14c43.333 7.33301 65 27.333 65 60c0 24 -10.333 44 -31 60
s-51.667 24 -93 24c-48 0 -93.333 -15.333 -136 -46v71c42 19.333 88 29 138 29c75.333 0 127.166 -14 155.499 -42s42.5 -68 42.5 -120v-261zM334 270.001c-12.667 -14 -54.001 -26.332 -124.001 -36.999c-74 -12 -111 -45.667 -111 -101
c0 -26.667 9.33301 -48.834 28 -66.501s45.334 -26.5 80.001 -26.5c34.667 0.666992 64.5 13 89.5 37s37.5 55 37.5 93v101z" />
    <glyph glyph-name="afii10066" unicode="&#x431;" horiz-adv-x="542" 
d="M514 236c-1.33301 -68 -25.6631 -125.83 -72.9961 -173.497s-104.333 -71.5 -171 -71.5h-3c-66.667 1.33301 -123.334 26.666 -170.001 75.999s-70 108 -70 176s24 126.333 72 175l5 6h-1c-15.333 0.666992 -30 4.66699 -44 12s-24.667 18 -32 32
c-4.66699 10 -7.5 22.333 -8.5 37s-0.5 29.334 1.5 44.001s5.66699 28.667 11 42s12.666 23.666 21.999 30.999c6 5.33301 13.667 7.83301 23 7.5s17.333 -0.5 24 -0.5c23.333 4.66699 43.833 8.33398 61.5 11.001s34.667 4.5 51 5.5s33.666 1.16699 51.999 0.5
s39.5 -2 63.5 -4c4.66699 -0.666992 14.834 -1.66699 30.501 -3s30.5 -2 44.5 -2c-2 8.66699 1 15.667 9 21v4c0.666992 1.33301 1.16699 4 1.5 8s0.5 6.33301 0.5 7c2 8 5.5 14 10.5 18s10.833 7 17.5 9c5.33301 7.33301 12.5 10 21.5 8s14.167 -8.66699 15.5 -20
c0 -22.667 -1.83301 -40.5 -5.5 -53.5s-9.83398 -22.5 -18.501 -28.5s-20.5 -9.5 -35.5 -10.5s-33.833 -0.833008 -56.5 0.5c-23.333 1.33301 -46.666 3.33301 -69.999 6s-47 3.66699 -71 3c-19.333 0 -38.333 -2.33301 -57 -7s-37.667 -8.66699 -57 -12
c-2.66699 -0.666992 -5.16699 -1 -7.5 -1h-6.5c0 -0.666992 0.166992 -1.33398 0.5 -2.00098s0.5 -1.66699 0.5 -3c-0.666992 -16 -1.83398 -30 -3.50098 -42s-1.66699 -22.333 0 -31s6.5 -15.334 14.5 -20.001s21.667 -7.33398 41 -8.00098c10 -2 16 -7 18 -15
c32 16 66.667 24 104 24h5c67.333 -1.33301 124.166 -26.833 170.499 -76.5s69.5 -107.5 69.5 -173.5v-6zM434.003 241.003c0 50 -15.332 94.1699 -45.999 132.503s-69.334 58.833 -116.001 61.5h-5c-44.667 0 -82.334 -19 -113.001 -57
c-30.667 -38.667 -46 -84.334 -46 -137.001c0 -0.666992 0.333008 -1.33398 1 -2.00098c0 -53.333 15.5 -98.833 46.5 -136.5s69.167 -56.5 114.5 -56.5c44.667 0 82.834 18.667 114.501 56s48.167 81.666 49.5 132.999v6z" />
    <glyph glyph-name="afii10067" unicode="&#x432;" horiz-adv-x="425" 
d="M48 436c0 14.667 -7.33203 31.001 -21.999 49.001h185c39.333 0 72.666 -11.667 99.999 -35s42.333 -51 45 -83v-3c0 -38.667 -22 -68.334 -66 -89.001l-21 -11l21 -5c70 -19.333 105 -59 105 -119c0 -43.333 -17.833 -77.5 -53.5 -102.5s-84.5 -37.5 -146.5 -37.5h-163
c10.667 13.333 16 27 16 41v395zM254.001 427.001c-20 14.667 -47.333 22 -82 22h-53v-171h48c40 0 69.833 7.66699 89.5 23s29.5 36 29.5 62v4c-1.33301 25.333 -12 45.333 -32 60zM169.001 243.001c-20.667 0 -36.333 -1 -47 -3v-203c13.333 -4 24.666 -6 33.999 -6
c50.667 0 91.167 9.66699 121.5 29s45.5 45 45.5 77v3c-1.33301 66 -52.666 100.333 -153.999 103z" />
    <glyph glyph-name="afii10068" unicode="&#x433;" horiz-adv-x="405" 
d="M42 444c0 12.667 -0.999023 21 -2.99902 25s-5.33301 9.33301 -10 16h325l29 -66c-16 12 -28.333 19.167 -37 21.5s-18.334 3.5 -29.001 3.5l-208 1v-386c0 -21.333 0.833008 -35 2.5 -41s4.5 -12.667 8.5 -20h-94c10.667 13.333 16 29.333 16 48v398z" />
    <glyph glyph-name="afii10069" unicode="&#x434;" horiz-adv-x="530" 
d="M76 -89c49.333 -49.333 106.001 -73.999 170.001 -73.999c55.333 0 94.166 12.833 116.499 38.5s33.5 56.167 33.5 91.5v75c-38 -39.333 -89 -59 -153 -59s-116 25 -156 75s-60 110 -60 180v4c1.33301 72 21.5 133.5 60.5 184.5s93.167 76.833 162.5 77.5
c47.333 0 92 -16.667 134 -50l12 -9v44h107c-8.66699 -13.333 -14.167 -24.833 -16.5 -34.5s-3.5 -28.834 -3.5 -57.501v-388c0 -72.667 -19 -128.667 -57 -168s-91.667 -59 -161 -59c-79.333 0 -146 25 -200 75zM401.001 307.001c0 40 -14.8311 73.1641 -44.498 99.4971
s-64.834 39.5 -105.501 39.5s-74.334 -19.333 -101.001 -58s-40 -86.667 -40 -144v-4c0 -59.333 13.667 -107.666 41 -144.999s64 -56.666 110 -57.999h5c40 0 72.5 14.833 97.5 44.5s37.5 66.834 37.5 111.501v114z" />
    <glyph glyph-name="afii10070" unicode="&#x435;" 
d="M110 270c-1.33301 -18 -2.00098 -33.667 -2.00098 -47c0 -48.667 15.333 -91.167 46 -127.5s75 -54.5 133 -54.5c61.333 0 111.666 16.667 150.999 50l-10 -69c-38 -22.667 -85.667 -34 -143 -34c-78 0 -140.5 23.5 -187.5 70.5s-70.5 109.833 -70.5 188.5
c0 70 20.833 127.833 62.5 173.5s92.834 68.5 153.501 68.5h5c58.667 -0.666992 106.334 -21.5 143.001 -62.5s55.667 -93.167 57 -156.5h-338zM371.999 323c-14 74.667 -54.667 112 -122 112h-3c-30 0 -56.667 -9.83301 -80 -29.5s-38.333 -47.167 -45 -82.5h250z" />
    <glyph glyph-name="afii10072" unicode="&#x436;" horiz-adv-x="777" 
d="M646 -4l-214.002 229v-152c0 -28.667 1.5 -46.5 4.5 -53.5s7.83301 -14.5 14.5 -22.5h-121c6.66699 8 11.5 15.5 14.5 22.5s4.5 24.833 4.5 53.5v152l-214 -229h-109l43 38c12.667 10.667 26.667 24.334 42 41.001l182 194l-251 217h123
c-12 -14.667 -10.333 -28.667 5 -42l181 -149v321c-1.33301 22 -4 38.333 -8 49c-1.33301 4 -4.66602 9.33301 -9.99902 16l18 2v11l39 -6l40 6v-11l18 -2c-5.33301 -6.66699 -8.66602 -12 -9.99902 -16c-4 -10.667 -6.66699 -27 -8 -49v-321l181 149
c15.333 13.333 17 27.333 5 42h123l-251 -217l182 -194c15.333 -16.667 29.333 -30.334 42 -41.001l43 -38h-109z" />
    <glyph glyph-name="afii10073" unicode="&#x437;" horiz-adv-x="407" 
d="M379 139l-0.00195312 -5.00391c0 -47.333 -21 -84.666 -63 -111.999s-92.333 -41 -151 -41c-59.333 0 -106.333 7.66699 -141 23v58c36.667 -26 83.334 -39.333 140.001 -40c41.333 0 76.166 10.333 104.499 31s42.5 49.334 42.5 86.001
c-0.666992 29.333 -15 53.333 -43 72c-30.667 20.667 -66.667 31 -108 31c-18.667 0 -37.667 -3.33301 -57 -10v49c15.333 -3.33301 29 -5 41 -5c52 0 92.333 8.33301 121 25s43 39.334 43 68.001v2c-0.666992 24.667 -12.667 44.334 -36 59.001s-52.666 22 -87.999 22
c-36 0 -67.667 -7 -95 -21v53c25.333 7.33301 54.666 11 87.999 11c54.667 0 99 -8.33301 133 -25c40.667 -20 61.334 -50.333 62.001 -91v-2c0 -52 -29.333 -89.333 -88 -112l-13 -5l19 -7c56.667 -20 86.334 -58 89.001 -114z" />
    <glyph glyph-name="afii10074" unicode="&#x438;" horiz-adv-x="495" 
d="M366 428c0 18.667 -5.66602 35.667 -16.999 51l98 13v-425c0 -22 1.16699 -35.833 3.5 -41.5s8.16602 -14.167 17.499 -25.5h-100v48c-31.333 -38.667 -75 -58 -131 -58s-102 16.333 -138 49s-54 78.334 -54 137.001v248c0 26 -6.33301 44.333 -19 55l97 10v-322
c0 -38.667 11.333 -69.334 34 -92.001s50.334 -34 83.001 -34h3c33.333 0 62.166 11.333 86.499 34s36.5 52 36.5 88v265z" />
    <glyph glyph-name="afii10075" unicode="&#x439;" horiz-adv-x="496" 
d="M369 -3l-0.00195312 50.998c-31.333 -38.667 -75 -58 -131 -58h-14c-51.333 2.66699 -92.666 17.334 -123.999 44.001c-36 29.333 -54 70 -54 122v268c0 26 -6.66699 44.333 -20 55l97 10v-292c0 -45.333 9.66699 -82.666 29 -111.999s49 -44 89 -44h3
c32.667 0 61.167 11.333 85.5 34s36.5 52 36.5 88v265c0 8.66699 -1.66699 19 -5 31l-11 20l98 13v-428c0 -22 1.33301 -36.333 4 -43s8.33398 -14.667 17.001 -24h-100zM241.998 549.998h-62l67 107h97z" />
    <glyph glyph-name="afii10076" unicode="&#x43a;" 
d="M339 -4l-214.001 229.001v-152c0 -28.667 1.5 -46.5 4.5 -53.5s7.83301 -14.5 14.5 -22.5h-113c6 14 9.83301 25.167 11.5 33.5s2.5 22.833 2.5 43.5v304c0 44 -3 74 -9 90c-1.33301 4 -4.66602 9.33301 -9.99902 16l97 13v-202l181 149c15.333 13.333 17 27.333 5 42
h123l-251 -217l182 -194c15.333 -16.667 29.333 -30.334 42 -41.001l43 -38h-109z" />
    <glyph glyph-name="afii10077" unicode="&#x43b;" horiz-adv-x="545" 
d="M143 81c-6 -16.667 -9 -30 -9 -40c0 -9.33301 4 -23 12 -41h-120c12 12 21 22.667 27 32s12.667 22.666 20 39.999l195 451l213 -474c10 -20 22.333 -36.333 37 -49h-141c10.667 9.33301 16 18 16 26c0.666992 0.666992 1 1.33398 1 2.00098c0 8.66699 -2.66699 21 -8 37
l-125 310z" />
    <glyph glyph-name="afii10078" unicode="&#x43c;" horiz-adv-x="695" 
d="M632 487c-8.66699 -12 -13.002 -22.3311 -13.002 -30.998s0.666992 -15.334 2 -20.001l46 -365c2.66699 -28 5.33398 -49 8.00098 -63c0 -2.66699 4.33301 -10.334 13 -23.001h-87c2.66699 11.333 4 20.333 4 27c0 6 -0.666992 14.333 -2 25l-45 380l-215 -456l-218 439
l-28 -358v-7c0 -17.333 1.66699 -34 5 -50h-76c6 8.66699 9.33301 14 10 16s2.33398 11.333 5.00098 28l39 410c0.666992 7.33301 1 13 1 17c0 12 -5 22.333 -15 31h84l198 -405l190 405h94z" />
    <glyph glyph-name="afii10079" unicode="&#x43d;" horiz-adv-x="462" 
d="M38 0c8 12 12 28.6631 12 49.9961v379c0 16.667 -1.5 28.834 -4.5 36.501s-7.83301 14.834 -14.5 21.501l98 9v-211h218v144c0 16.667 -1.5 28.834 -4.5 36.501s-7.83301 14.834 -14.5 21.501l98 9v-444c0 -22.667 5 -40 15 -52h-106c8 12 12 28.667 12 50v197h-218v-195
c0 -22.667 5 -40 15 -52h-106z" />
    <glyph glyph-name="afii10080" unicode="&#x43e;" horiz-adv-x="542" 
d="M514 236c-1.33301 -68 -25.665 -125.832 -72.998 -173.499s-104.333 -71.5 -171 -71.5h-3c-66.667 1.33301 -123.334 26.666 -170.001 75.999s-70 108 -70 176s24 126.5 72 175.5s104.667 73.5 170 73.5h5c67.333 -1.33301 124.166 -26.833 170.499 -76.5
s69.5 -107.5 69.5 -173.5v-6zM434.001 235.001l0.000976562 6.00293c0 50 -15.333 94.167 -46 132.5s-69.334 58.833 -116.001 61.5h-5c-44.667 0 -82.334 -19 -113.001 -57c-30.667 -38.667 -46 -84.334 -46 -137.001c0 -0.666992 0.333008 -1.33398 1 -2.00098
c0 -53.333 15.5 -98.833 46.5 -136.5s69.167 -56.5 114.5 -56.5c44.667 0 82.834 18.667 114.501 56s48.167 81.666 49.5 132.999z" />
    <glyph glyph-name="afii10081" unicode="&#x43f;" horiz-adv-x="490" 
d="M444 69c0 -31.333 6.33301 -55.3291 19 -71.9961h-112c9.33301 13.333 14.333 23.666 15 30.999v274c0 47.333 -11 82.5 -33 105.5s-51.667 34.5 -89 34.5c-40.667 0 -71.667 -12.333 -93 -37s-32 -58.334 -32 -101.001v-231c0 -28 6 -53.333 18 -76h-110
c9.33301 15.333 14 29.666 14 42.999v382c0 15.333 -5 34.666 -15 57.999l92 4l-1 -43c30 34 74.667 52 134 54h11c48 0 90.333 -16.833 127 -50.5s55 -79.167 55 -136.5v-239z" />
    <glyph glyph-name="afii10082" unicode="&#x440;" horiz-adv-x="540" 
d="M278 43c48 0 84.833 18.5 110.5 55.5s38.5 85.5 38.5 145.5s-13.167 108.833 -39.5 146.5s-63.5 56.5 -111.5 56.5c-43.333 0 -80 -18 -110 -54s-45 -86.333 -45 -151c0 -58 13.167 -105.667 39.5 -143s65.5 -56 117.5 -56zM48 -189l0.000976562 616.001
c0 23.333 -6 41.666 -18 54.999l98 13v-63c41.333 45.333 92.333 68 153 68c71.333 -0.666992 126.666 -25.5 165.999 -74.5s59 -108.833 59 -179.5v-2c-0.666992 -71.333 -20.667 -130.833 -60 -178.5s-95 -72.167 -167 -73.5c-62 0 -114 22.333 -156 67v-248h-75z" />
    <glyph glyph-name="afii10083" unicode="&#x441;" horiz-adv-x="469" 
d="M428 14c-30.667 -14.667 -75.667 -21.999 -135 -21.999c-81.333 0 -146 23.667 -194 71s-72 107.333 -72 180c0 67.333 23.833 125.333 71.5 174s111.5 73 191.5 73c45.333 0 88 -7.33301 128 -22v-66c-34 24 -76.667 36 -128 36c-54.667 0 -99 -18.333 -133 -55
s-51 -85.334 -51 -146.001c0 -59.333 17.833 -106.333 53.5 -141s82.5 -52 140.5 -52c51.333 0 98.333 14.667 141 44z" />
    <glyph glyph-name="afii10084" unicode="&#x442;" horiz-adv-x="502" 
d="M297 42c0 -18 4 -33 12 -45h-98c3.33301 5.33301 5.66602 10 6.99902 14s2 14 2 30v405h-139c-14 0 -32.333 -5.66699 -55 -17l13 57h437l6 -54c-23.333 10 -44.666 15 -63.999 15h-121v-405z" />
    <glyph glyph-name="afii10085" unicode="&#x443;" horiz-adv-x="505" 
d="M478 483c-25.333 -22.667 -42 -46 -50 -70l-220 -568c-4 -13.333 -7 -28.333 -9 -45h-69l98 258l-163 363c-8.66699 22 -21.667 42.667 -39 62h109c-2 -9.33301 -3 -17.333 -3 -24c0 -7.33301 4.66699 -23 14 -47l118 -275l101 284c2.66699 8 4 16.333 4 25v5
c-0.666992 9.33301 -4 20 -10 32h119z" />
    <glyph glyph-name="afii10086" unicode="&#x444;" horiz-adv-x="893" 
d="M412 -189l0.00195312 184h-14c7.33301 18 12 32 14 42v22c-42 -44.667 -94 -67 -156 -67c-72 1.33301 -127.667 25.833 -167 73.5s-59.333 107.167 -60 178.5v2c0 70.667 19.667 130.5 59 179.5s94.666 73.833 165.999 74.5c60.667 0 111.667 -22.667 153 -68v35
c-2.66699 5.33301 -6 10.333 -10 15l10 1v12l8 -1v91c0 44.667 -6.66699 78.667 -20 102l100 7l-1 -199h1v-12l10 -1c-4 -4.66699 -7.33301 -9.66699 -10 -15v-35c41.333 45.333 92.333 68 153 68c71.333 -0.666992 126.666 -25.5 165.999 -74.5s59 -108.833 59 -179.5v-2
c-0.666992 -71.333 -20.667 -130.833 -60 -178.5s-95 -72.167 -167 -73.5c-59.333 0 -109.333 20 -150 60c2.66699 -19.333 8 -38.333 16 -57h-22v-184h-78zM257.002 43c52 0 91.167 18.667 117.5 56s39.5 85 39.5 143c0 64.667 -15 115 -45 151s-66.667 54 -110 54
c-48 0 -85.167 -18.833 -111.5 -56.5s-39.5 -86.5 -39.5 -146.5s12.833 -108.5 38.5 -145.5s62.5 -55.5 110.5 -55.5zM645.002 43c48 0 84.833 18.5 110.5 55.5s38.5 85.5 38.5 145.5s-13.167 108.833 -39.5 146.5s-63.5 56.5 -111.5 56.5c-43.333 0 -80 -18 -110 -54
c-18.667 -22.667 -31.667 -51 -39 -85v-131c6 -30 17 -56 33 -78c26.667 -37.333 66 -56 118 -56z" />
    <glyph glyph-name="afii10087" unicode="&#x445;" horiz-adv-x="555" 
d="M390 0c1.33301 7.33301 1.99902 13.3359 1.99902 18.0029c0 9.33301 -3.66699 19.666 -11 30.999l-119 157l-96 -139c-11.333 -18 -17 -32.333 -17 -43v-4l3 -20h-126c26 18.667 46 39.667 60 63l139 192l-127 173c-9.33301 13.333 -17.666 23.666 -24.999 30.999
s-18 15.666 -32 24.999h125c0 -11.333 1.33301 -19.833 4 -25.5s7.66699 -13.167 15 -22.5l95 -131l78 121c8 12 12 23.333 12 34v5c0 6 -2.66699 13.667 -8 23h122l-22 -25c-10.667 -12 -17.667 -20.667 -21 -26l-124 -182l159 -213c10 -14 27.333 -28 52 -42h-138z" />
    <glyph glyph-name="afii10088" unicode="&#x446;" horiz-adv-x="525" 
d="M425 0h-57v48c-31.333 -38.667 -75 -58 -131 -58s-102 16.333 -138 49s-54 78.334 -54 137.001v248c0 26 -6.33301 44.333 -19 55l97 10v-322c0 -38.667 11.333 -69.334 34 -92.001s50.334 -34 83.001 -34h3c33.333 0 62.166 11.333 86.499 34s36.5 52 36.5 88v265
c0 18.667 -5.66699 35.667 -17 51l98 13v-400h55v-169h-77v77z" />
    <glyph glyph-name="afii10089" unicode="&#x447;" horiz-adv-x="495" 
d="M366 428c0 18.667 -5.66602 35.667 -16.999 51l98 13v-425c0 -22 1.16699 -35.833 3.5 -41.5s8.16602 -14.167 17.499 -25.5h-100v213c-31.333 -38.667 -75 -58 -131 -58s-102 16.333 -138 49s-54 78.334 -54 137.001v83c0 26 -6.33301 44.333 -19 55l97 10v-157
c0 -38.667 11.333 -69.334 34 -92.001s50.334 -34 83.001 -34h3c33.333 0 62.166 11.333 86.499 34s36.5 52 36.5 88v100z" />
    <glyph glyph-name="afii10090" unicode="&#x448;" horiz-adv-x="759" 
d="M42 412c0 30 -5.33203 54.666 -15.999 73.999h114c-8.66699 -13.333 -14.334 -24 -17.001 -32s-4 -24 -4 -48v-260c0 -30 11.333 -54.167 34 -72.5s48 -27.5 76 -27.5h3c26.667 0 51.167 9 73.5 27s33.5 41.667 33.5 71v268c0 18.667 -1 32.5 -3 41.5s-7 19.833 -15 32.5
h113c-8.66699 -15.333 -13.5 -27 -14.5 -35s-1.5 -21.333 -1.5 -40v-267c0 -29.333 10.333 -53.666 31 -72.999s44.667 -29.666 72 -30.999h2c30 0 55.5 12.167 76.5 36.5s31.5 53.833 31.5 88.5v257c0 16 -1.66699 29 -5 39l-11 25h111
c-8.66699 -12.667 -13 -27.334 -13 -44.001v-384c0 -14.667 6.33301 -33 19 -55l-98 -8v44c-32 -38 -75.667 -57 -131 -57h-2c-56.667 0 -102.667 21 -138 63l-11 -9c-30 -28.667 -70.667 -44.667 -122 -48h-13c-52.667 0 -95 14.833 -127 44.5s-48 69.5 -48 119.5v260z" />
    <glyph glyph-name="afii10091" unicode="&#x449;" horiz-adv-x="773" 
d="M670 -2l-35.999 -3.00098v44c-32 -38 -75.667 -57 -131 -57h-2c-56.667 0 -102.667 21 -138 63l-11 -9c-30 -28.667 -70.667 -44.667 -122 -48h-13c-52.667 0 -95 14.833 -127 44.5s-48 69.5 -48 119.5v260c0 30 -5.33301 54.667 -16 74h114
c-8.66699 -13.333 -14.334 -24 -17.001 -32s-4 -24 -4 -48v-260c0 -30 11.333 -54.167 34 -72.5s48 -27.5 76 -27.5h3c26.667 0 51.167 9 73.5 27s33.5 41.667 33.5 71v268c0 18.667 -1 32.5 -3 41.5s-7 19.833 -15 32.5h113c-8.66699 -15.333 -13.5 -27 -14.5 -35
s-1.5 -21.333 -1.5 -40v-267c0 -29.333 10.333 -53.666 31 -72.999s44.667 -29.666 72 -30.999h2c30 0 55.5 12.167 76.5 36.5s31.5 53.833 31.5 88.5v257c0 16 -1.66699 29 -5 39l-11 25h111c-8.66699 -12.667 -13 -27.334 -13 -44.001v-355h31v-148h-74v59z" />
    <glyph glyph-name="afii10092" unicode="&#x44a;" horiz-adv-x="605" 
d="M173 417l0.000976562 11h-86c-17.333 0 -40 -8 -68 -24l16 81h121l-3 3l87 6v-9h5l-5 -13v-167c34 27.333 79.333 41 136 41c65.333 0 116.333 -17.5 153 -52.5s55 -77.167 55 -126.5c0 -48.667 -18.667 -90 -56 -124s-84 -51 -140 -51
c-60.667 0 -108.334 14 -143.001 42v-34h-91c12.667 18 19 39 19 63v354zM243.001 209l0.000976562 -81c0 -32 13.167 -56.833 39.5 -74.5s56.166 -26.5 89.499 -26.5c39.333 0 72.833 12.167 100.5 36.5s41.5 58.833 41.5 103.5c0 49.333 -14 85.833 -42 109.5
s-60 35.5 -96 35.5c-32.667 0 -63 -9.66699 -91 -29s-42 -44 -42 -74z" />
    <glyph glyph-name="afii10093" unicode="&#x44b;" horiz-adv-x="612" 
d="M122 209l0.000976562 -81c0 -32 13.167 -56.833 39.5 -74.5s56.166 -26.5 89.499 -26.5c39.333 0 72.833 12.167 100.5 36.5s41.5 58.833 41.5 103.5c0 49.333 -14 85.833 -42 109.5s-60 35.5 -96 35.5c-32.667 0 -63 -9.66699 -91 -29s-42 -44 -42 -74zM52.001 417
c0 26 -2.66602 44 -7.99902 54c0 4 -4 9.66699 -12 17l87 6v-189c34 27.333 79.333 41 136 41c65.333 0 116.333 -17.5 153 -52.5s55 -77.167 55 -126.5c0 -48.667 -18.667 -90 -56 -124s-84 -51 -140 -51c-60.667 0 -108.334 14 -143.001 42v-34h-91c12.667 18 19 39 19 63
v354zM487.002 0c8 12 12 28.665 12 49.998v379c0 16.667 -1.5 28.834 -4.5 36.501s-7.83301 14.834 -14.5 21.501l98 9v-444c0 -22.667 5 -40 15 -52h-106z" />
    <glyph glyph-name="afii10094" unicode="&#x44c;" horiz-adv-x="484" 
d="M122 209l0.000976562 -81c0 -32 13.167 -56.833 39.5 -74.5s56.166 -26.5 89.499 -26.5c39.333 0 72.833 12.167 100.5 36.5s41.5 58.833 41.5 103.5c0 49.333 -14 85.833 -42 109.5s-60 35.5 -96 35.5c-32.667 0 -63 -9.66699 -91 -29s-42 -44 -42 -74zM52.001 417
c0 26 -2.66602 44 -7.99902 54c0 4 -4 9.66699 -12 17l87 6v-189c34 27.333 79.333 41 136 41c65.333 0 116.333 -17.5 153 -52.5s55 -77.167 55 -126.5c0 -48.667 -18.667 -90 -56 -124s-84 -51 -140 -51c-60.667 0 -108.334 14 -143.001 42v-34h-91c12.667 18 19 39 19 63
v354z" />
    <glyph glyph-name="afii10095" unicode="&#x44d;" horiz-adv-x="469" 
d="M144 269h215.999c-5.33301 46 -21.666 84 -48.999 114c-34 36.667 -78.333 55 -133 55c-51.333 0 -94 -12 -128 -36v66c40 14.667 82.667 22 128 22c80 0 143.833 -24.333 191.5 -73s71.5 -106.667 71.5 -174c0 -72.667 -24 -132.667 -72 -180s-112.667 -71 -194 -71
c-59.333 0 -104.333 7.33301 -135 22l-13 74c42.667 -29.333 89.667 -44 141 -44c58 0 104.667 17.333 140 52c34.667 33.333 52.667 78 54 134h-218v39z" />
    <glyph glyph-name="afii10096" unicode="&#x44e;" horiz-adv-x="708" 
d="M38 0c8 12 12.001 28.666 12.001 49.999v379c0 16.667 -1.5 28.834 -4.5 36.501s-7.83301 14.834 -14.5 21.501l98 9v-233h64c4.66699 59.333 28.667 111 72 155c48 49.333 104.667 74 170 74h5c67.333 -1.33301 124.166 -26.833 170.499 -76.5s69.5 -107.5 69.5 -173.5
v-6c-1.33301 -68 -25.666 -125.833 -72.999 -173.5s-104.333 -71.5 -171 -71.5h-3c-66.667 1.33301 -123.334 26.666 -170.001 75.999c-42 44 -65.333 95.667 -70 155h-64v-170c0 -22.667 5 -40 15 -52h-106zM600.001 240.999c0 50 -15.332 94.1699 -45.999 132.503
s-69.334 58.833 -116.001 61.5h-5c-44.667 0 -82.334 -19 -113.001 -57c-30.667 -38.667 -46 -84.334 -46 -137.001c0 -0.666992 0.333008 -1.33398 1 -2.00098c0 -53.333 15.5 -98.833 46.5 -136.5s69.167 -56.5 114.5 -56.5c44.667 0 82.834 18.667 114.501 56
s48.167 81.666 49.5 132.999v6z" />
    <glyph glyph-name="afii10097" unicode="&#x44f;" horiz-adv-x="544" 
d="M352 454c-75.333 -2.66699 -115.667 -30.333 -121 -83v-7c0 -23.333 11 -43 33 -59c28 -18 70.667 -27 128 -27h23v168c-16 5.33301 -37 8 -63 8zM25.999 -0.999023c14 8 26.333 15.6689 37 23.002s28.334 22.666 53.001 45.999l153 144
c13.333 12.667 25.666 23 36.999 31s17 12.333 17 13c-0.666992 0 -1.33398 -0.333008 -2.00098 -1h-15c-38 0 -71.667 10 -101 30c-34 23.333 -51.667 52.333 -53 87v3c0 33.333 15.5 60.166 46.5 80.499s69.5 30.5 115.5 30.5h199
c-7.33301 -10.667 -12.166 -20.667 -14.499 -30s-3.5 -22 -3.5 -38v-347c0 -26.667 0.5 -42.667 1.5 -48s4.83301 -13.333 11.5 -24h-105c6 12.667 9.66699 21.167 11 25.5s2 12.833 2 25.5v218l-2 -2l-17 -14l-260 -253h-111z" />
    <glyph glyph-name="afii10071" unicode="&#x451;" 
d="M110 270c-1.33301 -18 -2.00098 -33.667 -2.00098 -47c0 -48.667 15.333 -91.167 46 -127.5s75 -54.5 133 -54.5c61.333 0 111.666 16.667 150.999 50l-10 -69c-38 -22.667 -85.667 -34 -143 -34c-78 0 -140.5 23.5 -187.5 70.5s-70.5 109.833 -70.5 188.5
c0 70 20.833 127.833 62.5 173.5s92.834 68.5 153.501 68.5h5c58.667 -0.666992 106.334 -21.5 143.001 -62.5s55.667 -93.167 57 -156.5h-338zM371.999 323c-14 74.667 -54.667 112 -122 112h-3c-30 0 -56.667 -9.83301 -80 -29.5s-38.333 -47.167 -45 -82.5h250z
M293.999 542v98h95v-98h-95zM85.999 542v98h95v-98h-95z" />
    <glyph glyph-name="afii10103" unicode="&#x456;" horiz-adv-x="166" 
d="M38 0c8 12 12 28.665 12 49.998v379c0 16.667 -1.5 28.834 -4.5 36.501s-7.83301 14.834 -14.5 21.501l98 9v-444c0 -22.667 5 -40 15 -52h-106zM86 594.998c-14 0 -25.833 4.83301 -35.5 14.5s-14.5 21.5 -14.5 35.5c0 13.333 4.83301 24.833 14.5 34.5
s21.5 14.5 35.5 14.5c13.333 0 24.833 -4.83301 34.5 -14.5s14.5 -21.167 14.5 -34.5c0 -14 -4.83301 -25.833 -14.5 -35.5s-21.167 -14.5 -34.5 -14.5z" />
    <glyph glyph-name="afii10146" unicode="&#x462;" horiz-adv-x="728" 
d="M346 62v-6.99805l5 -2h12v5c15.333 -2.66699 34.333 -4 57 -4h16c60.667 2 104.667 15 132 39c26 26 40 64.333 42 115v6c0 46 -15.5 84.167 -46.5 114.5s-73.5 46.166 -127.5 47.499h-7c-26 0 -50.667 -5.66699 -74 -17v33c29.333 15.333 69 24 119 26h7
c65.333 0 119 -20 161 -60c43.333 -37.333 66 -86.666 68 -147.999v-6c0 -58 -22.667 -106.667 -68 -146c-44.667 -41.333 -99.667 -62 -165 -62h-114v4h-1v-4h-119v1h-4c4 7.33301 6.83301 14 8.5 20s2.5 20.333 2.5 43v431h-173c-17.333 0 -40 -8 -68 -24l16 81h235v67
c0 24 -0.666992 39.667 -2 47s-7.33301 18.666 -18 33.999h120c-10 -22.667 -15 -47.334 -15 -74.001v-74h223l8 -77c-29.333 14.667 -56 22 -80 22h-150v-431z" />
    <glyph glyph-name="afii10194" unicode="&#x463;" horiz-adv-x="809" 
d="M369 471c0 4 -3.99902 9.66992 -11.999 17.0029l87 6v-138c3.33301 -14.667 5 -30.334 5 -47.001c33.333 24.667 77 37 131 37c65.333 0 116.333 -17.5 153 -52.5s55 -77.167 55 -126.5c0 -48.667 -18.667 -90 -56 -124s-84 -51 -140 -51
c-58.667 0 -105.334 13 -140.001 39c3.33301 -13.333 8.66602 -24.666 15.999 -33.999h-112c2 2.66699 3.66699 5 5 7c0.666992 2 1.33398 3.66699 2.00098 5c2.66699 4 4.66699 7.66699 6 11c0.666992 0.666992 1 1.66699 1 3c0.666992 2 1 3.66699 1 5v274
c0 47.333 -11 82.5 -33 105.5s-51.667 34.5 -89 34.5c-40.667 0 -71.667 -12.333 -93 -37s-32 -58.334 -32 -101.001v-231c0 -28 6 -53.333 18 -76h-110c9.33301 15.333 14 29.666 14 42.999v382c0 15.333 -5 34.666 -15 57.999l92 4l-1 -43c30 34 74.667 52 134 54h11
c38.667 0 73.667 -11.333 105 -34c-0.666992 4 -1.66699 7.33301 -3 10zM486.001 53.0029c26.667 -17.333 56.667 -26.001 90 -26.001c39.333 0 72.833 12.167 100.5 36.5s41.5 58.833 41.5 103.5c0 49.333 -14 85.833 -42 109.5s-60 35.5 -96 35.5
c-32.667 0 -63 -9.66699 -91 -29c-22 -15.333 -35.333 -33.666 -40 -54.999v-121c4.66699 -22 17 -40 37 -54z" />
    <glyph glyph-name="afii10846" unicode="&#x4d9;" 
d="M365 207c1.33301 18 2.00098 33.667 2.00098 47c0 48.667 -15.333 91.167 -46 127.5s-75 54.5 -133 54.5c-61.333 0 -111.666 -16.667 -150.999 -50l10 69c38 22.667 85.667 34 143 34c78 0 140.5 -23.5 187.5 -70.5s70.5 -109.833 70.5 -188.5
c0 -70 -20.833 -127.833 -62.5 -173.5s-92.834 -68.5 -153.501 -68.5h-5c-58.667 0.666992 -106.334 21.5 -143.001 62.5s-55.667 93.167 -57 156.5h338zM103.001 154c14 -74.667 54.667 -112 122 -112h3c30 0 56.667 9.83301 80 29.5s38.333 47.167 45 82.5h-250z" />
    <glyph glyph-name="endash" unicode="&#x2013;" horiz-adv-x="422" 
d="M390 336h-360v67h361z" />
    <glyph glyph-name="emdash" unicode="&#x2014;" horiz-adv-x="780" 
d="M31 334l-1 69h718l1 -68z" />
    <glyph glyph-name="quoteleft" unicode="&#x2018;" horiz-adv-x="153" 
d="M29 645c0 40.667 17.333 75.333 52 104h26l-7 -20c-8.66699 -24 -13 -41.667 -13 -53c0 -12 2.33301 -19.333 7 -22c6 -2.66699 10.667 -4 14 -4s8.33301 0.666992 15 2v-101h-94v94z" />
    <glyph glyph-name="quoteright" unicode="&#x2019;" horiz-adv-x="153" 
d="M123 654c0 -40.667 -17.333 -75.333 -52 -104h-25l7 20c8.66699 24 13 42 13 54c0 11.333 -2.33301 18.333 -7 21c-5.33301 2.66699 -10 4 -14 4s-9.33301 -0.666992 -16 -2v100h94v-93z" />
    <glyph glyph-name="quotesinglbase" unicode="&#x201a;" horiz-adv-x="154" 
d="M66 -25c0 16 -7.33301 23.999 -22 23.999c-2.66699 0 -7.66699 -0.666992 -15 -2v101h94v-94c0 -41.333 -17.333 -75.666 -52 -102.999h-25l7 19c8.66699 24 13 42.333 13 55z" />
    <glyph glyph-name="quotedblleft" unicode="&#x201c;" horiz-adv-x="294" 
d="M240 728c-8 -22.667 -12 -41.332 -12 -55.999s7.33301 -22 22 -22c2 0 6.66699 0.666992 14 2v-101h-93v94c0 39.333 17 73.666 51 102.999h26zM29 644.002c0 40.667 17.333 75.333 52 104h26l-7 -20c-8.66699 -24 -13 -41.667 -13 -53c0 -12 2.33301 -19.333 7 -22
c6 -2.66699 10.667 -4 14 -4s8.33301 0.666992 15 2v-101h-94v94z" />
    <glyph glyph-name="quotedblright" unicode="&#x201d;" horiz-adv-x="295" 
d="M265 654c0 -20 -5 -39.5 -15 -58.5s-22.667 -34.167 -38 -45.5h-25l9 18c7.33301 12 11 27.333 11 46c0 18 -2.33301 28.333 -7 31c-6 2 -12.333 3 -19 3h-9v99h93v-93zM123 653c0 -19.333 -5.66699 -40.333 -17 -63c-10 -16.667 -21.667 -30 -35 -40h-25l10 18
c6.66699 12 10 27 10 45c0 17.333 -2.16699 27.5 -6.5 30.5s-8.5 4.5 -12.5 4.5c-4.66699 0 -10.667 -0.666992 -18 -2v101h94v-94z" />
    <glyph glyph-name="quotedblbase" unicode="&#x201e;" horiz-adv-x="296" 
d="M265 4c0 -40.667 -17.332 -75.333 -51.999 -104h-26l9 18c7.33301 12 11 27.333 11 46c0 18 -2.33301 28.333 -7 31c-6.66699 2.66699 -11.334 4 -14.001 4c-3.33301 0 -8 -1 -14 -3v102h93v-94zM123.001 3.00098c0 -39.333 -17 -73.667 -51 -103h-26l10 18
c6.66699 12 10 27 10 45c0 17.333 -2.16699 27.5 -6.5 30.5s-8.5 4.5 -12.5 4.5c-4.66699 0 -10.667 -0.666992 -18 -2v101h94v-94z" />
    <glyph glyph-name="dagger" unicode="&#x2020;" horiz-adv-x="496" 
d="M304 735c-9.33301 -99.333 -13.999 -174.333 -13.999 -225v-12h95c14.667 0 30 1 46 3l41 5l-2 -23c-0.666992 -9.33301 -1 -17 -1 -23l3 -44l-45 3c-40.667 4.66699 -86.334 7 -137.001 7h-1v-195l8 -382h-100l7 382v195c-50.667 0 -96.334 -2.33301 -137.001 -7l-44 -3
l2 44l-2 46l40 -5c16 -2 31 -3 45 -3h96l-3 105c-3.33301 52 -6.66602 96 -9.99902 132l-1 14l13 -2h88l13 2v-14z" />
    <glyph glyph-name="bullet" unicode="&#x2022;" horiz-adv-x="145" 
d="M72 329c-28.667 0 -43 14 -43 42c0 27.333 14.333 41 43 41s43 -13.667 43 -41c0 -28 -14.333 -42 -43 -42z" />
    <glyph glyph-name="ellipsis" unicode="&#x2026;" horiz-adv-x="397" 
d="M279 -5v96h87v-96h-87zM155 -5v96h87v-96h-87zM30 -5v96h87v-96h-87z" />
    <glyph glyph-name="trademark" unicode="&#x2122;" horiz-adv-x="820" 
d="M385 378l-40.998 -4.00293h-14v21h18c12 2 19.833 4.83301 23.5 8.5s5.5 9.83398 5.5 18.501v275c0 10 -1.83301 17.333 -5.5 22s-13.834 7 -30.501 7h-11v21l48 -4c6.66699 0 16 0.666992 28 2l29 2l128 -285l46 101l31 65.5c12.667 26.333 23 49.166 31 68.499l14 37
l4 13l29 -2c10 -1.33301 18 -2 24 -2s14 0.666992 24 2l28 2v-21h-12c-17.333 0 -27.5 -2.33301 -30.5 -7s-4.5 -12 -4.5 -22v-275c0 -9.33301 1.83301 -16.166 5.5 -20.499s11.167 -6.5 22.5 -6.5l18 -1v-20l-39 2c-14.667 1.33301 -26.667 2 -36 2
s-21.333 -0.666992 -36 -2l-40 -2v21h18c12 2 19.667 4.83301 23 8.5s5 9.83398 5 18.501v235l-129 -288h-17l-128 286v-233c0 -9.33301 1.83301 -16.166 5.5 -20.499s11.5 -6.5 23.5 -6.5l18 -1v-20l-39 2c-10.667 1.33301 -20.334 2 -29.001 2h-8zM318.002 655.997
l-23.998 -0.000976562l-4 36c-2 14.667 -6.66699 22 -14 22l-74 1v-293c0 -10 1.83301 -17 5.5 -21s11.167 -6 22.5 -6l17 -1v-20l-38 2c-14.667 1.33301 -26.667 2 -36 2s-21.333 -0.666992 -36 -2l-41 -2v21h19c12.667 2 20.5 4.83301 23.5 8.5s4.5 9.83398 4.5 18.501
v293l-73 -2c-3.33301 0 -5.33301 -0.333008 -6 -1c-2.66699 -4.66699 -4.33398 -10 -5.00098 -16l-5 -40h-26l-3 91l64 -2c23.333 -0.666992 43.666 -1 60.999 -1h24l148 3z" />
    <glyph glyph-name="partialdiff" unicode="&#x2202;" horiz-adv-x="499" 
d="M205 768c80.667 -0.666992 145.499 -39.833 194.499 -117.5s73.5 -173.5 73.5 -287.5c0 -88 -21 -171.333 -63 -250c-47.333 -90 -107.333 -135 -180 -135c-5.33301 0 -11.333 0.333008 -18 1c-58.667 6 -104.167 27.833 -136.5 65.5s-49.833 84.834 -52.5 141.501v12
c0 54.667 19 104.667 57 150s85.667 68 143 68h2c41.333 0 84.333 -16.667 129 -50l22 -16l7 45c3.33301 23.333 5 45.666 5 66.999c0 53.333 -9.66699 103 -29 149c-30.667 72 -76.334 108 -137.001 108c-11.333 0 -42.666 -8.66699 -93.999 -26l-23 -6l-39 53l45 13
c34.667 10 64.334 15 89.001 15h5zM339.999 332.001c-26 25.333 -52.6689 37.999 -80.002 37.999c-28 0 -54.667 -12.667 -80 -38s-43.666 -60.333 -54.999 -105c-6 -23.333 -9 -46 -9 -68s3 -43 9 -63c13.333 -43.333 38.333 -70.666 75 -81.999
c8.66699 -3.33301 17 -5 25 -5c28.667 0 54.334 19.333 77.001 58c22 38.667 39 91 51 157l14 81z" />
    <glyph glyph-name="product" unicode="&#x220f;" horiz-adv-x="838" 
d="M495 -104l-0.00195312 24l30 1c24.667 1.33301 41.667 6.66602 51 15.999s14 33 14 71v685h-350v-679c0 -40.667 8.33301 -67 25 -79c10.667 -8.66699 28.334 -13 53.001 -13h24v-26h-319v27h30c22 0 39.333 5 52 15s19 35.667 19 77v620c0 30.667 -10.333 54.667 -31 72
c-14 12.667 -28.667 20 -44 22l-21 3v25h786v-28l-27 -1c-14.667 -0.666992 -28.667 -7 -42 -19c-20.667 -17.333 -31 -47.666 -31 -90.999v-612c0 -33.333 6.33301 -56 19 -68s30.334 -18.667 53.001 -20l28 -1v-21h-319z" />
    <glyph glyph-name="summation" unicode="&#x2211;" horiz-adv-x="737" 
d="M713 120c-24 -71.333 -37.667 -150 -41 -236l-76 16h-573l354 408l-347 456l70 -7h542l1 -170h-31v10c0 32 -12 59.667 -36 83c-19.333 17.333 -50.333 26 -93 26h-283l278 -352l-296 -350h390c21.333 0 42 8 62 24c28 22 43.667 52.667 47 92h32z" />
    <glyph glyph-name="radical" unicode="&#x221a;" horiz-adv-x="515" 
d="M353 -65l-229 477l-86 -46l-15 37l138 69l174 -361l116 730l40 -6z" />
    <glyph glyph-name="infinity" unicode="&#x221e;" horiz-adv-x="791" 
d="M763 271v-6c0 -46.667 -15 -85.5 -45 -116.5s-64.667 -46.5 -104 -46.5h-5c-62.667 0 -120 25.667 -172 77l-41 41l-43 -41c-52.667 -51.333 -109.667 -77 -171 -77h-5c-40 0 -74.833 15.667 -104.5 47s-44.5 71 -44.5 119v3c1.33301 42 17 77.667 47 107
s66.667 45 110 47h7c48 0 98 -24.667 150 -74l53 -50l55 50c52.667 49.333 102 74 148 74h7c44 -2 81 -17.667 111 -47s45.667 -65 47 -107zM700 266c-2 28.667 -12.333 51.998 -31 69.998s-40.334 27 -65.001 27h-3c-28 -1.33301 -61 -16.666 -99 -45.999l-70 -54l65 -63
c29.333 -28 61 -42 95 -42c0.666992 0 1.33398 0.333008 2.00098 1c34 0 60.167 9.83301 78.5 29.5s27.5 42.834 27.5 69.501v8zM288 316.998c-36.667 29.333 -69.667 44.6689 -99 46.002h-3c-24.667 0 -46.167 -9 -64.5 -27s-28.833 -41.333 -31.5 -70v-8
c0 -26.667 9.33301 -49.834 28 -69.501s43 -29.834 73 -30.501c40 0 73.667 13.667 101 41l67 64z" />
    <glyph glyph-name="integral" unicode="&#x222b;" horiz-adv-x="306" 
d="M129 -68l-1.99902 123.998v447c0 162.667 31.667 244 95 244c16 0 30 -4.5 42 -13.5s18 -19.167 18 -30.5v-6c-3.33301 -26 -20.333 -39.333 -51 -40c0 2.66699 -6.5 7.16699 -19.5 13.5s-19.833 9.5 -20.5 9.5c-7.33301 0 -11 -16.667 -11 -50
c0 -9.33301 0.333008 -19.666 1 -30.999l7 -88c3.33301 -37.333 5 -65.666 5 -84.999v-323c0 -215.333 -35.667 -323 -107 -323c-7.33301 0 -15 1 -23 3c-26.667 8 -40 22.667 -40 44v6c2 26.667 16 40 42 40h2c10 0 18.333 -4.33301 25 -13
c7.33301 -10.667 13.666 -16 18.999 -16c10.667 0 16.667 23 18 69v19z" />
    <glyph glyph-name="approxequal" unicode="&#x2248;" horiz-adv-x="651" 
d="M602 374c-36 -42.667 -82.335 -65.333 -139.002 -68h-1c-10 0 -46.333 9 -109 27l-88 26c-33.333 9.33301 -55.666 14 -66.999 14c-37.333 0 -69.333 -15.333 -96 -46l-22 -24l-53 35l15 17c45.333 50 97.666 75 156.999 75c28 0 58.667 -5.66699 92 -17l78 -24
c44.667 -15.333 74.334 -23 89.001 -23h3c38.667 3.33301 68.334 17 89.001 41l24 25l49 -32zM601.998 194.001c-36 -42.667 -82.334 -65.333 -139.001 -68h-1c-9.33301 0 -45.666 9 -108.999 27l-88 25c-34.667 10 -57.334 15 -68.001 15c-36 0 -67.667 -15.333 -95 -46
l-22 -24l-53 35l15 17c36 40 78.667 64 128 72c9.33301 2 23.333 3 42 3s45 -5.66699 79 -17l78 -25c46 -14.667 75.667 -22 89 -22h3c38.667 3.33301 68.334 17 89.001 41l24 25l49 -32z" />
    <glyph glyph-name="notequal" unicode="&#x2260;" horiz-adv-x="584" 
d="M255 140l-89 -176l-57 33l75 143h-157v60h187l73 146l-260 -1v61h292l93 178l57 -29l-78 -149h165v-61l-196 1l-75 -146h271v-60h-301z" />
    <glyph glyph-name="lessequal" unicode="&#x2264;" horiz-adv-x="561" 
d="M26 367v59l507 254v-70l-423 -217l423 -205v-66zM26 -4v64h507v-64h-507z" />
    <glyph glyph-name="greaterequal" unicode="&#x2265;" horiz-adv-x="561" 
d="M27 122v66l423 205l-423 217v70l507 -254v-59zM27 -4v64h507v-64h-507z" />
    <glyph glyph-name="lozenge" unicode="&#x25ca;" horiz-adv-x="489" 
d="M280 -4h-69l-188 385l188 365h69l185 -371zM245 680l-155 -301l157 -323l153 319z" />
    <glyph glyph-name="nonmarkingreturn" horiz-adv-x="333" 
 />
    </font>
</defs>
</svg>
